<svg width="24" height="24" viewBox="0 0 24 24" fill="none" xmlns="http://www.w3.org/2000/svg">
<path d="M17 4H18C19.6569 4 21 5.34315 21 7V8" stroke="#119F00" stroke-width="1.5" stroke-linecap="round"/>
<path d="M3 8L3 7C3 5.34315 4.34315 4 6 4L7 4" stroke="#119F00" stroke-width="1.5" stroke-linecap="round"/>
<path d="M21 16L21 17C21 18.6569 19.6569 20 18 20L17 20" stroke="#119F00" stroke-width="1.5" stroke-linecap="round"/>
<path d="M3 16L3 17C3 18.6569 4.34315 20 6 20L7 20" stroke="#119F00" stroke-width="1.5" stroke-linecap="round"/>
<path d="M6 9C6 7.89543 6.89543 7 8 7H16C17.1046 7 18 7.89543 18 9V15C18 16.1046 17.1046 17 16 17H8C6.89543 17 6 16.1046 6 15V9Z" fill="#15B400"/>
<path d="M9 10.5H13M9 13H11" stroke="#161B2D" stroke-width="1.5" stroke-linecap="round" stroke-linejoin="round"/>
</svg>
