<svg width="46" height="13" viewBox="0 0 46 13" fill="none" xmlns="http://www.w3.org/2000/svg">
<path d="M27.208 5.23301C27.9189 5.23301 28.5921 5.7089 28.7342 6.73713H25.5681C25.7006 5.83485 26.317 5.23301 27.208 5.23301ZM28.633 8.25838C28.3912 8.67082 27.9238 8.98807 27.2839 8.98807C26.4022 8.98807 25.729 8.45921 25.5681 7.52552H29.5402C29.5594 7.3917 29.569 7.25646 29.5692 7.12101C29.5692 5.66893 28.6414 4.38245 27.2085 4.38245C25.7299 4.38245 24.725 5.57533 24.725 7.11086C24.725 8.66542 25.7397 9.83928 27.2654 9.83928C28.2135 9.83928 28.9339 9.37227 29.3509 8.66542L28.633 8.25838Z" fill="#006BFF"/>
<path d="M24.3346 2.13171H23.5101V9.70434H24.3346V2.13171Z" fill="#006BFF"/>
<path d="M34.1573 6.51971V9.70403H33.3325V6.57143C33.3325 5.72086 32.8871 5.2437 32.1571 5.2437C31.3986 5.2437 30.7825 5.73133 30.7825 6.95531V9.70403H29.9576V4.51814H30.7825V5.26496C31.1333 4.65297 31.6546 4.3833 32.3191 4.3833C33.4281 4.3833 34.1582 5.19231 34.1582 6.52035" fill="#006BFF"/>
<path d="M38.705 7.11075C38.705 6.0527 37.9749 5.25385 37.0175 5.25385C36.0695 5.25385 35.3397 6.0527 35.3397 7.11075C35.3397 8.16881 36.0695 8.96766 37.0175 8.96766C37.9743 8.96766 38.705 8.16881 38.705 7.11075ZM39.5295 2.13171V9.70434H38.705V8.81189C38.3257 9.44641 37.7192 9.83917 36.9132 9.83917C35.5954 9.83917 34.5148 8.64596 34.5148 7.11075C34.5148 5.57555 35.5954 4.38234 36.9132 4.38234C37.7189 4.38234 38.3257 4.77637 38.705 5.4093V2.13171H39.5295Z" fill="#006BFF"/>
<path d="M41.0192 2.13171H40.1946V9.70434H41.0192V2.13171Z" fill="#006BFF"/>
<path d="M22.04 7.11062C22.04 6.05256 21.3103 5.25371 20.3526 5.25371C19.4048 5.25371 18.6748 6.05256 18.6748 7.11062C18.6748 8.16867 19.4048 8.96753 20.3526 8.96753C21.3094 8.96753 22.04 8.16867 22.04 7.11062ZM22.8649 4.51799V9.70388H22.04V8.81175C21.6608 9.44627 21.0543 9.83903 20.2485 9.83903C18.9308 9.83903 17.8499 8.64583 17.8499 7.11062C17.8499 5.57541 18.9308 4.3822 20.2485 4.3822C21.0543 4.3822 21.6608 4.77624 22.04 5.40916V4.51799H22.8649Z" fill="#006BFF"/>
<path d="M16.6268 8.70574C16.2046 8.87621 15.7489 8.92223 15.3054 8.8392C14.8618 8.75616 14.446 8.54699 14.0996 8.23265C13.7532 7.91831 13.4885 7.50985 13.3319 7.04823C13.1753 6.58661 13.1323 6.08804 13.2073 5.60253C13.2823 5.11701 13.4727 4.66161 13.7593 4.28197C14.0459 3.90234 14.4186 3.61183 14.8402 3.43955C15.2617 3.26728 15.7173 3.21931 16.1611 3.30044C16.605 3.38158 17.0215 3.58897 17.369 3.90182C17.5139 4.03265 17.645 4.18077 17.7598 4.34345L18.4734 3.77238C18.0577 3.17774 17.49 2.73154 16.8423 2.49032C16.1946 2.2491 15.496 2.22373 14.8352 2.41742C14.1743 2.61112 13.5808 3.01516 13.13 3.57833C12.6792 4.1415 12.3913 4.83844 12.3029 5.58083C12.2145 6.32322 12.3295 7.07762 12.6333 7.74841C12.9371 8.41921 13.4161 8.97619 14.0096 9.34878C14.603 9.72136 15.2842 9.89276 15.9668 9.84126C16.6493 9.78976 17.3025 9.51767 17.8436 9.05948L17.3687 8.23778C17.1469 8.43774 16.8961 8.59589 16.6268 8.70574" fill="#006BFF"/>
<path d="M45 4.51807V7.46158C45 8.41336 44.494 9.01614 43.7216 9.01614C42.9493 9.01614 42.39 8.41336 42.39 7.46158V4.51807H41.5555V7.37338C41.5555 8.86957 42.4077 9.84101 43.7216 9.84101C44.8582 9.84101 45.0356 9.05422 45.0356 9.03455V10.0936C45.0356 11.1427 44.6184 11.7354 43.7483 11.7354C43.4375 11.737 43.1367 11.615 42.9021 11.3921C42.6674 11.1691 42.5147 10.8604 42.4726 10.5234L41.7266 10.809C41.8334 11.3082 42.0915 11.7531 42.4588 12.0713C42.8262 12.3894 43.2812 12.5621 43.7498 12.5612C45.0991 12.5612 45.8373 11.5894 45.8373 10.0936V4.51807H45Z" fill="#006BFF"/>
<path d="M6.7131 7.53934C6.3962 7.84708 6.00044 8.23001 5.28286 8.23001H4.85376C4.33448 8.23001 3.86218 8.02347 3.52412 7.64911C3.19389 7.28331 3.0121 6.78268 3.0121 6.23922V5.59677C3.0121 5.05331 3.19389 4.55268 3.52412 4.18688C3.86218 3.81251 4.33448 3.6063 4.85376 3.6063H5.28286C6.00131 3.6063 6.3962 3.98891 6.7131 4.29665C7.04217 4.61391 7.32602 4.89119 8.08304 4.89119C8.19849 4.89116 8.31377 4.88108 8.42777 4.86105L8.42516 4.85375C8.37981 4.73054 8.32662 4.61096 8.26598 4.49589L7.76005 3.53682C7.5319 3.10447 7.20376 2.74545 6.80862 2.49585C6.41348 2.24624 5.96526 2.11485 5.50901 2.11487H4.49685C4.04059 2.11485 3.59237 2.24624 3.19723 2.49585C2.80209 2.74545 2.47395 3.10447 2.2458 3.53682L1.73987 4.49589C1.51179 4.92828 1.39172 5.41874 1.39172 5.91799C1.39172 6.41725 1.51179 6.90771 1.73987 7.3401L2.2458 8.29917C2.47395 8.73152 2.80209 9.09054 3.19723 9.34014C3.59237 9.58975 4.04059 9.72114 4.49685 9.72112H5.50901C5.96526 9.72114 6.41348 9.58975 6.80862 9.34014C7.20376 9.09054 7.5319 8.73152 7.76005 8.29917L8.26598 7.34169C8.32662 7.22662 8.37981 7.10704 8.42516 6.98382L8.42777 6.97684C8.31382 6.95613 8.19854 6.94552 8.08304 6.94512C7.32602 6.94512 7.04217 7.22081 6.7131 7.53966" fill="#006BFF"/>
<path d="M5.28286 4.1886H4.85376C4.0634 4.1886 3.54413 4.8063 3.54413 5.59691V6.23935C3.54413 7.02996 4.0634 7.64766 4.85376 7.64766H5.28286C6.43448 7.64766 6.34402 6.36277 8.08304 6.36277C8.2478 6.36256 8.41223 6.37913 8.57419 6.41226C8.62695 6.08537 8.62695 5.75089 8.57419 5.424C8.41221 5.45697 8.2478 5.47354 8.08304 5.47349C6.34344 5.47349 6.43448 4.1886 5.28286 4.1886" fill="#006BFF"/>
<path d="M9.5733 6.88167C9.27716 6.64433 8.93563 6.48367 8.57448 6.41181C8.57448 6.4153 8.57448 6.41816 8.57448 6.42133C8.54339 6.61076 8.49482 6.79624 8.42951 6.97494C8.72785 7.0255 9.0109 7.15307 9.25524 7.34709C9.25524 7.34962 9.25379 7.3528 9.25292 7.35565C8.93844 8.46992 8.26914 9.4238 7.36659 10.044C6.46405 10.6642 5.38814 10.9096 4.33431 10.7356C3.28049 10.5616 2.31865 9.97972 1.62354 9.09571C0.928432 8.21171 0.546155 7.08419 0.546155 5.918C0.546155 4.7518 0.928432 3.62429 1.62354 2.74028C2.31865 1.85628 3.28049 1.27442 4.33431 1.10041C5.38814 0.926407 6.46405 1.17179 7.36659 1.792C8.26914 2.4122 8.93844 3.36608 9.25292 4.48035C9.25292 4.4832 9.25437 4.48637 9.25524 4.48891C9.01094 4.68296 8.72786 4.81043 8.42951 4.86074C8.49474 5.03968 8.54331 5.22537 8.57448 5.41499C8.57431 5.41795 8.57431 5.42091 8.57448 5.42387C8.93561 5.35213 9.27714 5.19158 9.5733 4.95433C9.85801 4.72368 9.80293 4.46321 9.75973 4.30903C9.40771 3.0597 8.65778 1.99002 7.64621 1.29436C6.63464 0.598694 5.42856 0.323218 4.24713 0.517986C3.0657 0.712754 1.98733 1.36484 1.20798 2.35575C0.428621 3.34667 0 4.61064 0 5.918C0 7.22536 0.428621 8.48933 1.20798 9.48024C1.98733 10.4712 3.0657 11.1232 4.24713 11.318C5.42856 11.5128 6.63464 11.2373 7.64621 10.5416C8.65778 9.84598 9.40771 8.7763 9.75973 7.52697C9.80293 7.37278 9.85801 7.11232 9.5733 6.88167Z" fill="#006BFF"/>
<path d="M8.42782 4.86078C8.31387 4.8815 8.19859 4.89211 8.08308 4.89251C7.32607 4.89251 7.04222 4.61681 6.71344 4.29797C6.39625 3.99023 6.00136 3.6073 5.28291 3.6073H4.8538C4.33424 3.6073 3.86223 3.81383 3.52417 4.1882C3.19393 4.554 3.01215 5.05463 3.01215 5.59809V6.24054C3.01215 6.784 3.19393 7.28463 3.52417 7.65043C3.86223 8.02479 4.33424 8.23101 4.8538 8.23101H5.28291C6.00136 8.23101 6.39625 7.8484 6.71344 7.54066C7.04222 7.2234 7.32607 6.94612 8.08308 6.94612C8.19854 6.94615 8.31382 6.95623 8.42782 6.97626C8.49326 6.79761 8.54183 6.61211 8.57278 6.42264C8.57295 6.41947 8.57295 6.4163 8.57278 6.41313C8.4108 6.38026 8.24638 6.3638 8.08164 6.36395C6.34203 6.36395 6.43307 7.64916 5.28146 7.64916H4.85235C4.062 7.64916 3.54272 7.03114 3.54272 6.24054V5.59682C3.54272 4.80622 4.062 4.18852 4.85235 4.18852H5.28146C6.43307 4.18852 6.34261 5.47309 8.08164 5.47309C8.24639 5.4734 8.41081 5.45694 8.57278 5.42392C8.57278 5.42106 8.57278 5.41821 8.57278 5.41503C8.54162 5.22542 8.49305 5.03973 8.42782 4.86078Z" fill="#0AE8F0"/>
<path d="M8.42782 4.86078C8.31387 4.8815 8.19859 4.89211 8.08308 4.89251C7.32607 4.89251 7.04222 4.61681 6.71344 4.29797C6.39625 3.99023 6.00136 3.6073 5.28291 3.6073H4.8538C4.33424 3.6073 3.86223 3.81383 3.52417 4.1882C3.19393 4.554 3.01215 5.05463 3.01215 5.59809V6.24054C3.01215 6.784 3.19393 7.28463 3.52417 7.65043C3.86223 8.02479 4.33424 8.23101 4.8538 8.23101H5.28291C6.00136 8.23101 6.39625 7.8484 6.71344 7.54066C7.04222 7.2234 7.32607 6.94612 8.08308 6.94612C8.19854 6.94615 8.31382 6.95623 8.42782 6.97626C8.49326 6.79761 8.54183 6.61211 8.57278 6.42264C8.57295 6.41947 8.57295 6.4163 8.57278 6.41313C8.4108 6.38026 8.24638 6.3638 8.08164 6.36395C6.34203 6.36395 6.43307 7.64916 5.28146 7.64916H4.85235C4.062 7.64916 3.54272 7.03114 3.54272 6.24054V5.59682C3.54272 4.80622 4.062 4.18852 4.85235 4.18852H5.28146C6.43307 4.18852 6.34261 5.47309 8.08164 5.47309C8.24639 5.4734 8.41081 5.45694 8.57278 5.42392C8.57278 5.42106 8.57278 5.41821 8.57278 5.41503C8.54162 5.22542 8.49305 5.03973 8.42782 4.86078Z" fill="#0AE8F0"/>
</svg>
