<svg width="119" height="19" viewBox="0 0 119 19" fill="none" xmlns="http://www.w3.org/2000/svg">
<path d="M9.10425 4.34668H7.0354C7.00756 4.34668 6.98085 4.35749 6.96117 4.37672C6.94148 4.39594 6.93042 4.42202 6.93042 4.44921V14.7569C6.93042 14.7841 6.94148 14.8101 6.96117 14.8294C6.98085 14.8486 7.00756 14.8594 7.0354 14.8594H9.10425C9.13209 14.8594 9.15879 14.8486 9.17848 14.8294C9.19816 14.8101 9.20922 14.7841 9.20922 14.7569V4.44921C9.20922 4.42202 9.19816 4.39594 9.17848 4.37672C9.15879 4.35749 9.13209 4.34668 9.10425 4.34668V4.34668Z" fill="white"/>
<path d="M15.6124 4.13735C15.1134 4.13001 14.6185 4.22611 14.1603 4.41929C13.7011 4.61846 13.2899 4.90951 12.9531 5.27363C12.8875 5.33771 12.7607 5.37616 12.7213 5.27363L12.507 4.48336C12.4988 4.45157 12.4784 4.42406 12.4501 4.40647C12.4376 4.39595 12.4229 4.3882 12.4071 4.38378C12.3912 4.37935 12.3746 4.37836 12.3583 4.38085H10.5125L10.4775 4.4022C10.4672 4.41149 10.4597 4.42329 10.4556 4.43638C10.4515 4.45033 10.4515 4.46513 10.4556 4.47909V14.7611C10.4516 14.7736 10.4516 14.7871 10.4556 14.7996C10.4586 14.8131 10.4664 14.8252 10.4775 14.8338L10.5125 14.8551H10.5518H12.6601C12.6734 14.8491 12.6854 14.8403 12.6951 14.8295C12.7048 14.8198 12.7122 14.8081 12.7169 14.7953C12.7209 14.7828 12.7209 14.7694 12.7169 14.7569V8.96013C12.7169 7.52484 13.5655 6.17496 15.2888 6.17496C17.1827 6.17496 17.8869 7.64871 17.8869 9.06265V14.7526C17.8847 14.7653 17.8847 14.7783 17.8869 14.791C17.8915 14.8038 17.899 14.8155 17.9087 14.8252C17.92 14.8362 17.9334 14.8449 17.9481 14.8508H20.0738H20.1132L20.1482 14.8295C20.1678 14.8217 20.1846 14.8083 20.1963 14.791C20.1984 14.7783 20.1984 14.7653 20.1963 14.7526V9.06265C20.1963 6.40137 18.8316 4.13735 15.6124 4.13735Z" fill="white"/>
<path d="M31.1311 4.34663H29.3247C29.2372 4.34663 29.1979 4.34664 29.176 4.44916L28.9617 5.19671C28.9179 5.30351 28.813 5.30351 28.7299 5.19671C27.926 4.52724 26.9122 4.14595 25.8562 4.11597C22.7945 4.11597 20.8656 6.34153 20.8656 9.60512C20.8656 12.8687 22.8863 15.0687 25.8431 15.0687C26.93 15.0829 27.9808 14.6882 28.778 13.9666C28.7905 13.9536 28.8078 13.9459 28.8261 13.9452C28.8445 13.9387 28.8646 13.9387 28.883 13.9452C28.9 13.9511 28.9151 13.9615 28.9267 13.9751C28.9376 13.9905 28.9451 14.008 28.9486 14.0264V18.8919C28.9449 18.9059 28.9449 18.9206 28.9486 18.9346C28.9472 18.9459 28.9472 18.9574 28.9486 18.9688L28.9836 18.9901H29.0273H31.1311H31.1749L31.2099 18.9688C31.2187 18.9584 31.2261 18.9469 31.2317 18.9346C31.2354 18.9206 31.2354 18.9059 31.2317 18.8919V4.44916C31.2339 4.43643 31.2339 4.42345 31.2317 4.41072C31.2339 4.39942 31.2339 4.38783 31.2317 4.37654L31.2011 4.35518L31.1311 4.34663ZM26.1755 13.0439C24.2379 13.0439 23.175 11.6299 23.175 9.62649C23.175 7.62305 24.2379 6.17493 26.1755 6.17493C27.9819 6.17493 28.9617 7.61024 28.9617 9.62649C28.9442 11.7239 27.9776 13.0439 26.1711 13.0439H26.1755Z" fill="white"/>
<path d="M8.06755 1.1814C7.80775 1.18182 7.55392 1.25754 7.33823 1.39898C7.12254 1.54043 6.9547 1.74123 6.85598 1.97593C6.75522 2.20925 6.72929 2.46693 6.78162 2.71494C6.83181 2.96409 6.95664 3.19304 7.14028 3.37278C7.32313 3.5514 7.55595 3.67326 7.80949 3.72307C8.06493 3.77319 8.32987 3.74792 8.57055 3.65045C8.81086 3.55448 9.01537 3.38902 9.15665 3.17628C9.28778 2.98349 9.36301 2.75961 9.37434 2.52842C9.38567 2.29723 9.33267 2.06736 9.22098 1.86322C9.1093 1.65908 8.94308 1.4883 8.74 1.369C8.53692 1.2497 8.30454 1.18634 8.06755 1.18566V1.1814Z" fill="white"/>
<path d="M5.57883 12.6552H2.82327C2.76895 12.6546 2.71706 12.6331 2.67893 12.5954C2.6595 12.578 2.64401 12.5569 2.63346 12.5334C2.62291 12.5098 2.61754 12.4844 2.61769 12.4587V1.83917C2.61856 1.82559 2.61626 1.812 2.61095 1.79942C2.60565 1.78684 2.59749 1.7756 2.58708 1.76655C2.57763 1.75663 2.56608 1.74881 2.55325 1.74365C2.54041 1.73849 2.52659 1.7361 2.51272 1.73665H0.448244C0.434411 1.73637 0.420667 1.73888 0.407873 1.74403C0.395079 1.74917 0.383504 1.75684 0.373882 1.76655C0.364142 1.7761 0.35643 1.78743 0.351177 1.79989C0.345923 1.81235 0.343234 1.82569 0.343268 1.83917V13.3728C0.342691 13.5688 0.38178 13.7629 0.458288 13.944C0.534797 14.1251 0.647218 14.2897 0.789081 14.4283C0.930943 14.5668 1.09945 14.6766 1.28491 14.7513C1.47038 14.826 1.66914 14.8642 1.86976 14.8637H5.57883C5.60651 14.8629 5.63295 14.8522 5.65318 14.8338C5.66312 14.8244 5.67097 14.8131 5.67624 14.8006C5.68151 14.7881 5.68409 14.7746 5.6838 14.7611V12.7406C5.68467 12.727 5.68237 12.7134 5.67706 12.7009C5.67176 12.6883 5.66359 12.677 5.65318 12.668C5.64373 12.6581 5.63219 12.6502 5.61936 12.6451C5.60652 12.6399 5.59269 12.6375 5.57883 12.6381V12.6552Z" fill="white"/>
<path d="M41.8428 4.70979C41.8435 4.69634 41.8412 4.68291 41.8361 4.6704C41.831 4.65788 41.8232 4.64659 41.8133 4.63727C41.8033 4.62795 41.7914 4.62084 41.7784 4.6164C41.7654 4.61196 41.7516 4.61031 41.7378 4.61155H39.5203C39.5065 4.61222 39.4927 4.60998 39.4799 4.60501C39.4671 4.60003 39.4555 4.59242 39.446 4.5827C39.4365 4.57298 39.4292 4.56138 39.4246 4.54866C39.4201 4.53595 39.4184 4.52243 39.4197 4.50902V3.34711C39.4027 3.21683 39.4154 3.0845 39.4568 2.95955C39.4981 2.83461 39.5673 2.72012 39.6591 2.62425C39.751 2.52838 39.8635 2.4535 39.9884 2.40493C40.1133 2.35636 40.2477 2.33529 40.3819 2.34325H41.7378C41.7516 2.34449 41.7654 2.34284 41.7784 2.3384C41.7914 2.33396 41.8033 2.32685 41.8133 2.31753C41.8232 2.30821 41.831 2.29692 41.8361 2.28441C41.8412 2.27189 41.8435 2.25846 41.8428 2.24501V0.741355C41.8434 0.72773 41.8411 0.714138 41.8361 0.701425C41.831 0.688712 41.8233 0.677161 41.8134 0.667518C41.8036 0.657874 41.7917 0.650346 41.7787 0.645408C41.7657 0.64047 41.7518 0.638231 41.7378 0.638838H40.3644C38.453 0.600392 37.4689 1.36076 37.4689 3.00538V4.50902C37.4695 4.52264 37.4672 4.53625 37.4622 4.54896C37.4571 4.56168 37.4494 4.57323 37.4395 4.58287C37.4297 4.59251 37.4178 4.60004 37.4048 4.60498C37.3918 4.60992 37.3779 4.61216 37.3639 4.61155H35.5356C35.5223 4.61094 35.5089 4.61306 35.4964 4.61778C35.4839 4.6225 35.4726 4.62972 35.4631 4.63897C35.4537 4.64821 35.4463 4.6593 35.4414 4.67149C35.4366 4.68369 35.4344 4.69673 35.435 4.70979V6.01694C35.4344 6.03 35.4366 6.04306 35.4414 6.05525C35.4463 6.06745 35.4537 6.07852 35.4631 6.08776C35.4726 6.09701 35.4839 6.10423 35.4964 6.10895C35.5089 6.11367 35.5223 6.1158 35.5356 6.11519H37.3639C37.3779 6.11459 37.3918 6.11683 37.4048 6.12176C37.4178 6.1267 37.4297 6.13423 37.4395 6.14387C37.4494 6.15352 37.4571 6.16507 37.4622 6.17778C37.4672 6.19049 37.4695 6.20409 37.4689 6.21771V14.6586C37.4676 14.6721 37.4693 14.6856 37.4739 14.6983C37.4784 14.711 37.4857 14.7226 37.4953 14.7323C37.5048 14.742 37.5164 14.7497 37.5292 14.7546C37.542 14.7596 37.5557 14.7618 37.5695 14.7612H39.3191C39.333 14.7618 39.3469 14.7595 39.36 14.7546C39.373 14.7497 39.3848 14.7421 39.3947 14.7325C39.4045 14.7228 39.4123 14.7113 39.4173 14.6986C39.4224 14.6859 39.4247 14.6723 39.424 14.6586V6.21771C39.4228 6.2043 39.4245 6.19079 39.429 6.17808C39.4336 6.16537 39.4408 6.15375 39.4504 6.14403C39.4599 6.13431 39.4715 6.1267 39.4843 6.12172C39.4971 6.11675 39.5109 6.11452 39.5246 6.11519H41.7422C41.7559 6.11643 41.7698 6.11478 41.7828 6.11034C41.7958 6.1059 41.8077 6.09878 41.8177 6.08946C41.8276 6.08014 41.8354 6.06885 41.8405 6.05633C41.8456 6.04382 41.8479 6.03039 41.8472 6.01694L41.8428 4.70979Z" fill="white"/>
<path d="M46.9079 4.41077C43.6843 4.41077 41.8167 6.54662 41.8167 9.68634C41.8167 12.8261 43.6843 14.9619 46.9079 14.9619C50.1314 14.9619 51.9991 12.8261 51.9991 9.68634C51.9991 6.54662 50.1139 4.41077 46.9079 4.41077ZM46.9079 13.2575C44.9571 13.2575 43.7674 11.7709 43.7674 9.68634C43.7674 7.60174 44.9571 6.11518 46.9079 6.11518C48.8586 6.11518 50.0483 7.60174 50.0483 9.68634C50.0483 11.7709 48.8805 13.2575 46.9079 13.2575V13.2575Z" fill="white"/>
<path d="M59.0366 4.41078H57.9868C56.959 4.41078 56.2023 4.95329 55.5025 5.63249C55.4412 5.6923 55.3188 5.73501 55.275 5.63249L55.0694 4.72689C55.0694 4.66708 55.0301 4.62863 54.9688 4.62863H53.438C53.4242 4.62739 53.4104 4.62906 53.3974 4.6335C53.3844 4.63793 53.3725 4.64505 53.3625 4.65437C53.3526 4.66368 53.3448 4.67498 53.3397 4.68749C53.3346 4.7 53.3323 4.71344 53.333 4.72689V14.6757C53.3324 14.6894 53.3347 14.703 53.3397 14.7157C53.3448 14.7284 53.3525 14.7399 53.3624 14.7496C53.3722 14.7592 53.3841 14.7667 53.3971 14.7717C53.4101 14.7766 53.424 14.7789 53.438 14.7783H55.1875C55.2013 14.7789 55.2151 14.7767 55.2279 14.7717C55.2407 14.7667 55.2522 14.7591 55.2618 14.7494C55.2713 14.7397 55.2786 14.7281 55.2832 14.7154C55.2877 14.7027 55.2894 14.6891 55.2881 14.6757V9.14385C55.2881 7.5804 56.2766 6.1152 57.9999 6.1152H59.0497C59.0631 6.11581 59.0764 6.11368 59.0889 6.10895C59.1014 6.10423 59.1127 6.09702 59.1222 6.08777C59.1317 6.07852 59.1391 6.06745 59.1439 6.05526C59.1487 6.04306 59.1509 6.03001 59.1503 6.01694V4.50903C59.1512 4.49475 59.1488 4.48047 59.1432 4.46726C59.1376 4.45404 59.129 4.44224 59.118 4.43276C59.107 4.42329 59.094 4.41638 59.0799 4.41257C59.0658 4.40876 59.051 4.40816 59.0366 4.41078V4.41078Z" fill="white"/>
<path d="M72.6482 2.24496V0.741305C72.6495 0.727897 72.6477 0.714388 72.6432 0.701675C72.6387 0.688963 72.6314 0.677346 72.6218 0.667624C72.6123 0.657903 72.6007 0.650295 72.5879 0.645319C72.5751 0.640344 72.5613 0.638119 72.5476 0.638788H62.4614C62.4476 0.638119 62.4338 0.640344 62.421 0.645319C62.4082 0.650295 62.3967 0.657903 62.3871 0.667624C62.3776 0.677346 62.3703 0.688963 62.3657 0.701675C62.3612 0.714388 62.3595 0.727897 62.3608 0.741305V2.24496C62.3601 2.25802 62.3623 2.27107 62.3672 2.28326C62.372 2.29546 62.3794 2.30654 62.3888 2.31579C62.3983 2.32503 62.4096 2.33225 62.4221 2.33697C62.4346 2.34169 62.448 2.34381 62.4614 2.3432H66.4241C66.4679 2.3432 66.5072 2.38592 66.5291 2.42437V14.6586C66.5278 14.672 66.5295 14.6855 66.5341 14.6982C66.5386 14.7109 66.5459 14.7226 66.5554 14.7323C66.565 14.742 66.5765 14.7496 66.5894 14.7546C66.6022 14.7596 66.6159 14.7618 66.6297 14.7611H68.3793C68.393 14.7618 68.4068 14.7596 68.4196 14.7546C68.4324 14.7496 68.444 14.742 68.4535 14.7323C68.463 14.7226 68.4703 14.7109 68.4749 14.6982C68.4794 14.6855 68.4811 14.672 68.4799 14.6586V2.44573C68.4786 2.43232 68.4803 2.4188 68.4848 2.40609C68.4894 2.39338 68.4967 2.38177 68.5062 2.37205C68.5157 2.36233 68.5273 2.35472 68.5401 2.34975C68.5529 2.34477 68.5667 2.34253 68.5804 2.3432H72.5476C72.561 2.34381 72.5743 2.34169 72.5868 2.33697C72.5993 2.33225 72.6106 2.32503 72.6201 2.31579C72.6296 2.30654 72.637 2.29546 72.6418 2.28326C72.6466 2.27107 72.6488 2.25802 72.6482 2.24496V2.24496Z" fill="white"/>
<path d="M76.1516 4.41077C72.9674 4.41077 71.161 6.54662 71.161 9.68634C71.161 12.8261 73.0724 14.9619 76.1516 14.9619C78.4742 14.9619 80.3025 13.8171 80.8361 11.8521C80.8361 11.7709 80.7923 11.7496 80.7311 11.7496H78.9028C78.8416 11.7496 78.8022 11.7709 78.7585 11.8521C78.3211 12.6552 77.6125 13.2575 76.1341 13.2575C75.7519 13.2734 75.3703 13.2125 75.0131 13.0787C74.6559 12.9449 74.3305 12.741 74.0571 12.4796C73.7837 12.2182 73.5681 11.9048 73.4236 11.5589C73.279 11.2129 73.2086 10.8417 73.2167 10.4681C73.2161 10.4544 73.2184 10.4408 73.2235 10.4281C73.2285 10.4154 73.2362 10.4039 73.2461 10.3942C73.256 10.3846 73.2678 10.377 73.2808 10.3721C73.2939 10.3672 73.3078 10.3649 73.3217 10.3656H80.9935C81.0548 10.3656 81.0766 10.3271 81.0985 10.2673C81.1404 10.0764 81.1609 9.88158 81.1598 9.68634C81.1641 6.55516 79.3577 4.41077 76.1516 4.41077ZM78.9247 8.8619H73.3392C73.3127 8.86007 73.2877 8.84925 73.2686 8.8313C73.2494 8.81336 73.2372 8.78943 73.2342 8.76366C73.2843 8.04258 73.6139 7.36725 74.1559 6.8752C74.698 6.38314 75.4116 6.11135 76.1516 6.11518C76.5215 6.093 76.8921 6.14508 77.2405 6.26821C77.589 6.39134 77.9079 6.5829 78.1776 6.83108C78.4472 7.07926 78.662 7.37879 78.8086 7.71117C78.9551 8.04356 79.0304 8.40176 79.0297 8.76366C79.0304 8.7771 79.0281 8.79054 79.023 8.80305C79.0179 8.81556 79.0101 8.82686 79.0001 8.83618C78.9902 8.84549 78.9783 8.85261 78.9653 8.85705C78.9523 8.86149 78.9384 8.86314 78.9247 8.8619V8.8619Z" fill="white"/>
<path d="M92.4007 13.0567H91.8059C91.6264 13.0556 91.4546 12.9855 91.3278 12.8616C91.2009 12.7376 91.1291 12.5699 91.1279 12.3946V8.04173C91.1279 5.59403 89.3784 4.41077 86.5266 4.41077C84.2084 4.41077 82.0083 5.57267 82.0083 7.9392C82.0077 7.95283 82.01 7.96643 82.0151 7.97915C82.0201 7.99186 82.0278 8.00341 82.0377 8.01305C82.0476 8.0227 82.0594 8.03023 82.0724 8.03516C82.0854 8.0401 82.0994 8.04234 82.1133 8.04173H83.8629C83.8766 8.0424 83.8904 8.04016 83.9032 8.03519C83.916 8.03021 83.9276 8.02261 83.9371 8.01288C83.9467 8.00316 83.9539 7.99156 83.9585 7.97885C83.963 7.96613 83.9647 7.95261 83.9635 7.9392C83.9635 6.91826 84.7683 6.11518 86.5309 6.11518C88.976 6.11518 89.1815 7.21729 89.1815 8.04173C89.1804 8.21699 89.1086 8.38475 88.9817 8.50868C88.8548 8.63261 88.683 8.70273 88.5036 8.70385H86.1985C83.1805 8.70385 81.6803 10.0067 81.6803 11.7496C81.6803 13.6548 83.0362 14.9619 85.7874 14.9619C87.6769 14.9619 88.9497 14.2998 89.444 13.7957C89.4572 13.7823 89.4737 13.7724 89.4921 13.7671C89.5104 13.7618 89.5298 13.7613 89.5484 13.7656C89.5669 13.7699 89.584 13.7789 89.598 13.7917C89.6119 13.8045 89.6221 13.8206 89.6277 13.8385C89.9382 14.4792 90.6337 14.7611 91.8146 14.7611H92.4095C92.4234 14.7618 92.4373 14.7595 92.4504 14.7546C92.4634 14.7496 92.4752 14.7421 92.4851 14.7325C92.4949 14.7228 92.5027 14.7113 92.5077 14.6986C92.5128 14.6859 92.5151 14.6723 92.5144 14.6586V13.155C92.5154 13.1407 92.5129 13.1264 92.5073 13.1132C92.5017 13.1 92.4931 13.0882 92.4822 13.0787C92.4712 13.0693 92.4582 13.0623 92.444 13.0585C92.4299 13.0547 92.4151 13.0541 92.4007 13.0567V13.0567ZM89.1772 10.5877C89.1378 11.8137 88.2718 13.2575 85.7874 13.2575C84.1472 13.2575 83.6311 12.4715 83.6311 11.7496C83.6311 11.0277 84.0203 10.2075 86.1985 10.2075H89.0766C89.0899 10.2069 89.1033 10.209 89.1158 10.2137C89.1283 10.2185 89.1396 10.2257 89.1491 10.2349C89.1585 10.2442 89.1659 10.2552 89.1708 10.2674C89.1756 10.2796 89.1778 10.2927 89.1772 10.3057V10.5877Z" fill="white"/>
<path d="M104.272 4.41077C103.287 4.41077 101.953 4.73114 101.17 5.61538C101.07 5.71363 101.03 5.69227 100.925 5.61538C99.9589 4.70978 99.3859 4.41077 97.9469 4.41077C96.9409 4.41077 95.8736 4.89346 95.5062 5.61538C95.4625 5.69227 95.3006 5.73499 95.2569 5.61538L95.0513 4.70978C95.0513 4.64998 95.012 4.61154 94.9507 4.61154H93.4111C93.3974 4.6103 93.3836 4.61195 93.3705 4.61639C93.3575 4.62083 93.3456 4.62794 93.3357 4.63726C93.3257 4.64658 93.3179 4.65787 93.3128 4.67038C93.3077 4.6829 93.3055 4.69633 93.3061 4.70978V14.6586C93.3055 14.6723 93.3078 14.6859 93.3129 14.6986C93.3179 14.7113 93.3256 14.7228 93.3355 14.7325C93.3454 14.7421 93.3572 14.7496 93.3702 14.7546C93.3833 14.7595 93.3972 14.7618 93.4111 14.7611H95.1607C95.1745 14.7618 95.1882 14.7596 95.201 14.7546C95.2138 14.7496 95.2254 14.742 95.2349 14.7323C95.2445 14.7226 95.2518 14.711 95.2563 14.6983C95.2609 14.6856 95.2626 14.672 95.2613 14.6586V9.14383C95.2613 7.58038 95.8168 6.11518 97.5401 6.11518C99.4908 6.11518 99.8408 7.58038 99.8408 9.14383V14.6586C99.8392 14.6696 99.8403 14.6808 99.8441 14.6912C99.848 14.7016 99.8543 14.7109 99.8626 14.7184C99.8626 14.7398 99.8845 14.7611 99.9239 14.7611H101.673C101.685 14.7627 101.696 14.7616 101.707 14.7578C101.717 14.7541 101.727 14.7479 101.735 14.7398C101.747 14.7303 101.758 14.718 101.764 14.7039C101.771 14.6898 101.775 14.6742 101.774 14.6586V9.14383C101.774 7.58038 102.124 6.11518 104.053 6.11518C106.087 6.11518 106.353 7.61883 106.353 9.14383V14.6586C106.353 14.6723 106.355 14.6859 106.36 14.6986C106.365 14.7113 106.373 14.7228 106.383 14.7325C106.393 14.7421 106.405 14.7496 106.418 14.7546C106.431 14.7595 106.445 14.7618 106.458 14.7611H108.208C108.222 14.7618 108.236 14.7596 108.248 14.7546C108.261 14.7496 108.273 14.742 108.282 14.7323C108.292 14.7226 108.299 14.711 108.304 14.6983C108.308 14.6856 108.31 14.672 108.309 14.6586V9.14383C108.317 6.13654 106.944 4.41077 104.272 4.41077Z" fill="white"/>
<path d="M114.161 8.70386C113.133 8.56289 111.655 8.54153 111.655 7.40098C111.655 6.77731 112.333 6.11947 113.872 6.11947C115.539 6.11947 116.44 6.84138 116.44 7.94349C116.439 7.95711 116.441 7.97072 116.446 7.98343C116.451 7.99614 116.459 8.00768 116.469 8.01733C116.479 8.02697 116.491 8.0345 116.504 8.03944C116.517 8.04437 116.531 8.04661 116.545 8.04601H118.294C118.36 8.04601 118.377 8.00329 118.377 7.94349C118.377 5.57695 116.387 4.41504 113.859 4.41504C111.331 4.41504 109.691 5.76063 109.691 7.40525C109.691 9.89139 112.175 10.1904 114.148 10.3955C115.023 10.4937 116.715 10.5749 116.715 11.7197C116.715 13.0226 115.193 13.2447 114.148 13.2447C112.503 13.2447 111.458 12.4203 111.458 11.4164C111.455 11.3877 111.44 11.3614 111.417 11.343C111.394 11.3247 111.365 11.3157 111.335 11.3181H109.608C109.594 11.3175 109.581 11.3197 109.568 11.3244C109.556 11.3291 109.545 11.3363 109.535 11.3456C109.526 11.3548 109.518 11.3659 109.513 11.3781C109.509 11.3903 109.506 11.4033 109.507 11.4164C109.507 13.343 111.025 14.9491 114.148 14.9491C116.715 14.9491 118.666 14.0051 118.666 11.7197C118.679 9.1652 116.217 8.96443 114.161 8.70386Z" fill="white"/>
</svg>
