<svg width="215" height="34" viewBox="0 0 215 34" fill="none" xmlns="http://www.w3.org/2000/svg">
<path d="M16.0791 6.70471H12.3395C12.2892 6.70471 12.2409 6.72425 12.2054 6.759C12.1698 6.79376 12.1498 6.84089 12.1498 6.89004V25.522C12.1498 25.5711 12.1698 25.6183 12.2054 25.653C12.2409 25.6878 12.2892 25.7073 12.3395 25.7073H16.0791C16.1295 25.7073 16.1777 25.6878 16.2133 25.653C16.2489 25.6183 16.2689 25.5711 16.2689 25.522V6.89004C16.2689 6.84089 16.2489 6.79376 16.2133 6.759C16.1777 6.72425 16.1295 6.70471 16.0791 6.70471Z" fill="white"/>
<path d="M27.8434 6.32639C26.9414 6.31312 26.0468 6.48682 25.2185 6.83601C24.3886 7.19603 23.6452 7.72213 23.0364 8.38031C22.9179 8.49613 22.6886 8.56562 22.6174 8.38031L22.23 6.95183C22.2152 6.89437 22.1784 6.84463 22.1272 6.81285C22.1047 6.79383 22.0781 6.77982 22.0494 6.77182C22.0208 6.76382 21.9907 6.76202 21.9612 6.76652H18.6248L18.5616 6.80512C18.543 6.82191 18.5293 6.84325 18.522 6.8669C18.5146 6.89213 18.5146 6.91888 18.522 6.9441V25.5297C18.5147 25.5523 18.5147 25.5766 18.522 25.5992C18.5275 25.6236 18.5415 25.6455 18.5616 25.661L18.6248 25.6996H18.696H22.5067C22.5309 25.6887 22.5525 25.6729 22.57 25.6533C22.5876 25.6357 22.6011 25.6146 22.6095 25.5915C22.6168 25.5689 22.6168 25.5446 22.6095 25.522V15.044C22.6095 12.4495 24.1433 10.0095 27.2583 10.0095C30.6817 10.0095 31.9546 12.6734 31.9546 15.2293V25.5143C31.9508 25.5373 31.9508 25.5608 31.9546 25.5838C31.9631 25.6069 31.9766 25.628 31.9941 25.6455C32.0146 25.6654 32.0387 25.6811 32.0653 25.6919H35.9077H35.9789L36.0421 25.6533C36.0776 25.6392 36.1079 25.615 36.1291 25.5838C36.1329 25.5608 36.1329 25.5373 36.1291 25.5143V15.2293C36.1291 10.4188 33.6623 6.32639 27.8434 6.32639Z" fill="white"/>
<path d="M55.8945 6.70479H52.6293C52.4712 6.70479 52.4 6.7048 52.3605 6.89012L51.9731 8.24138C51.894 8.43441 51.7043 8.43441 51.554 8.24138C50.101 7.03125 48.2685 6.34204 46.3597 6.28784C40.8254 6.28784 37.3387 10.3107 37.3387 16.2099C37.3387 22.1091 40.9914 26.0857 46.336 26.0857C48.3006 26.1114 50.2001 25.3981 51.641 24.0936C51.6637 24.0701 51.6949 24.0562 51.728 24.055C51.7612 24.0432 51.7976 24.0432 51.8308 24.055C51.8616 24.0657 51.8889 24.0844 51.9098 24.109C51.9296 24.1368 51.943 24.1684 51.9493 24.2017V32.9965C51.9427 33.0218 51.9427 33.0484 51.9493 33.0737C51.9469 33.0942 51.9469 33.1149 51.9493 33.1354L52.0126 33.174H52.0917H55.8945H55.9736L56.0368 33.1354C56.0528 33.1167 56.0661 33.0959 56.0764 33.0737C56.0831 33.0484 56.0831 33.0218 56.0764 32.9965V6.89012C56.0802 6.8671 56.0802 6.84364 56.0764 6.82063C56.0802 6.80021 56.0802 6.77926 56.0764 6.75884L56.021 6.72024L55.8945 6.70479ZM46.9368 22.4257C43.4344 22.4257 41.5132 19.8699 41.5132 16.2486C41.5132 12.6272 43.4344 10.0096 46.9368 10.0096C50.2021 10.0096 51.9731 12.604 51.9731 16.2486C51.9414 20.0398 50.1942 22.4257 46.9289 22.4257H46.9368Z" fill="white"/>
<path d="M14.2053 0.983154C13.7357 0.983913 13.2769 1.12079 12.887 1.37646C12.4971 1.63214 12.1938 1.9951 12.0153 2.41934C11.8332 2.84108 11.7863 3.30687 11.8809 3.75516C11.9716 4.20551 12.1972 4.61937 12.5292 4.94426C12.8597 5.26712 13.2805 5.4874 13.7388 5.57742C14.2006 5.66803 14.6795 5.62234 15.1145 5.44617C15.5489 5.27269 15.9186 4.97361 16.1739 4.58907C16.411 4.24059 16.547 3.8359 16.5674 3.41801C16.5879 3.00012 16.4921 2.5846 16.2902 2.2156C16.0884 1.84661 15.7879 1.53791 15.4208 1.32227C15.0537 1.10662 14.6337 0.992097 14.2053 0.99086V0.983154Z" fill="white"/>
<path d="M9.70674 21.7231H4.72585C4.62768 21.7221 4.53388 21.6832 4.46495 21.615C4.42982 21.5836 4.40182 21.5455 4.38276 21.5029C4.36369 21.4603 4.35398 21.4143 4.35426 21.3679V2.17226C4.35583 2.14772 4.35166 2.12316 4.34208 2.10042C4.33249 2.07767 4.31774 2.05736 4.29892 2.04101C4.28184 2.02307 4.26097 2.00894 4.23777 1.99961C4.21457 1.99028 4.18959 1.98596 4.16452 1.98696H0.432806C0.407801 1.98645 0.382958 1.99099 0.359832 2.00029C0.336705 2.00959 0.315783 2.02346 0.29839 2.04101C0.280785 2.05827 0.266845 2.07874 0.257349 2.10126C0.247853 2.12379 0.242992 2.14791 0.243053 2.17226V23.0203C0.24201 23.3744 0.312666 23.7253 0.450962 24.0527C0.589258 24.3801 0.792467 24.6776 1.0489 24.9281C1.30532 25.1785 1.60992 25.377 1.94516 25.512C2.2804 25.6471 2.63967 25.7161 3.00231 25.7151H9.70674C9.75679 25.7137 9.80458 25.6944 9.84115 25.661C9.85912 25.644 9.8733 25.6236 9.88283 25.601C9.89235 25.5785 9.89701 25.5542 9.8965 25.5298V21.8775C9.89807 21.853 9.8939 21.8284 9.88431 21.8056C9.87472 21.7829 9.85996 21.7626 9.84115 21.7462C9.82406 21.7283 9.80321 21.7142 9.78001 21.7048C9.75681 21.6955 9.73181 21.6912 9.70674 21.6922V21.7231Z" fill="white"/>
<path d="M75.2568 7.36108C75.258 7.33677 75.2539 7.31249 75.2447 7.28987C75.2355 7.26725 75.2214 7.24684 75.2034 7.22999C75.1854 7.21315 75.164 7.20029 75.1404 7.19227C75.1169 7.18425 75.0919 7.18126 75.0671 7.1835H71.0586C71.0337 7.18471 71.0089 7.18067 70.9857 7.17167C70.9626 7.16268 70.9416 7.14893 70.9244 7.13136C70.9072 7.11378 70.894 7.09281 70.8858 7.06983C70.8776 7.04685 70.8745 7.02241 70.8768 6.99817V4.89793C70.8461 4.66244 70.869 4.42324 70.9438 4.19739C71.0187 3.97153 71.1436 3.76459 71.3097 3.5913C71.4758 3.418 71.679 3.28265 71.9048 3.19485C72.1307 3.10706 72.3735 3.06898 72.6161 3.08337H75.0671C75.0919 3.08561 75.1169 3.08263 75.1404 3.07461C75.164 3.06658 75.1854 3.05372 75.2034 3.03688C75.2214 3.02004 75.2355 2.99962 75.2447 2.977C75.2539 2.95439 75.258 2.9301 75.2568 2.90579V0.187814C75.2579 0.163187 75.2538 0.138617 75.2447 0.115638C75.2355 0.0926578 75.2216 0.071779 75.2037 0.0543473C75.1859 0.0369156 75.1645 0.0233077 75.141 0.0143826C75.1175 0.00545748 75.0923 0.00141007 75.0671 0.00250629H72.5845C69.1295 -0.0669871 67.3506 1.30744 67.3506 4.28022V6.99817C67.3518 7.0228 67.3476 7.04739 67.3385 7.07037C67.3294 7.09335 67.3154 7.11423 67.2975 7.13166C67.2797 7.14909 67.2583 7.1627 67.2348 7.17163C67.2113 7.18055 67.1861 7.1846 67.1609 7.1835H63.8561C63.8319 7.1824 63.8078 7.18623 63.7852 7.19477C63.7626 7.2033 63.7421 7.21634 63.725 7.23306C63.7079 7.24977 63.6945 7.26981 63.6858 7.29185C63.6771 7.3139 63.6731 7.33747 63.6743 7.36108V9.72386C63.6731 9.74747 63.6771 9.77106 63.6858 9.79311C63.6945 9.81515 63.7079 9.83516 63.725 9.85188C63.7421 9.86859 63.7626 9.88163 63.7852 9.89017C63.8078 9.89871 63.8319 9.90256 63.8561 9.90146H67.1609C67.1861 9.90036 67.2113 9.90441 67.2348 9.91333C67.2583 9.92226 67.2797 9.93587 67.2975 9.9533C67.3154 9.97073 67.3294 9.99161 67.3385 10.0146C67.3476 10.0376 67.3518 10.0621 67.3506 10.0868V25.3444C67.3483 25.3687 67.3514 25.3931 67.3596 25.4161C67.3678 25.4391 67.381 25.46 67.3983 25.4776C67.4155 25.4952 67.4364 25.5089 67.4596 25.5179C67.4827 25.5269 67.5076 25.5309 67.5325 25.5297H70.6949C70.7202 25.5308 70.7453 25.5268 70.7689 25.5179C70.7924 25.5089 70.8138 25.4953 70.8316 25.4779C70.8495 25.4605 70.8634 25.4396 70.8725 25.4166C70.8817 25.3937 70.8858 25.3691 70.8847 25.3444V10.0868C70.8824 10.0625 70.8855 10.0381 70.8937 10.0151C70.9019 9.99215 70.9151 9.97115 70.9323 9.95358C70.9496 9.93601 70.9705 9.92226 70.9936 9.91326C71.0168 9.90427 71.0417 9.90025 71.0665 9.90146H75.075C75.0998 9.9037 75.1248 9.90071 75.1483 9.89269C75.1719 9.88467 75.1934 9.87178 75.2113 9.85494C75.2293 9.8381 75.2434 9.81768 75.2526 9.79507C75.2618 9.77245 75.266 9.74816 75.2647 9.72386L75.2568 7.36108Z" fill="white"/>
<path d="M84.4122 6.82056C78.5854 6.82056 75.2094 10.6813 75.2094 16.3566C75.2094 22.0319 78.5854 25.8926 84.4122 25.8926C90.2391 25.8926 93.615 22.0319 93.615 16.3566C93.615 10.6813 90.2075 6.82056 84.4122 6.82056ZM84.4122 22.8117C80.8861 22.8117 78.7356 20.1247 78.7356 16.3566C78.7356 12.5885 80.8861 9.90142 84.4122 9.90142C87.9384 9.90142 90.0889 12.5885 90.0889 16.3566C90.0889 20.1247 87.9779 22.8117 84.4122 22.8117Z" fill="white"/>
<path d="M106.336 6.82065H104.438C102.58 6.82065 101.213 7.80127 99.9477 9.02898C99.837 9.13708 99.6157 9.2143 99.5366 9.02898L99.165 7.39203C99.165 7.28393 99.0939 7.21443 98.9832 7.21443H96.216C96.1912 7.21219 96.1662 7.2152 96.1426 7.22322C96.1191 7.23124 96.0976 7.2441 96.0796 7.26094C96.0617 7.27779 96.0476 7.2982 96.0384 7.32082C96.0292 7.34344 96.025 7.36772 96.0263 7.39203V25.3754C96.0252 25.4 96.0293 25.4246 96.0384 25.4476C96.0476 25.4705 96.0615 25.4914 96.0794 25.5088C96.0972 25.5263 96.1186 25.5399 96.1421 25.5488C96.1656 25.5577 96.1908 25.5618 96.216 25.5607H99.3785C99.4034 25.5619 99.4282 25.5579 99.4514 25.5489C99.4746 25.5399 99.4955 25.5261 99.5127 25.5086C99.53 25.491 99.5431 25.47 99.5513 25.447C99.5596 25.424 99.5626 25.3996 99.5603 25.3754V15.376C99.5603 12.55 101.347 9.90151 104.462 9.90151H106.36C106.384 9.90262 106.408 9.89876 106.431 9.89023C106.453 9.88169 106.474 9.86865 106.491 9.85194C106.508 9.83522 106.521 9.81521 106.53 9.79317C106.539 9.77112 106.543 9.74753 106.541 9.72391V6.99823C106.543 6.97243 106.539 6.94662 106.529 6.92273C106.519 6.89884 106.503 6.87751 106.483 6.86038C106.463 6.84325 106.44 6.83077 106.414 6.82388C106.389 6.81699 106.362 6.8159 106.336 6.82065Z" fill="white"/>
<path d="M130.94 2.90582V0.187838C130.942 0.163602 130.939 0.139182 130.931 0.116203C130.923 0.0932237 130.91 0.0722263 130.892 0.0546534C130.875 0.0370805 130.854 0.0233287 130.831 0.0143352C130.808 0.00534173 130.783 0.00131969 130.758 0.00252958H112.527C112.502 0.00131969 112.477 0.00534173 112.454 0.0143352C112.43 0.0233287 112.41 0.0370805 112.392 0.0546534C112.375 0.0722263 112.362 0.0932237 112.354 0.116203C112.345 0.139182 112.342 0.163602 112.345 0.187838V2.90582C112.344 2.92943 112.347 2.953 112.356 2.97505C112.365 2.99709 112.378 3.01712 112.395 3.03384C112.413 3.05056 112.433 3.0636 112.456 3.07213C112.478 3.08067 112.502 3.0845 112.527 3.0834H119.69C119.769 3.0834 119.84 3.16061 119.879 3.23011V25.3445C119.877 25.3687 119.88 25.3931 119.888 25.4161C119.896 25.4391 119.91 25.4601 119.927 25.4776C119.944 25.4952 119.965 25.509 119.988 25.518C120.011 25.5269 120.036 25.531 120.061 25.5298H123.224C123.248 25.531 123.273 25.5269 123.296 25.518C123.32 25.509 123.341 25.4952 123.358 25.4776C123.375 25.4601 123.388 25.4391 123.396 25.4161C123.405 25.3931 123.408 25.3687 123.405 25.3445V3.26873C123.403 3.24449 123.406 3.22005 123.414 3.19707C123.423 3.17409 123.436 3.15312 123.453 3.13554C123.47 3.11797 123.491 3.10422 123.514 3.09522C123.537 3.08623 123.562 3.08219 123.587 3.0834H130.758C130.782 3.0845 130.806 3.08067 130.829 3.07213C130.852 3.0636 130.872 3.05056 130.889 3.03384C130.906 3.01712 130.92 2.99709 130.928 2.97505C130.937 2.953 130.941 2.92943 130.94 2.90582Z" fill="white"/>
<path d="M137.273 6.82056C131.517 6.82056 128.252 10.6813 128.252 16.3566C128.252 22.0319 131.707 25.8926 137.273 25.8926C141.471 25.8926 144.776 23.8233 145.74 20.2714C145.74 20.1247 145.661 20.0861 145.551 20.0861H142.246C142.135 20.0861 142.064 20.1247 141.985 20.2714C141.194 21.723 139.913 22.8117 137.241 22.8117C136.55 22.8404 135.861 22.7304 135.215 22.4886C134.569 22.2467 133.981 21.8782 133.487 21.4057C132.993 20.9331 132.603 20.3667 132.342 19.7413C132.08 19.1159 131.953 18.4449 131.968 17.7696C131.967 17.745 131.971 17.7204 131.98 17.6974C131.989 17.6744 132.003 17.6536 132.021 17.6361C132.039 17.6187 132.06 17.6051 132.084 17.5962C132.107 17.5872 132.132 17.5832 132.157 17.5843H146.025C146.136 17.5843 146.175 17.5148 146.215 17.4067C146.29 17.0616 146.327 16.7095 146.325 16.3566C146.333 10.6967 143.068 6.82056 137.273 6.82056ZM142.285 14.8663H132.189C132.141 14.863 132.096 14.8435 132.061 14.811C132.027 14.7786 132.005 14.7353 131.999 14.6888C132.09 13.3854 132.686 12.1646 133.665 11.2752C134.645 10.3858 135.935 9.8945 137.273 9.90142C137.941 9.86133 138.611 9.95547 139.241 10.178C139.871 10.4006 140.447 10.7469 140.935 11.1955C141.422 11.6441 141.81 12.1855 142.075 12.7863C142.34 13.3871 142.476 14.0346 142.475 14.6888C142.476 14.7131 142.472 14.7373 142.463 14.76C142.454 14.7826 142.44 14.803 142.422 14.8198C142.404 14.8367 142.382 14.8495 142.359 14.8576C142.335 14.8656 142.31 14.8686 142.285 14.8663Z" fill="white"/>
<path d="M166.644 22.4488H165.569C165.245 22.4468 164.934 22.3201 164.705 22.0961C164.475 21.872 164.346 21.5688 164.344 21.252V13.3838C164.344 8.95941 161.181 6.82056 156.026 6.82056C151.836 6.82056 147.859 8.92078 147.859 13.1985C147.858 13.2231 147.862 13.2477 147.871 13.2707C147.88 13.2937 147.894 13.3145 147.912 13.332C147.93 13.3494 147.951 13.363 147.975 13.3719C147.998 13.3809 148.024 13.3849 148.049 13.3838H151.211C151.236 13.385 151.261 13.381 151.284 13.372C151.307 13.363 151.328 13.3492 151.346 13.3317C151.363 13.3141 151.376 13.2931 151.384 13.2701C151.392 13.2472 151.395 13.2227 151.393 13.1985C151.393 11.3531 152.848 9.90142 156.034 9.90142C160.454 9.90142 160.825 11.8936 160.825 13.3838C160.823 13.7006 160.693 14.0039 160.464 14.2279C160.235 14.4519 159.924 14.5786 159.6 14.5806H155.433C149.978 14.5806 147.266 16.9357 147.266 20.0861C147.266 23.5298 149.717 25.8926 154.69 25.8926C158.106 25.8926 160.406 24.6958 161.3 23.7847C161.323 23.7603 161.353 23.7424 161.387 23.7328C161.42 23.7233 161.455 23.7224 161.488 23.7302C161.522 23.738 161.553 23.7543 161.578 23.7774C161.603 23.8005 161.622 23.8296 161.632 23.8619C162.193 25.0201 163.45 25.5297 165.585 25.5297H166.66C166.685 25.5308 166.71 25.5268 166.734 25.5178C166.757 25.5089 166.779 25.4953 166.797 25.4779C166.815 25.4604 166.828 25.4396 166.838 25.4166C166.847 25.3936 166.851 25.369 166.85 25.3444V22.6264C166.851 22.6006 166.847 22.5748 166.837 22.5509C166.827 22.527 166.811 22.5057 166.791 22.4886C166.772 22.4715 166.748 22.459 166.722 22.4521C166.697 22.4452 166.67 22.4441 166.644 22.4488ZM160.817 17.9858C160.746 20.2019 159.181 22.8117 154.69 22.8117C151.725 22.8117 150.792 21.391 150.792 20.0861C150.792 18.7811 151.496 17.2986 155.433 17.2986H160.636C160.66 17.2975 160.684 17.3013 160.706 17.3099C160.729 17.3184 160.749 17.3315 160.767 17.3482C160.784 17.3649 160.797 17.3849 160.806 17.407C160.815 17.429 160.818 17.4526 160.817 17.4762V17.9858Z" fill="white"/>
<path d="M188.102 6.82056C186.323 6.82056 183.911 7.39965 182.496 8.998C182.314 9.17559 182.243 9.13698 182.053 8.998C180.306 7.36104 179.271 6.82056 176.669 6.82056C174.851 6.82056 172.922 7.69307 172.258 8.998C172.179 9.13698 171.886 9.2142 171.807 8.998L171.435 7.36105C171.435 7.25295 171.364 7.18347 171.254 7.18347H168.471C168.446 7.18122 168.421 7.18421 168.397 7.19223C168.374 7.20026 168.352 7.21312 168.334 7.22996C168.316 7.2468 168.302 7.26722 168.293 7.28984C168.284 7.31245 168.28 7.33674 168.281 7.36105V25.3444C168.28 25.369 168.284 25.3936 168.293 25.4166C168.302 25.4396 168.316 25.4604 168.334 25.4779C168.352 25.4953 168.373 25.5089 168.397 25.5178C168.42 25.5268 168.445 25.5308 168.471 25.5297H171.633C171.658 25.5309 171.683 25.5269 171.706 25.5179C171.729 25.5089 171.75 25.4952 171.767 25.4776C171.785 25.46 171.798 25.439 171.806 25.4161C171.814 25.3931 171.817 25.3686 171.815 25.3444V15.376C171.815 12.5499 172.819 9.90142 175.934 9.90142C179.46 9.90142 180.093 12.5499 180.093 15.376V25.3444C180.09 25.3642 180.092 25.3844 180.099 25.4032C180.106 25.422 180.117 25.4389 180.132 25.4525C180.132 25.4911 180.172 25.5297 180.243 25.5297H183.405C183.426 25.5325 183.446 25.5304 183.466 25.5237C183.485 25.517 183.502 25.5058 183.516 25.4911C183.539 25.4739 183.557 25.4517 183.57 25.4262C183.582 25.4006 183.588 25.3726 183.587 25.3444V15.376C183.587 12.5499 184.22 9.90142 187.706 9.90142C191.383 9.90142 191.865 12.6194 191.865 15.376V25.3444C191.864 25.369 191.868 25.3936 191.877 25.4166C191.886 25.4396 191.9 25.4604 191.918 25.4779C191.936 25.4953 191.957 25.5089 191.981 25.5178C192.004 25.5268 192.03 25.5308 192.055 25.5297H195.217C195.242 25.5309 195.267 25.5269 195.29 25.5179C195.313 25.5089 195.334 25.4952 195.351 25.4776C195.369 25.46 195.382 25.439 195.39 25.4161C195.398 25.3931 195.401 25.3686 195.399 25.3444V15.376C195.415 9.94003 192.932 6.82056 188.102 6.82056Z" fill="white"/>
<path d="M205.978 14.5806C204.12 14.3258 201.447 14.2872 201.447 12.2256C201.447 11.0982 202.673 9.90914 205.456 9.90914C208.468 9.90914 210.097 11.2141 210.097 13.2062C210.096 13.2308 210.1 13.2554 210.109 13.2784C210.118 13.3014 210.132 13.3222 210.15 13.3397C210.168 13.3571 210.189 13.3707 210.212 13.3796C210.236 13.3886 210.261 13.3926 210.286 13.3915H213.449C213.567 13.3915 213.599 13.3143 213.599 13.2062C213.599 8.9285 210.002 6.82825 205.432 6.82825C200.862 6.82825 197.897 9.26052 197.897 12.2333C197.897 16.7272 202.388 17.2677 205.954 17.6383C207.535 17.8159 210.595 17.9626 210.595 20.032C210.595 22.387 207.843 22.7886 205.954 22.7886C202.981 22.7886 201.091 21.2983 201.091 19.4838C201.086 19.4319 201.059 19.3843 201.018 19.3511C200.976 19.3179 200.923 19.3018 200.87 19.3062H197.747C197.723 19.3051 197.699 19.3089 197.676 19.3175C197.654 19.326 197.633 19.339 197.616 19.3558C197.599 19.3725 197.586 19.3925 197.577 19.4145C197.568 19.4366 197.564 19.4602 197.565 19.4838C197.565 22.9662 200.309 25.8694 205.954 25.8694C210.595 25.8694 214.121 24.163 214.121 20.032C214.145 15.4145 209.693 15.0516 205.978 14.5806Z" fill="white"/>
</svg>
