<svg width="22" height="22" viewBox="0 0 22 22" fill="none" xmlns="http://www.w3.org/2000/svg">
<path d="M11.1499 20.7899C16.7314 20.7899 21.2561 16.2652 21.2561 10.6837C21.2561 5.10224 16.7314 0.577541 11.1499 0.577541C5.56843 0.577541 1.04373 5.10224 1.04373 10.6837C1.04373 16.2652 5.56843 20.7899 11.1499 20.7899Z" fill="#9A0000" stroke="white" stroke-width="0.612497"/>
<path fill-rule="evenodd" clip-rule="evenodd" d="M6.86241 15.4758H6.55621V5.78369H7.28876L9.40747 9.26661L10.8351 5.7837H11.6099L13.017 9.25367L15.1355 5.78369H15.868V15.4758H15.5403L15.5403 15.4758H14.4274L13.4131 12.9542H8.97552L7.96123 15.4758H6.86241L6.86241 15.4758ZM7.5846 13.7139L8.98207 10.3045L7.5846 8.03768V13.7139ZM9.62194 11.3424L9.34179 12.0385H10.0511L9.62194 11.3424ZM11.3169 12.0385H11.0937L10.0393 10.3053L11.2013 7.41784L12.3626 10.3255L11.3169 12.0385ZM12.2669 12.0385H13.0468L12.747 11.2879L12.2669 12.0385ZM13.417 10.2401L14.8255 13.7134V8.03768L13.417 10.2401Z" fill="white"/>
</svg>
