<svg width="262" height="83" viewBox="0 0 262 83" fill="none" xmlns="http://www.w3.org/2000/svg">
<path d="M183.201 6.9541C179.253 9.03994 175.538 11.821 172.751 15.0657C166.946 21.3232 163.694 28.276 166.249 30.13C167.178 30.8253 169.268 31.0571 173.216 27.3489C176.931 24.1043 179.718 20.1644 181.576 15.761C184.13 9.73522 183.201 6.9541 183.201 6.9541ZM214.319 18.0786C208.049 14.8339 203.405 10.894 198.528 8.34466C193.651 5.79531 191.097 5.10003 187.381 5.56355C186.917 5.56355 186.452 5.79531 185.756 6.02707C185.756 6.02707 187.613 12.5163 180.182 23.409C172.519 34.3017 165.552 34.5335 163.694 31.5206C161.837 28.5077 164.391 21.7867 168.803 15.9927C172.519 11.5893 176.931 7.88114 181.808 4.86827C181.808 4.86827 179.253 3.24596 172.751 6.9541C161.837 13.6751 152.548 22.7137 145.581 33.1429C135.595 47.512 133.505 55.3918 132.112 61.4175C130.719 67.675 131.88 74.1643 138.847 74.1643C145.813 74.1643 153.709 63.7351 156.031 60.027C160.211 53.306 162.998 42.8768 157.192 44.2673C154.406 44.9626 152.083 47.9755 150.69 50.9884C149.761 52.8424 149.064 54.9283 148.6 57.0141C146.51 57.9411 144.652 58.8682 143.027 60.2587C141.169 61.6493 139.311 63.2716 137.686 64.8939C138.15 60.2587 139.543 55.8553 141.633 51.9154C144.42 45.6579 150.226 41.2545 156.96 39.8639C160.676 39.6322 165.552 42.645 161.372 54.233C157.192 65.821 145.349 79.9583 132.577 79.9583C120.965 80.19 113.302 65.3574 129.558 39.4004C147.439 10.894 168.339 2.08716 175.306 1.16012C182.272 0.233085 184.362 3.24595 184.362 3.24595C188.542 1.62364 192.955 0.928363 197.367 1.16012C205.727 1.62364 212.229 7.64938 220.821 11.821C218.499 13.6751 216.409 15.9927 214.319 18.0786ZM251.939 8.34466C246.134 12.0528 238.238 15.5292 230.575 14.6022C228.717 16.688 226.627 19.0056 224.537 21.5549C238.006 24.1043 249.617 15.9927 255.887 8.80818C258.209 6.25883 260.067 3.47771 261.692 0.464844C258.441 3.70947 255.422 6.25883 251.939 8.34466ZM234.29 45.8897C234.29 45.6579 234.522 45.4261 234.522 45.4261C234.522 44.7309 234.058 44.2673 233.361 44.2673C231.968 44.2673 230.342 44.4991 225.93 49.3661C222.215 53.5377 218.963 58.1729 216.177 63.0399C213.622 67.675 212.461 71.3832 214.087 72.3102C214.551 72.542 215.248 72.542 215.712 72.542C216.641 72.3102 217.802 71.3832 219.66 69.2974C220.357 68.3703 221.518 66.9798 222.447 65.5892C225.234 61.6493 232.665 48.6708 234.29 45.8897ZM186.917 51.4519C187.613 49.3661 188.542 45.6579 186.685 44.0356C184.595 42.4133 179.021 46.1214 179.021 50.0613C179.253 52.8424 181.111 55.3918 183.898 56.0871C184.362 56.3188 184.595 56.3188 184.827 55.8553C185.523 54.4648 186.22 53.0742 186.917 51.4519ZM182.737 58.8682C181.343 58.1729 180.182 57.4776 179.021 56.5506C177.86 55.6236 176.931 54.4648 176.234 53.0742C176.234 52.8424 176.002 53.0742 176.002 53.0742C174.841 54.4648 173.68 56.0871 172.751 57.7094C169.732 62.1128 165.32 70.9197 169.5 72.3102C172.054 73.2373 176.467 68.8338 178.789 65.5892C180.414 63.5034 181.808 61.1858 183.201 58.8682C182.969 58.8682 182.969 58.8682 182.737 58.8682ZM228.949 69.0656C227.788 70.9197 226.627 74.1643 230.342 72.0785C234.755 69.5291 241.257 59.7952 241.257 59.7952H244.044C241.489 63.7351 238.47 67.675 235.451 71.1514C231.039 76.0184 225.466 80.6536 221.518 80.19C216.873 79.7265 218.499 73.7008 218.499 73.7008C218.499 73.7008 211.997 80.6536 207.585 80.19C201.547 79.4948 203.405 72.0785 203.405 72.0785C203.405 72.0785 196.438 80.4218 191.793 80.19C184.362 79.7265 186.22 70.9197 188.31 64.6622C189.471 61.1858 190.4 58.6364 190.4 58.6364C190.4 58.6364 189.703 58.8682 188.078 59.0999C187.381 59.0999 185.756 59.3317 185.756 59.3317C185.756 59.3317 182.737 64.6622 180.182 67.9068C177.628 71.1514 167.41 82.2759 161.372 79.9583C155.799 77.8724 157.657 69.2974 160.908 62.3446C165.784 52.3789 179.021 38.0098 186.917 39.8639C194.58 41.718 187.149 56.5506 187.149 56.5506C187.613 56.5506 188.078 56.5506 188.775 56.5506C189.703 56.3188 190.865 56.0871 191.793 55.6236C196.67 45.6579 202.243 36.3875 208.746 27.5807C217.57 16.4562 235.451 -2.54803 242.418 2.08716C244.044 3.24595 243.347 7.18586 241.025 11.821C240.096 12.0528 238.935 12.5163 237.774 12.7481C238.935 10.6623 240.096 8.34466 240.56 6.02707C241.489 0.233085 228.252 12.2846 218.731 25.2631C212.926 33.1429 207.817 41.2545 203.405 50.0613C205.03 49.1343 206.888 47.7437 208.281 46.5849C212.461 43.1086 216.641 39.1686 220.357 35.2287C224.072 31.5206 227.556 27.5807 230.807 23.409C231.736 23.409 232.897 23.1773 233.826 23.1773C230.342 27.8124 226.627 32.4476 222.447 36.6193C218.731 40.5592 214.551 44.4991 210.836 47.7437C207.585 50.5248 204.333 53.0742 200.85 55.16C200.85 55.16 192.49 71.8467 196.902 73.0055C199.689 73.7008 204.798 65.5892 204.798 65.5892C204.798 65.5892 211.765 55.16 215.945 50.2931C221.518 43.8038 226.395 40.0957 231.271 40.0957C233.129 40.3274 234.755 41.4862 235.684 43.1086L237.077 41.0227H245.437C245.669 41.0227 230.342 66.9798 228.949 69.0656ZM251.939 8.34466C246.134 12.0528 238.238 15.5292 230.575 14.6022C228.717 16.688 226.627 19.0056 224.537 21.5549C238.006 24.1043 249.617 15.9927 255.887 8.80818C258.209 6.25883 260.067 3.47771 261.692 0.464844C258.441 3.70947 255.422 6.25883 251.939 8.34466ZM237.774 75.5549H238.935C239.167 75.5549 239.631 75.5549 239.864 75.5549C240.328 75.7866 240.56 76.0184 240.328 76.4819C240.328 76.7136 240.096 76.9454 239.864 77.1772C239.631 77.1772 239.631 77.4089 239.399 77.4089C239.631 77.4089 239.864 77.6407 240.096 77.8724C240.328 78.1042 240.328 78.336 240.328 78.336V78.7995V79.0312H239.864V78.5677C239.864 78.1042 239.864 77.8724 239.631 77.6407C239.399 77.6407 239.167 77.4089 238.935 77.4089H238.47V78.7995H237.774V75.5549ZM239.864 76.4819C239.864 76.2501 239.864 76.0184 239.631 76.0184C239.399 76.0184 239.167 75.7866 238.935 75.7866H238.47V77.1772H238.935C239.167 77.1772 239.399 77.1772 239.631 77.1772C239.864 77.1772 239.864 76.9454 239.864 76.4819ZM242.186 77.4089C242.186 78.7995 241.257 80.19 239.864 80.6536C238.47 81.1171 236.845 80.4218 236.148 79.0312C235.451 77.6407 235.684 76.0184 236.612 75.0913C238.006 73.9325 239.864 73.9325 241.257 75.0913C241.954 75.5549 242.186 76.4819 242.186 77.4089ZM238.935 74.3961C238.238 74.3961 237.541 74.6278 236.845 75.3231C236.38 75.7866 235.916 76.4819 235.916 77.4089C235.916 78.1042 236.148 78.7995 236.845 79.4948C237.309 79.9583 238.006 80.4218 238.935 80.19C239.631 80.19 240.56 79.9583 241.025 79.4948C241.489 79.0312 241.954 78.1042 241.954 77.4089C241.954 76.7137 241.721 76.0184 241.025 75.3231C240.56 74.8596 239.864 74.6278 238.935 74.3961ZM136.524 21.3232H128.629L124.217 28.276H132.112L136.524 21.3232ZM99.3687 45.8897C102.62 41.2545 111.909 25.4948 111.909 25.4948C111.909 24.7996 111.212 24.3361 110.748 24.3361C109.587 24.3361 107.264 24.7996 103.084 29.8983C99.3687 34.3017 96.1176 38.7051 93.3309 43.8038C90.7765 48.439 89.6154 51.9154 91.0087 52.8424C91.4732 53.0742 92.1698 53.0742 92.6343 53.0742C94.2598 52.3789 95.8854 51.2201 96.8143 49.8296C97.511 48.6708 98.4398 47.2802 99.3687 45.8897ZM57.3364 24.3361C55.2464 22.7137 49.673 26.4219 49.673 30.3618C49.673 34.3017 54.5497 35.6923 55.2464 35.6923C55.4786 35.6923 55.9431 35.6923 55.9431 35.4605C56.1753 35.2287 56.6397 33.8382 57.5686 31.9841C58.4975 29.8983 59.4264 25.9584 57.3364 24.3361ZM54.3175 38.2416C52.6919 37.7781 51.2986 37.0828 49.9053 36.3875C48.7442 35.4605 47.583 34.3017 46.8864 33.1429C46.8864 32.9111 46.6541 33.1429 46.6541 33.1429C46.6541 33.1429 46.1897 33.8382 43.1708 38.2416C40.1519 42.4133 35.9719 51.4519 39.9197 52.8424C42.4741 53.7695 46.8864 49.1343 49.2086 46.1214C51.0664 43.8038 52.6919 41.2545 54.0853 38.7051C54.3175 38.2416 54.3175 38.2416 54.3175 38.2416ZM117.947 40.791H120.733C120.733 40.791 106.335 61.4175 98.2076 60.4905C93.7954 60.027 94.9565 54.4648 94.9565 54.4648C94.9565 54.4648 88.6865 61.8811 82.8809 60.4905C77.772 59.0999 81.2554 50.2931 81.2554 50.2931C80.5587 50.5248 69.1798 63.5034 61.052 60.2587C52.9242 57.0141 56.8719 46.1214 58.7297 42.8768C60.1231 40.0957 61.5164 37.5463 61.5164 37.5463C61.5164 37.5463 60.1231 38.0098 59.4264 38.0098L57.3364 38.4734C57.3364 38.4734 53.3886 44.9626 50.8342 48.2073C48.2797 51.4519 38.0619 62.5763 32.0241 60.2587C25.9863 57.9411 27.3797 49.5978 30.863 42.8768C36.4363 31.7523 49.673 18.3103 57.5686 20.3961C65.4642 22.482 58.962 35.4605 58.962 35.4605C58.962 35.4605 60.5875 35.6923 64.3031 33.1429C69.8764 29.4348 77.0753 19.2373 84.9709 20.3961C88.6865 20.8597 92.1698 24.7996 87.2931 31.9841C85.6676 34.3017 83.3454 36.3875 81.2554 34.3017C80.0942 33.1429 81.0231 30.8253 82.4165 29.203C83.3454 27.8124 84.9709 27.1172 86.5965 27.3489C86.5965 27.3489 87.9898 24.3361 84.5065 24.3361C81.7198 24.3361 74.9853 30.5936 71.2698 36.8511C67.7864 42.645 62.4453 52.3789 67.7864 54.6965C72.6631 56.5506 81.952 45.6579 86.3643 39.8639C90.7765 34.0699 100.53 20.8597 108.658 20.3961C110.515 20.3961 112.141 21.3232 113.07 22.7137L113.999 21.0914H122.359C122.359 21.0914 106.8 47.0485 105.639 48.9025C104.71 50.5248 103.317 54.0012 107.032 51.9154C110.748 49.8296 118.179 40.791 117.947 40.791ZM113.767 82.2759C107.729 78.1042 100.298 76.0184 93.0987 76.2501C89.1509 76.2501 85.2031 78.336 82.8809 81.8123C79.862 76.2501 73.592 73.0055 63.8386 73.0055C48.2797 73.2373 32.953 80.4218 20.6452 80.4218C9.03405 80.4218 0.441807 73.0055 0.67403 60.027C1.13848 37.0828 20.6452 16.4562 35.043 7.18586C43.403 1.8554 50.3697 0.233084 54.7819 0.696603C56.872 0.928362 58.7297 2.31892 59.8908 4.40475C60.8197 6.25883 60.8197 8.57642 59.6586 10.6623C55.9431 19.0056 50.8342 18.3103 51.0664 14.3704C51.2986 12.2846 52.4597 10.4305 54.0853 9.2717C55.0142 8.80818 55.9431 8.57642 57.1042 8.57642C57.8008 7.88114 58.4975 3.47771 52.4597 4.86827C46.4219 6.25883 39.223 12.2846 32.4886 19.7009C25.7541 27.1172 15.0718 41.4862 12.2852 56.5506C11.1241 63.5034 11.8207 76.2501 28.3085 76.0184C42.2419 76.0184 62.9097 66.748 81.952 66.9798C88.4543 66.9798 94.9565 68.6021 100.762 72.0785C105.639 74.6278 110.051 78.1042 113.767 82.2759Z" fill="white"/>
</svg>
