<svg width="450" height="518" viewBox="0 0 450 518" fill="none" xmlns="http://www.w3.org/2000/svg">
<mask id="mask0_3_13018" style="mask-type:alpha" maskUnits="userSpaceOnUse" x="0" y="0" width="450" height="518">
<rect width="450" height="518" rx="24" fill="white"/>
</mask>
<g mask="url(#mask0_3_13018)">
<g style="mix-blend-mode:multiply">
<rect width="450" height="518" rx="15.871" fill="url(#paint0_linear_3_13018)"/>
</g>
<path d="M323.266 385.427L201.968 309.361C194.133 304.499 181.613 304.534 173.959 309.53L98.7796 358.617C91.1258 363.614 91.254 371.636 99.0667 376.535L110.741 383.829L93.4008 395.145C90.0101 397.356 91.8618 401.112 96.6269 401.674L148.543 407.868C148.747 407.878 148.951 407.876 149.154 407.862L220.331 452.601C228.166 457.463 240.675 457.429 248.329 452.433L323.509 403.345C331.207 398.349 331.079 390.326 323.266 385.427Z" fill="url(#paint1_linear_3_13018)"/>
<g filter="url(#filter0_b_3_13018)">
<path d="M323.123 370.53L201.817 294.476C193.982 289.615 181.461 289.65 173.808 294.647L98.6337 343.742C90.9804 348.739 91.1095 356.761 98.9228 361.66L110.598 368.952L93.2589 380.27C89.8685 382.481 91.7206 386.237 96.4858 386.799L148.402 392.987C148.606 392.997 148.81 392.996 149.014 392.982L220.196 437.714C228.031 442.575 240.54 442.54 248.194 437.543L323.368 388.448C331.066 383.451 330.936 375.428 323.123 370.53Z" fill="url(#paint2_linear_3_13018)"/>
<path d="M98.8479 344.069L98.8478 344.069C95.1 346.516 93.3196 349.659 93.3692 352.732C93.4187 355.806 95.3012 358.928 99.1294 361.328L98.8479 344.069ZM98.8479 344.069L174.022 294.975C177.772 292.526 182.737 291.281 187.747 291.256C192.756 291.23 197.769 292.424 201.611 294.808L322.916 370.861C326.745 373.262 328.627 376.383 328.671 379.457C328.715 382.529 326.925 385.672 323.155 388.12L323.154 388.121L247.979 437.215C244.229 439.664 239.267 440.909 234.26 440.934C229.254 440.96 224.245 439.766 220.403 437.383C220.402 437.382 220.402 437.382 220.402 437.382L149.221 392.651C149.152 392.607 149.07 392.586 148.987 392.592C148.803 392.604 148.618 392.606 148.434 392.598L96.5314 386.411L96.5309 386.411C94.2275 386.139 92.7205 385.106 92.1644 383.98C91.8896 383.424 91.8399 382.837 92.0328 382.271C92.2271 381.7 92.6802 381.115 93.4729 380.598L93.473 380.598L110.812 369.28C110.923 369.207 110.99 369.082 110.988 368.949C110.987 368.815 110.917 368.692 110.804 368.621L99.13 361.329L98.8479 344.069Z" stroke="url(#paint3_linear_3_13018)" stroke-width="0.781791" stroke-linejoin="round"/>
</g>
<g filter="url(#filter1_b_3_13018)">
<path d="M369.014 274.327L470.096 337.715C476.61 341.8 476.713 348.479 470.341 352.65L407.696 393.543C401.312 397.714 390.86 397.78 384.346 393.745L374.62 387.666L360.184 396.985C357.356 398.834 352.41 397.915 351.616 395.383L342.678 367.803C342.647 367.7 342.628 367.592 342.619 367.484L283.297 330.27C276.782 326.185 276.679 319.506 283.052 315.334L345.708 274.442C352.059 270.307 362.511 270.242 369.014 274.327Z" fill="url(#paint4_linear_3_13018)"/>
</g>
<g style="mix-blend-mode:multiply" filter="url(#filter2_f_3_13018)">
<path d="M368.955 330.649L470.037 394.037C476.552 398.122 476.655 404.801 470.282 408.973L407.637 449.866C401.253 454.037 390.801 454.103 384.288 450.067L374.561 443.989L360.125 453.308C357.297 455.156 352.351 454.238 351.557 451.706L342.619 424.126C342.588 424.022 342.569 423.915 342.56 423.806L283.238 386.593C276.723 382.508 276.62 375.829 282.993 371.657L345.649 330.764C352 326.63 362.452 326.564 368.955 330.649Z" fill="url(#paint5_linear_3_13018)"/>
</g>
<g filter="url(#filter3_b_3_13018)">
<path d="M368.847 258.306L469.929 321.694C476.444 325.779 476.547 332.458 470.174 336.629L407.529 377.522C401.145 381.694 390.693 381.759 384.18 377.724L374.453 371.645L360.017 380.964C357.189 382.813 352.243 381.894 351.449 379.362L342.511 351.783C342.48 351.679 342.461 351.571 342.452 351.463L283.13 314.249C276.615 310.164 276.512 303.485 282.885 299.314L345.541 258.421C351.892 254.287 362.344 254.221 368.847 258.306Z" fill="url(#paint6_linear_3_13018)"/>
<path d="M368.64 258.637L368.639 258.637C365.464 256.642 361.303 255.65 357.14 255.672C352.977 255.694 348.854 256.731 345.755 258.748L368.64 258.637ZM368.64 258.637L469.722 322.025C472.901 324.019 474.453 326.602 474.493 329.135C474.534 331.667 473.067 334.268 469.959 336.302L407.315 377.195L407.315 377.195C404.199 379.231 400.068 380.277 395.899 380.31C391.731 380.343 387.566 379.362 384.385 377.392L374.66 371.314L374.449 371.182L374.241 371.317L359.804 380.636L359.803 380.637C358.493 381.493 356.658 381.723 355.041 381.422C353.403 381.116 352.153 380.303 351.822 379.246L351.821 379.242L342.884 351.669C342.862 351.592 342.848 351.513 342.841 351.432L342.825 351.236L342.659 351.132L283.337 313.918L283.337 313.918C280.158 311.925 278.606 309.342 278.566 306.808C278.525 304.276 279.992 301.675 283.1 299.641L345.755 258.749L368.64 258.637Z" stroke="url(#paint7_linear_3_13018)" stroke-width="0.781791"/>
</g>
<path d="M235.26 300.334L212.405 285.999C207.077 282.655 202.691 273.597 202.61 265.771L202.353 240.902C202.272 233.076 206.527 229.441 211.854 232.785L234.709 247.12C240.037 250.464 244.423 259.522 244.504 267.347L244.761 292.204C244.842 300.042 240.587 303.677 235.26 300.334Z" fill="url(#paint8_linear_3_13018)"/>
<path d="M186.999 337.186C186.978 332.81 181.421 329.271 174.586 329.283C167.751 329.294 162.228 332.851 162.248 337.228C162.269 341.604 167.827 345.142 174.661 345.131C181.496 345.12 187.02 341.562 186.999 337.186Z" fill="#EDF0FF"/>
<path d="M222.988 359.758C222.967 355.382 217.41 351.844 210.575 351.855C203.74 351.867 198.216 355.424 198.237 359.8C198.258 364.176 203.815 367.715 210.65 367.703C217.485 367.692 223.009 364.135 222.988 359.758Z" fill="#EDF0FF"/>
<path d="M258.984 382.319C258.963 377.942 253.406 374.404 246.571 374.415C239.736 374.427 234.212 377.984 234.233 382.36C234.254 386.736 239.811 390.275 246.646 390.263C253.481 390.252 259.005 386.695 258.984 382.319Z" fill="#EDF0FF"/>
<g filter="url(#filter4_d_3_13018)">
<path d="M394.814 318.613C395.058 318.498 395.262 318.301 395.399 318.05C395.536 317.799 395.599 317.506 395.578 317.213C395.258 315.355 394.61 310.813 395.578 308.771C396.956 305.849 398.702 303.162 400.765 300.789C402.142 299.544 408.957 297.254 403.175 292.991C397.392 288.727 383.694 295.218 380.381 301.644C379.615 301.811 367.319 293.463 363.86 291.287C360.401 289.11 354.332 289.336 350.687 291.709C347.043 294.083 349.253 297.058 349.253 297.058C347.532 297.476 345.876 298.171 344.338 299.122C342.129 300.596 343.65 303.503 343.65 303.503C342.242 303.984 340.891 304.645 339.623 305.473C337.491 306.872 339.189 309.692 339.189 309.692C337.66 310.163 336.177 310.8 334.761 311.592C333.248 312.579 333.297 315.166 337.259 317.659L356.086 329.462C357.094 330.095 364.755 333.22 368.027 334.547C368.461 334.714 368.922 334.782 369.38 334.746C369.838 334.71 370.285 334.572 370.693 334.339L394.814 318.613Z" fill="#EDF0FF"/>
<path d="M398.107 321.213L372.417 337.987C370.782 339.061 370.811 340.774 372.457 341.82L379.587 346.294C380.52 346.802 381.547 347.062 382.586 347.053C383.624 347.044 384.646 346.766 385.568 346.242L411.258 329.468C412.893 328.394 412.864 326.681 411.218 325.635L404.088 321.161C403.155 320.653 402.128 320.394 401.089 320.403C400.051 320.412 399.029 320.689 398.107 321.213ZM377.379 338.29C377.891 337.988 378.462 337.828 379.042 337.823C379.623 337.818 380.197 337.968 380.715 338.261C380.916 338.332 381.092 338.472 381.217 338.66C381.343 338.848 381.412 339.075 381.414 339.308C381.417 339.542 381.352 339.77 381.231 339.96C381.109 340.151 380.936 340.293 380.737 340.368C380.225 340.67 379.654 340.83 379.074 340.835C378.493 340.84 377.92 340.689 377.401 340.397C377.2 340.326 377.025 340.186 376.899 339.998C376.773 339.81 376.705 339.583 376.702 339.349C376.7 339.116 376.764 338.887 376.885 338.697C377.007 338.507 377.18 338.364 377.379 338.29Z" fill="#EDF0FF"/>
</g>
<g filter="url(#filter5_d_3_13018)">
<path d="M220.233 269.178C219.628 268.049 219.615 266.814 220.204 266.45C220.793 266.086 221.761 266.677 222.357 267.806C223.531 269.993 225.466 270.701 226.23 270.207L231.213 267.002C231.687 266.697 231.87 266.14 231.773 265.304C231.596 264.218 231.231 263.178 230.7 262.243C229.849 260.662 228.218 258.54 227.195 259.202L224.637 260.846C224.048 261.226 223.08 260.618 222.484 259.489C221.889 258.36 221.867 257.125 222.456 256.761L225.014 255.117C227.302 253.645 230.755 256.981 232.842 260.87C233.904 262.852 234.601 264.918 234.802 266.65C235.05 268.777 234.556 270.353 233.412 271.09L228.429 274.295C227.519 274.882 226.1 274.755 224.641 273.955C222.945 273.025 221.4 271.329 220.233 269.178Z" fill="#EDF0FF"/>
<path d="M213.036 273.408C212.046 271.642 211.38 269.678 211.075 267.629C210.826 265.505 211.32 263.926 212.466 263.188L217.446 259.982C218.356 259.395 219.775 259.522 221.234 260.321C222.924 261.248 224.49 262.944 225.643 265.097C226.248 266.223 226.261 267.462 225.672 267.826C225.083 268.19 224.115 267.596 223.52 266.47C222.345 264.28 220.41 263.576 219.645 264.066L214.666 267.272C214.19 267.578 214.006 268.135 214.104 268.97C214.283 270.055 214.647 271.093 215.178 272.028C216.028 273.612 217.661 275.731 218.686 275.072L221.241 273.424C221.829 273.047 222.798 273.655 223.393 274.78C223.989 275.906 224.011 277.145 223.422 277.509L220.867 279.156C218.577 280.636 215.123 277.297 213.036 273.408Z" fill="#EDF0FF"/>
</g>
</g>
<defs>
<filter id="filter0_b_3_13018" x="81.1018" y="280.44" width="258.385" height="171.309" filterUnits="userSpaceOnUse" color-interpolation-filters="sRGB">
<feFlood flood-opacity="0" result="BackgroundImageFix"/>
<feGaussianBlur in="BackgroundImageFix" stdDeviation="5.21194"/>
<feComposite in2="SourceAlpha" operator="in" result="effect1_backgroundBlur_3_13018"/>
<feBlend mode="normal" in="SourceGraphic" in2="effect1_backgroundBlur_3_13018" result="shape"/>
</filter>
<filter id="filter1_b_3_13018" x="271.986" y="264.947" width="209.421" height="139.368" filterUnits="userSpaceOnUse" color-interpolation-filters="sRGB">
<feFlood flood-opacity="0" result="BackgroundImageFix"/>
<feGaussianBlur in="BackgroundImageFix" stdDeviation="3.17742"/>
<feComposite in2="SourceAlpha" operator="in" result="effect1_backgroundBlur_3_13018"/>
<feBlend mode="normal" in="SourceGraphic" in2="effect1_backgroundBlur_3_13018" result="shape"/>
</filter>
<filter id="filter2_f_3_13018" x="262.646" y="311.988" width="227.983" height="157.93" filterUnits="userSpaceOnUse" color-interpolation-filters="sRGB">
<feFlood flood-opacity="0" result="BackgroundImageFix"/>
<feBlend mode="normal" in="SourceGraphic" in2="BackgroundImageFix" result="shape"/>
<feGaussianBlur stdDeviation="7.81791" result="effect1_foregroundBlur_3_13018"/>
</filter>
<filter id="filter3_b_3_13018" x="267.75" y="244.857" width="217.559" height="147.506" filterUnits="userSpaceOnUse" color-interpolation-filters="sRGB">
<feFlood flood-opacity="0" result="BackgroundImageFix"/>
<feGaussianBlur in="BackgroundImageFix" stdDeviation="5.21194"/>
<feComposite in2="SourceAlpha" operator="in" result="effect1_backgroundBlur_3_13018"/>
<feBlend mode="normal" in="SourceGraphic" in2="effect1_backgroundBlur_3_13018" result="shape"/>
</filter>
<filter id="filter4_d_3_13018" x="323.418" y="285.614" width="99.4745" height="78.1177" filterUnits="userSpaceOnUse" color-interpolation-filters="sRGB">
<feFlood flood-opacity="0" result="BackgroundImageFix"/>
<feColorMatrix in="SourceAlpha" type="matrix" values="0 0 0 0 0 0 0 0 0 0 0 0 0 0 0 0 0 0 127 0" result="hardAlpha"/>
<feOffset dy="6.25433"/>
<feGaussianBlur stdDeviation="5.21194"/>
<feComposite in2="hardAlpha" operator="out"/>
<feColorMatrix type="matrix" values="0 0 0 0 0.525 0 0 0 0 0.656538 0 0 0 0 1 0 0 0 1 0"/>
<feBlend mode="normal" in2="BackgroundImageFix" result="effect1_dropShadow_3_13018"/>
<feBlend mode="normal" in="SourceGraphic" in2="effect1_dropShadow_3_13018" result="shape"/>
</filter>
<filter id="filter5_d_3_13018" x="195.376" y="242.253" width="55.1245" height="56.0243" filterUnits="userSpaceOnUse" color-interpolation-filters="sRGB">
<feFlood flood-opacity="0" result="BackgroundImageFix"/>
<feColorMatrix in="SourceAlpha" type="matrix" values="0 0 0 0 0 0 0 0 0 0 0 0 0 0 0 0 0 0 127 0" result="hardAlpha"/>
<feOffset dy="3.12716"/>
<feGaussianBlur stdDeviation="7.81791"/>
<feComposite in2="hardAlpha" operator="out"/>
<feColorMatrix type="matrix" values="0 0 0 0 0 0 0 0 0 0.360784 0 0 0 0 0.85098 0 0 0 0.8 0"/>
<feBlend mode="normal" in2="BackgroundImageFix" result="effect1_dropShadow_3_13018"/>
<feBlend mode="normal" in="SourceGraphic" in2="effect1_dropShadow_3_13018" result="shape"/>
</filter>
<linearGradient id="paint0_linear_3_13018" x1="225.6" y1="29.2902" x2="225.6" y2="593.791" gradientUnits="userSpaceOnUse">
<stop/>
<stop offset="0.71875" stop-color="#000F31"/>
</linearGradient>
<linearGradient id="paint1_linear_3_13018" x1="84.8621" y1="534.532" x2="203.931" y2="315.525" gradientUnits="userSpaceOnUse">
<stop stop-color="#000F31"/>
<stop offset="1" stop-color="#004AB1"/>
</linearGradient>
<linearGradient id="paint2_linear_3_13018" x1="186.636" y1="281.014" x2="236.747" y2="456.396" gradientUnits="userSpaceOnUse">
<stop stop-color="white"/>
<stop offset="1" stop-color="white" stop-opacity="0"/>
</linearGradient>
<linearGradient id="paint3_linear_3_13018" x1="271.468" y1="522.454" x2="128.413" y2="218.441" gradientUnits="userSpaceOnUse">
<stop stop-color="white" stop-opacity="0.22"/>
<stop offset="1" stop-color="white" stop-opacity="0"/>
</linearGradient>
<linearGradient id="paint4_linear_3_13018" x1="303.203" y1="308.134" x2="510.332" y2="355.265" gradientUnits="userSpaceOnUse">
<stop offset="0.00520833" stop-color="#006DFF" stop-opacity="0.67"/>
<stop offset="1" stop-color="#86A7FF"/>
</linearGradient>
<linearGradient id="paint5_linear_3_13018" x1="345.43" y1="313.553" x2="393.674" y2="498.472" gradientUnits="userSpaceOnUse">
<stop stop-color="#094EFF"/>
<stop offset="1" stop-color="white" stop-opacity="0.03"/>
</linearGradient>
<linearGradient id="paint6_linear_3_13018" x1="345.322" y1="241.21" x2="393.566" y2="426.128" gradientUnits="userSpaceOnUse">
<stop stop-color="white"/>
<stop offset="1" stop-color="white" stop-opacity="0.03"/>
</linearGradient>
<linearGradient id="paint7_linear_3_13018" x1="325.69" y1="210.968" x2="411.799" y2="426.566" gradientUnits="userSpaceOnUse">
<stop stop-color="white" stop-opacity="0.62"/>
<stop offset="1" stop-color="white" stop-opacity="0"/>
</linearGradient>
<linearGradient id="paint8_linear_3_13018" x1="203.616" y1="220.904" x2="297.618" y2="273.773" gradientUnits="userSpaceOnUse">
<stop stop-color="#005CD9"/>
<stop offset="1" stop-color="#004AB1"/>
</linearGradient>
</defs>
</svg>
