<svg width="18" height="20" viewBox="0 0 18 20" fill="none" xmlns="http://www.w3.org/2000/svg">
<path fill-rule="evenodd" clip-rule="evenodd" d="M2.75 6C2.75 3.65279 4.65279 1.75 7 1.75H11C13.3472 1.75 15.25 3.65279 15.25 6V9.01234C13.9867 9.13777 13 10.2037 13 11.5V14.5C13 15.7734 13.9521 16.8245 15.1833 16.9801C14.9746 17.7132 14.3 18.25 13.5 18.25H10.6615C10.4852 18.0944 10.2536 18 10 18H9C8.44772 18 8 18.4477 8 19C8 19.5523 8.44771 20 9 20H10C10.2536 20 10.4852 19.9056 10.6615 19.75H13.5C15.2386 19.75 16.6583 18.3849 16.7457 16.668C17.4953 16.2364 18 15.4271 18 14.5V11.5C18 10.5746 17.4973 9.76672 16.75 9.33446V6C16.75 2.82436 14.1756 0.25 11 0.25H7C3.82436 0.25 1.25 2.82436 1.25 6V9.33446C0.502748 9.76672 0 10.5746 0 11.5V14.5C0 15.8807 1.11929 17 2.5 17C3.88071 17 5 15.8807 5 14.5V11.5C5 10.2037 4.01333 9.13777 2.75 9.01234V6Z" fill="#7596FF"/>
</svg>
