<svg width="22" height="22" viewBox="0 0 22 22" fill="none" xmlns="http://www.w3.org/2000/svg">
<mask id="path-1-inside-1_77_1256" fill="white">
<path d="M14.6667 19.25V17.4167C14.6667 16.4442 14.2803 15.5116 13.5927 14.8239C12.9051 14.1363 11.9725 13.75 11 13.75H4.58332C3.61086 13.75 2.67823 14.1363 1.9906 14.8239C1.30296 15.5116 0.916656 16.4442 0.916656 17.4167V19.25"/>
</mask>
<path d="M14.6667 19.25V17.4167C14.6667 16.4442 14.2803 15.5116 13.5927 14.8239C12.9051 14.1363 11.9725 13.75 11 13.75H4.58332C3.61086 13.75 2.67823 14.1363 1.9906 14.8239C1.30296 15.5116 0.916656 16.4442 0.916656 17.4167V19.25" fill="#C6FFC5"/>
<path d="M12.8333 19.25V21.0833H16.5V19.25H12.8333ZM14.6667 17.4167H16.5H14.6667ZM11 13.75V11.9167V13.75ZM4.58332 13.75V11.9167V13.75ZM0.916656 17.4167H-0.916677H0.916656ZM-0.916677 19.25V21.0833H2.74999V19.25H-0.916677ZM16.5 19.25V17.4167H12.8333V19.25H16.5ZM16.5 17.4167C16.5 15.958 15.9205 14.559 14.8891 13.5276L12.2964 16.1203C12.6402 16.4641 12.8333 16.9304 12.8333 17.4167H16.5ZM14.8891 13.5276C13.8576 12.4961 12.4587 11.9167 11 11.9167V15.5833C11.4862 15.5833 11.9525 15.7765 12.2964 16.1203L14.8891 13.5276ZM11 11.9167H4.58332V15.5833H11V11.9167ZM4.58332 11.9167C3.12463 11.9167 1.72569 12.4961 0.694236 13.5276L3.28696 16.1203C3.63078 15.7765 4.09709 15.5833 4.58332 15.5833V11.9167ZM0.694236 13.5276C-0.337214 14.559 -0.916677 15.958 -0.916677 17.4167H2.74999C2.74999 16.9304 2.94314 16.4641 3.28696 16.1203L0.694236 13.5276ZM-0.916677 17.4167V19.25H2.74999V17.4167H-0.916677Z" fill="#C6FFC5" mask="url(#path-1-inside-1_77_1256)"/>
<path d="M7.79167 10.0833C9.81671 10.0833 11.4583 8.44171 11.4583 6.41667C11.4583 4.39162 9.81671 2.75 7.79167 2.75C5.76662 2.75 4.125 4.39162 4.125 6.41667C4.125 8.44171 5.76662 10.0833 7.79167 10.0833Z" fill="#C6FFC5" stroke="#C6FFC5" stroke-width="1.83333" stroke-linecap="round" stroke-linejoin="round"/>
<path d="M18.3333 7.33334V12.8333" stroke="#C6FFC5" stroke-width="1.83333" stroke-linecap="round" stroke-linejoin="round"/>
<path d="M21.0833 10.0833H15.5833" stroke="#C6FFC5" stroke-width="1.83333" stroke-linecap="round" stroke-linejoin="round"/>
</svg>
