<svg width="437" height="436" viewBox="0 0 437 436" fill="none" xmlns="http://www.w3.org/2000/svg">
<g filter="url(#filter0_d_1659_27802)">
<rect x="17" y="17" width="400" height="400" rx="24" fill="#EDF0FF"/>
<path d="M50.932 62C50.68 62 50.484 61.9347 50.344 61.804C50.2133 61.664 50.148 61.468 50.148 61.216V52.914C50.148 52.662 50.2133 52.4707 50.344 52.34C50.484 52.2 50.68 52.13 50.932 52.13H56.042C56.238 52.13 56.3873 52.1813 56.49 52.284C56.5927 52.3773 56.644 52.5173 56.644 52.704C56.644 52.9 56.5927 53.0493 56.49 53.152C56.3873 53.2547 56.238 53.306 56.042 53.306H51.548V56.4H55.734C55.9393 56.4 56.0887 56.4513 56.182 56.554C56.2847 56.6567 56.336 56.8013 56.336 56.988C56.336 57.184 56.2847 57.3333 56.182 57.436C56.0887 57.5293 55.9393 57.576 55.734 57.576H51.548V60.824H56.042C56.238 60.824 56.3873 60.8753 56.49 60.978C56.5927 61.0807 56.644 61.2253 56.644 61.412C56.644 61.608 56.5927 61.7573 56.49 61.86C56.3873 61.9533 56.238 62 56.042 62H50.932ZM60.7875 62.126C60.1901 62.126 59.6628 61.986 59.2055 61.706C58.7575 61.4167 58.4075 61.006 58.1555 60.474C57.9035 59.9327 57.7775 59.3027 57.7775 58.584C57.7775 57.8467 57.9035 57.2167 58.1555 56.694C58.4075 56.1713 58.7575 55.7653 59.2055 55.476C59.6628 55.1867 60.1901 55.042 60.7875 55.042C61.3848 55.042 61.8981 55.1913 62.3275 55.49C62.7661 55.7793 63.0601 56.1713 63.2095 56.666H63.0555V52.746C63.0555 52.5127 63.1161 52.3353 63.2375 52.214C63.3588 52.0927 63.5315 52.032 63.7555 52.032C63.9795 52.032 64.1521 52.0927 64.2735 52.214C64.4041 52.3353 64.4695 52.5127 64.4695 52.746V61.384C64.4695 61.608 64.4088 61.7853 64.2875 61.916C64.1661 62.0373 63.9935 62.098 63.7695 62.098C63.5455 62.098 63.3728 62.0373 63.2515 61.916C63.1301 61.7853 63.0695 61.608 63.0695 61.384V60.152L63.2235 60.46C63.0741 60.964 62.7801 61.37 62.3415 61.678C61.9121 61.9767 61.3941 62.126 60.7875 62.126ZM61.1515 61.034C61.5341 61.034 61.8701 60.9407 62.1595 60.754C62.4488 60.5673 62.6728 60.292 62.8315 59.928C62.9995 59.564 63.0835 59.116 63.0835 58.584C63.0835 57.7813 62.9061 57.1747 62.5515 56.764C62.1968 56.3533 61.7301 56.148 61.1515 56.148C60.7595 56.148 60.4188 56.2413 60.1295 56.428C59.8401 56.6053 59.6115 56.876 59.4435 57.24C59.2848 57.604 59.2055 58.052 59.2055 58.584C59.2055 59.3773 59.3828 59.984 59.7375 60.404C60.0921 60.824 60.5635 61.034 61.1515 61.034ZM68.8909 62.126C68.3403 62.126 67.8783 62.0233 67.5049 61.818C67.1409 61.6127 66.8656 61.3093 66.6789 60.908C66.5016 60.4973 66.4129 59.984 66.4129 59.368V55.784C66.4129 55.5413 66.4736 55.364 66.5949 55.252C66.7163 55.1307 66.8889 55.07 67.1129 55.07C67.3369 55.07 67.5096 55.1307 67.6309 55.252C67.7616 55.364 67.8269 55.5413 67.8269 55.784V59.382C67.8269 59.9327 67.9389 60.3387 68.1629 60.6C68.3869 60.8613 68.7416 60.992 69.2269 60.992C69.7589 60.992 70.1883 60.8147 70.5149 60.46C70.8509 60.096 71.0189 59.62 71.0189 59.032V55.784C71.0189 55.5413 71.0796 55.364 71.2009 55.252C71.3223 55.1307 71.4996 55.07 71.7329 55.07C71.9569 55.07 72.1296 55.1307 72.2509 55.252C72.3723 55.364 72.4329 55.5413 72.4329 55.784V61.384C72.4329 61.86 72.2043 62.098 71.7469 62.098C71.5323 62.098 71.3643 62.0373 71.2429 61.916C71.1216 61.7853 71.0609 61.608 71.0609 61.384V60.194L71.2429 60.502C71.0563 61.0247 70.7576 61.426 70.3469 61.706C69.9363 61.986 69.4509 62.126 68.8909 62.126ZM77.4356 62.126C76.7356 62.126 76.129 61.9813 75.6156 61.692C75.1116 61.3933 74.7196 60.978 74.4396 60.446C74.1596 59.9047 74.0196 59.27 74.0196 58.542C74.0196 58.0007 74.099 57.5153 74.2576 57.086C74.4163 56.6473 74.6403 56.2787 74.9296 55.98C75.2283 55.6813 75.5876 55.4527 76.0076 55.294C76.437 55.126 76.913 55.042 77.4356 55.042C77.7623 55.042 78.103 55.0933 78.4576 55.196C78.8216 55.2893 79.1576 55.448 79.4656 55.672C79.587 55.7467 79.6616 55.84 79.6896 55.952C79.727 56.0547 79.7316 56.162 79.7036 56.274C79.685 56.386 79.6336 56.484 79.5496 56.568C79.475 56.6427 79.3816 56.6893 79.2696 56.708C79.1576 56.7173 79.0363 56.6847 78.9056 56.61C78.6816 56.4513 78.453 56.3393 78.2196 56.274C77.9863 56.1993 77.7623 56.162 77.5476 56.162C77.2116 56.162 76.913 56.218 76.6516 56.33C76.3996 56.4327 76.185 56.5867 76.0076 56.792C75.8303 56.988 75.695 57.2353 75.6016 57.534C75.5176 57.8327 75.4756 58.1733 75.4756 58.556C75.4756 59.3213 75.653 59.9233 76.0076 60.362C76.3716 60.7913 76.885 61.006 77.5476 61.006C77.7623 61.006 77.9863 60.9733 78.2196 60.908C78.453 60.8427 78.6816 60.7307 78.9056 60.572C79.0363 60.4973 79.1576 60.4693 79.2696 60.488C79.3816 60.5067 79.4703 60.558 79.5356 60.642C79.6103 60.7167 79.657 60.81 79.6756 60.922C79.7036 61.0247 79.699 61.132 79.6616 61.244C79.6243 61.356 79.545 61.4493 79.4236 61.524C79.125 61.7387 78.7983 61.8927 78.4436 61.986C78.0983 62.0793 77.7623 62.126 77.4356 62.126ZM83.0901 62.126C82.6141 62.126 82.1848 62.0327 81.8021 61.846C81.4288 61.6593 81.1348 61.4073 80.9201 61.09C80.7054 60.7727 80.5981 60.4133 80.5981 60.012C80.5981 59.508 80.7241 59.1113 80.9761 58.822C81.2374 58.5233 81.6621 58.3133 82.2501 58.192C82.8474 58.0613 83.6501 57.996 84.6581 57.996H85.3161V58.864H84.6721C84.0001 58.864 83.4681 58.8967 83.0761 58.962C82.6841 59.0273 82.4041 59.1393 82.2361 59.298C82.0774 59.4473 81.9981 59.6573 81.9981 59.928C81.9981 60.2827 82.1194 60.572 82.3621 60.796C82.6048 61.0107 82.9408 61.118 83.3701 61.118C83.7154 61.118 84.0188 61.0387 84.2801 60.88C84.5414 60.712 84.7468 60.488 84.8961 60.208C85.0548 59.928 85.1341 59.606 85.1341 59.242V57.632C85.1341 57.1 85.0221 56.7173 84.7981 56.484C84.5741 56.2507 84.2054 56.134 83.6921 56.134C83.3934 56.134 83.0808 56.1713 82.7541 56.246C82.4368 56.3207 82.1054 56.4467 81.7601 56.624C81.6014 56.6987 81.4661 56.722 81.3541 56.694C81.2421 56.666 81.1534 56.6053 81.0881 56.512C81.0228 56.4093 80.9854 56.302 80.9761 56.19C80.9761 56.0687 81.0041 55.952 81.0601 55.84C81.1254 55.728 81.2328 55.644 81.3821 55.588C81.7928 55.392 82.1988 55.252 82.6001 55.168C83.0014 55.084 83.3794 55.042 83.7341 55.042C84.3594 55.042 84.8728 55.14 85.2741 55.336C85.6848 55.532 85.9881 55.8307 86.1841 56.232C86.3801 56.6333 86.4781 57.1513 86.4781 57.786V61.384C86.4781 61.608 86.4221 61.7853 86.3101 61.916C86.1981 62.0373 86.0348 62.098 85.8201 62.098C85.6148 62.098 85.4514 62.0373 85.3301 61.916C85.2088 61.7853 85.1481 61.608 85.1481 61.384V60.474H85.2741C85.1994 60.8193 85.0594 61.118 84.8541 61.37C84.6581 61.6127 84.4108 61.7993 84.1121 61.93C83.8134 62.0607 83.4728 62.126 83.0901 62.126ZM91.3376 62.126C90.7776 62.126 90.3063 62.028 89.9236 61.832C89.541 61.636 89.2563 61.3467 89.0696 60.964C88.883 60.5813 88.7896 60.1147 88.7896 59.564V56.26H87.9496C87.763 56.26 87.6183 56.2133 87.5156 56.12C87.413 56.0173 87.3616 55.882 87.3616 55.714C87.3616 55.5367 87.413 55.4013 87.5156 55.308C87.6183 55.2147 87.763 55.168 87.9496 55.168H88.7896V53.726C88.7896 53.4927 88.8503 53.3153 88.9716 53.194C89.1023 53.0727 89.2796 53.012 89.5036 53.012C89.7276 53.012 89.9003 53.0727 90.0216 53.194C90.143 53.3153 90.2036 53.4927 90.2036 53.726V55.168H91.8416C92.0283 55.168 92.173 55.2147 92.2756 55.308C92.3783 55.4013 92.4296 55.5367 92.4296 55.714C92.4296 55.882 92.3783 56.0173 92.2756 56.12C92.173 56.2133 92.0283 56.26 91.8416 56.26H90.2036V59.452C90.2036 59.9467 90.3063 60.32 90.5116 60.572C90.7263 60.824 91.0716 60.95 91.5476 60.95C91.7156 60.95 91.8603 60.936 91.9816 60.908C92.1123 60.8707 92.2196 60.8473 92.3036 60.838C92.4063 60.838 92.4903 60.8753 92.5556 60.95C92.621 61.0153 92.6536 61.146 92.6536 61.342C92.6536 61.482 92.6256 61.6127 92.5696 61.734C92.523 61.8553 92.4343 61.9347 92.3036 61.972C92.1916 62.0093 92.0376 62.042 91.8416 62.07C91.655 62.1073 91.487 62.126 91.3376 62.126ZM94.362 62.084C94.138 62.084 93.9653 62.0187 93.844 61.888C93.7226 61.748 93.662 61.5567 93.662 61.314V55.854C93.662 55.6113 93.7226 55.4247 93.844 55.294C93.9653 55.1633 94.138 55.098 94.362 55.098C94.586 55.098 94.7586 55.1633 94.88 55.294C95.0106 55.4247 95.076 55.6113 95.076 55.854V61.314C95.076 61.5567 95.0153 61.748 94.894 61.888C94.7726 62.0187 94.5953 62.084 94.362 62.084ZM94.362 53.642C94.082 53.642 93.8626 53.572 93.704 53.432C93.5546 53.292 93.48 53.096 93.48 52.844C93.48 52.5827 93.5546 52.3867 93.704 52.256C93.8626 52.116 94.082 52.046 94.362 52.046C94.642 52.046 94.8566 52.116 95.006 52.256C95.1646 52.3867 95.244 52.5827 95.244 52.844C95.244 53.096 95.1646 53.292 95.006 53.432C94.8566 53.572 94.642 53.642 94.362 53.642ZM100.034 62.126C99.3436 62.126 98.7463 61.9813 98.2423 61.692C97.7476 61.4027 97.3603 60.992 97.0803 60.46C96.8003 59.928 96.6603 59.3027 96.6603 58.584C96.6603 58.0333 96.7396 57.5433 96.8983 57.114C97.0569 56.6847 97.2809 56.316 97.5703 56.008C97.8689 55.6907 98.2236 55.4527 98.6343 55.294C99.0543 55.126 99.5209 55.042 100.034 55.042C100.716 55.042 101.304 55.1867 101.798 55.476C102.302 55.7653 102.694 56.176 102.974 56.708C103.254 57.2307 103.394 57.856 103.394 58.584C103.394 59.1253 103.315 59.6153 103.156 60.054C102.998 60.4927 102.769 60.866 102.47 61.174C102.181 61.482 101.826 61.72 101.406 61.888C100.996 62.0467 100.538 62.126 100.034 62.126ZM100.034 61.034C100.417 61.034 100.753 60.9407 101.042 60.754C101.332 60.5673 101.556 60.292 101.714 59.928C101.882 59.564 101.966 59.116 101.966 58.584C101.966 57.7813 101.789 57.1747 101.434 56.764C101.08 56.3533 100.613 56.148 100.034 56.148C99.6423 56.148 99.3016 56.2413 99.0123 56.428C98.7229 56.6053 98.4943 56.876 98.3263 57.24C98.1676 57.604 98.0883 58.052 98.0883 58.584C98.0883 59.3773 98.2656 59.984 98.6203 60.404C98.9749 60.824 99.4463 61.034 100.034 61.034ZM105.682 62.098C105.458 62.098 105.286 62.0373 105.164 61.916C105.043 61.7853 104.982 61.608 104.982 61.384V55.784C104.982 55.5507 105.043 55.3733 105.164 55.252C105.286 55.1307 105.454 55.07 105.668 55.07C105.892 55.07 106.06 55.1307 106.172 55.252C106.294 55.3733 106.354 55.5507 106.354 55.784V56.876L106.2 56.624C106.406 56.1013 106.728 55.7093 107.166 55.448C107.605 55.1773 108.109 55.042 108.678 55.042C109.22 55.042 109.668 55.1447 110.022 55.35C110.386 55.546 110.657 55.8493 110.834 56.26C111.012 56.6613 111.1 57.17 111.1 57.786V61.384C111.1 61.608 111.04 61.7853 110.918 61.916C110.797 62.0373 110.624 62.098 110.4 62.098C110.167 62.098 109.99 62.0373 109.868 61.916C109.747 61.7853 109.686 61.608 109.686 61.384V57.87C109.686 57.282 109.57 56.8527 109.336 56.582C109.112 56.3113 108.758 56.176 108.272 56.176C107.703 56.176 107.246 56.3533 106.9 56.708C106.564 57.0627 106.396 57.5387 106.396 58.136V61.384C106.396 61.86 106.158 62.098 105.682 62.098Z" fill="#202438"/>
<path d="M57.304 103.24C53.488 103.24 50.632 100.408 50.632 96.616V86.2H53.392V96.592C53.392 99.04 55.072 100.6 57.304 100.6C59.536 100.6 61.168 99.04 61.168 96.616V86.2H63.928V96.64C63.928 100.432 61.12 103.24 57.304 103.24ZM67.0343 107.8V91.48H69.6743V92.752C70.4903 91.816 71.7383 91.24 73.2023 91.24C76.3223 91.24 78.7463 93.88 78.7463 97.264C78.7463 100.624 76.3223 103.24 73.2023 103.24C71.7383 103.24 70.4903 102.688 69.6743 101.752V107.8H67.0343ZM72.7703 100.744C74.6903 100.744 76.0343 99.304 76.0343 97.24C76.0343 95.176 74.6903 93.736 72.7703 93.736C70.8263 93.736 69.5063 95.176 69.5063 97.24C69.5063 99.304 70.8263 100.744 72.7703 100.744ZM86.2602 103.24C82.8282 103.24 80.2122 100.624 80.2122 97.24C80.2122 93.856 82.8282 91.24 86.2602 91.24C88.0362 91.24 89.6682 91.96 90.7482 93.232L89.0202 94.984C88.3482 94.192 87.3882 93.784 86.2602 93.784C84.2922 93.784 82.9242 95.2 82.9242 97.24C82.9242 99.28 84.2922 100.696 86.2602 100.696C87.3882 100.696 88.3482 100.288 89.0202 99.496L90.7482 101.248C89.6682 102.52 88.0362 103.24 86.2602 103.24ZM97.6971 103.24C94.3371 103.24 91.6731 100.576 91.6731 97.216C91.6731 93.88 94.3131 91.24 97.6971 91.24C101.081 91.24 103.745 93.856 103.745 97.216C103.745 100.6 101.105 103.24 97.6971 103.24ZM97.6971 100.696C99.6651 100.696 101.033 99.256 101.033 97.216C101.033 95.2 99.6411 93.784 97.6971 93.784C95.7531 93.784 94.3851 95.224 94.3851 97.216C94.3851 99.256 95.7531 100.696 97.6971 100.696ZM105.941 103V91.48H108.581V92.656C109.373 91.744 110.549 91.24 111.893 91.24C113.477 91.24 114.845 91.936 115.589 93.16C116.453 91.96 117.821 91.24 119.429 91.24C121.901 91.24 123.893 92.896 123.893 95.56V103H121.253V96.136C121.253 94.6 120.173 93.712 118.757 93.712C117.341 93.712 116.237 94.6 116.237 96.136V103H113.597V96.136C113.597 94.6 112.517 93.712 111.101 93.712C109.685 93.712 108.581 94.6 108.581 96.136V103H105.941ZM127.956 89.368C127.044 89.368 126.396 88.672 126.396 87.784C126.396 86.896 127.044 86.2 127.956 86.2C128.868 86.2 129.516 86.896 129.516 87.784C129.516 88.672 128.868 89.368 127.956 89.368ZM126.636 103V91.48H129.276V103H126.636ZM132.237 103V91.48H134.877V92.8C135.669 91.816 136.893 91.24 138.309 91.24C140.901 91.24 142.773 93.52 142.773 95.776V103H140.133V96.352C140.133 94.816 139.053 93.712 137.517 93.712C135.981 93.712 134.877 94.816 134.877 96.352V103H132.237ZM150.136 102.76C147.04 102.76 144.712 100.264 144.712 96.976C144.712 93.712 147.04 91.24 150.136 91.24C151.624 91.24 152.872 91.792 153.688 92.704V91.48H156.328V102.52C156.328 105.832 153.856 108.04 150.256 108.04C147.832 108.04 145.984 107.128 144.856 105.52L146.584 103.792C147.496 104.944 148.648 105.52 150.304 105.52C152.392 105.52 153.688 104.392 153.688 102.52V101.272C152.872 102.208 151.624 102.76 150.136 102.76ZM150.664 100.264C152.584 100.264 153.856 98.968 153.856 97C153.856 95.032 152.584 93.736 150.664 93.736C148.744 93.736 147.424 95.056 147.424 97C147.424 98.944 148.744 100.264 150.664 100.264ZM164.426 103V86.2H167.186V100.48H175.106V103H164.426ZM178.605 89.368C177.693 89.368 177.045 88.672 177.045 87.784C177.045 86.896 177.693 86.2 178.605 86.2C179.517 86.2 180.165 86.896 180.165 87.784C180.165 88.672 179.517 89.368 178.605 89.368ZM177.285 103V91.48H179.925V103H177.285ZM182.886 103V91.48H185.526V92.8C186.318 91.816 187.542 91.24 188.958 91.24C191.55 91.24 193.422 93.52 193.422 95.776V103H190.782V96.352C190.782 94.816 189.702 93.712 188.166 93.712C186.63 93.712 185.526 94.816 185.526 96.352V103H182.886ZM200.929 103.24C197.809 103.24 195.385 100.624 195.385 97.264C195.385 93.88 197.809 91.24 200.929 91.24C202.393 91.24 203.641 91.816 204.457 92.752V91.48H207.097V107.8H204.457V101.752C203.641 102.688 202.393 103.24 200.929 103.24ZM201.361 100.744C203.305 100.744 204.625 99.304 204.625 97.24C204.625 95.176 203.305 93.736 201.361 93.736C199.441 93.736 198.097 95.176 198.097 97.24C198.097 99.304 199.441 100.744 201.361 100.744ZM216.415 103V93.88H213.655V91.48H216.415V89.968C216.415 87.328 218.311 85.48 221.047 85.48C222.439 85.48 223.375 85.984 224.239 86.872L222.535 88.576C222.151 88.192 221.743 87.952 221.047 87.952C219.775 87.952 219.055 88.672 219.055 89.944V91.48H222.535V93.88H219.055V103H216.415ZM229.205 103.24C225.845 103.24 223.181 100.576 223.181 97.216C223.181 93.88 225.821 91.24 229.205 91.24C232.589 91.24 235.253 93.856 235.253 97.216C235.253 100.6 232.613 103.24 229.205 103.24ZM229.205 100.696C231.173 100.696 232.541 99.256 232.541 97.216C232.541 95.2 231.149 93.784 229.205 93.784C227.261 93.784 225.893 95.224 225.893 97.216C225.893 99.256 227.261 100.696 229.205 100.696ZM237.448 103V91.48H240.088V92.68C240.736 91.768 241.744 91.24 243.088 91.24C244.24 91.24 245.152 91.648 245.944 92.56L244.216 94.336C243.784 93.904 243.304 93.712 242.632 93.712C241.144 93.712 240.088 94.624 240.088 96.592V103H237.448ZM256.657 103V88.72H251.185V86.2H264.889V88.72H259.417V103H256.657ZM269.308 103.24C265.852 103.24 263.212 100.672 263.212 97.24C263.212 93.856 265.828 91.24 269.164 91.24C272.356 91.24 274.66 93.664 274.66 96.976C274.66 97.36 274.612 97.744 274.516 98.224H265.924C266.308 99.808 267.556 100.768 269.284 100.768C270.46 100.768 271.516 100.36 272.212 99.544L273.892 101.248C272.764 102.568 271.108 103.24 269.308 103.24ZM269.116 93.664C267.484 93.664 266.308 94.576 265.924 96.064H272.068C271.732 94.528 270.724 93.664 269.116 93.664ZM281.601 103.24C278.48 103.24 276.057 100.624 276.057 97.264C276.057 93.88 278.48 91.24 281.601 91.24C283.065 91.24 284.313 91.816 285.129 92.752V91.48H287.769V103H285.129V101.752C284.313 102.688 283.065 103.24 281.601 103.24ZM282.033 100.744C283.977 100.744 285.297 99.304 285.297 97.24C285.297 95.176 283.977 93.736 282.033 93.736C280.113 93.736 278.769 95.176 278.769 97.24C278.769 99.304 280.113 100.744 282.033 100.744ZM290.698 103V91.48H293.338V92.656C294.13 91.744 295.306 91.24 296.65 91.24C298.234 91.24 299.602 91.936 300.346 93.16C301.21 91.96 302.578 91.24 304.186 91.24C306.658 91.24 308.65 92.896 308.65 95.56V103H306.01V96.136C306.01 94.6 304.93 93.712 303.514 93.712C302.098 93.712 300.994 94.6 300.994 96.136V103H298.354V96.136C298.354 94.6 297.274 93.712 295.858 93.712C294.442 93.712 293.338 94.6 293.338 96.136V103H290.698ZM315.138 103.24C313.194 103.24 311.466 102.472 310.362 101.128L312.042 99.448C312.834 100.384 313.866 100.84 315.186 100.84C316.362 100.84 316.986 100.48 316.986 99.808C316.986 97.72 311.01 98.968 311.01 94.792C311.01 92.584 312.618 91.24 315.258 91.24C317.106 91.24 318.546 91.912 319.506 93.208L317.826 94.888C317.154 94.048 316.314 93.64 315.186 93.64C314.13 93.64 313.53 93.976 313.53 94.576C313.53 96.472 319.506 95.344 319.506 99.592C319.506 101.848 317.826 103.24 315.138 103.24ZM58.408 130.24C53.776 130.24 49.984 126.376 49.984 121.576C49.984 116.776 53.728 112.96 58.6 112.96C61.264 112.96 63.616 114.04 65.152 115.912L63.28 117.784C62.272 116.368 60.52 115.6 58.6 115.6C55.144 115.6 52.816 118.048 52.816 121.576C52.816 125.128 55.192 127.6 58.36 127.6C61.312 127.6 63.232 126.16 63.664 123.424H58.312V120.904H66.616V121.288C66.616 127.288 63.16 130.24 58.408 130.24ZM69.0031 130V118.48H71.6431V119.68C72.2911 118.768 73.2991 118.24 74.6431 118.24C75.7951 118.24 76.7071 118.648 77.4991 119.56L75.7711 121.336C75.3391 120.904 74.8591 120.712 74.1871 120.712C72.6991 120.712 71.6431 121.624 71.6431 123.592V130H69.0031ZM83.7049 130.24C80.3449 130.24 77.6809 127.576 77.6809 124.216C77.6809 120.88 80.3209 118.24 83.7049 118.24C87.0889 118.24 89.7529 120.856 89.7529 124.216C89.7529 127.6 87.1129 130.24 83.7049 130.24ZM83.7049 127.696C85.6729 127.696 87.0409 126.256 87.0409 124.216C87.0409 122.2 85.6489 120.784 83.7049 120.784C81.7609 120.784 80.3929 122.224 80.3929 124.216C80.3929 126.256 81.7609 127.696 83.7049 127.696ZM96.6764 130.24C93.7244 130.24 91.6604 128.152 91.6604 125.176V118.48H94.3004V125.056C94.3004 126.736 95.1644 127.696 96.6764 127.696C98.2124 127.696 99.0524 126.76 99.0524 125.056V118.48H101.692V125.176C101.692 128.2 99.6524 130.24 96.6764 130.24ZM104.347 134.8V118.48H106.987V119.752C107.803 118.816 109.051 118.24 110.515 118.24C113.635 118.24 116.059 120.88 116.059 124.264C116.059 127.624 113.635 130.24 110.515 130.24C109.051 130.24 107.803 129.688 106.987 128.752V134.8H104.347ZM110.083 127.744C112.003 127.744 113.347 126.304 113.347 124.24C113.347 122.176 112.003 120.736 110.083 120.736C108.139 120.736 106.819 122.176 106.819 124.24C106.819 126.304 108.139 127.744 110.083 127.744ZM121.506 130L128.418 113.2H130.338L137.202 130H134.226L132.954 126.76H125.73L124.434 130H121.506ZM126.69 124.36H131.994L129.354 117.664L126.69 124.36ZM143.39 130.24C140.27 130.24 137.846 127.624 137.846 124.264C137.846 120.88 140.27 118.24 143.39 118.24C144.854 118.24 146.102 118.816 146.918 119.752V112.72H149.558V130H146.918V128.752C146.102 129.688 144.854 130.24 143.39 130.24ZM143.822 127.744C145.766 127.744 147.086 126.304 147.086 124.24C147.086 122.176 145.766 120.736 143.822 120.736C141.902 120.736 140.558 122.176 140.558 124.24C140.558 126.304 141.902 127.744 143.822 127.744ZM152.487 130V118.48H155.127V119.656C155.919 118.744 157.095 118.24 158.439 118.24C160.023 118.24 161.391 118.936 162.135 120.16C162.999 118.96 164.367 118.24 165.975 118.24C168.447 118.24 170.439 119.896 170.439 122.56V130H167.799V123.136C167.799 121.6 166.719 120.712 165.303 120.712C163.887 120.712 162.783 121.6 162.783 123.136V130H160.143V123.136C160.143 121.6 159.063 120.712 157.647 120.712C156.231 120.712 155.127 121.6 155.127 123.136V130H152.487ZM174.503 116.368C173.591 116.368 172.943 115.672 172.943 114.784C172.943 113.896 173.591 113.2 174.503 113.2C175.415 113.2 176.063 113.896 176.063 114.784C176.063 115.672 175.415 116.368 174.503 116.368ZM173.183 130V118.48H175.823V130H173.183ZM178.784 130V118.48H181.424V119.8C182.216 118.816 183.44 118.24 184.856 118.24C187.448 118.24 189.32 120.52 189.32 122.776V130H186.68V123.352C186.68 121.816 185.6 120.712 184.064 120.712C182.528 120.712 181.424 121.816 181.424 123.352V130H178.784ZM58.552 157.24C53.776 157.24 49.96 153.376 49.96 148.576C49.96 143.776 53.728 139.96 58.504 139.96C63.28 139.96 67.072 143.776 67.072 148.6C67.072 153.4 63.304 157.24 58.552 157.24ZM58.504 154.6C61.888 154.6 64.24 152.128 64.24 148.576C64.24 145.072 61.864 142.6 58.504 142.6C55.144 142.6 52.792 145.048 52.792 148.576C52.792 152.128 55.144 154.6 58.504 154.6ZM69.5187 157V145.48H72.1587V146.8C72.9507 145.816 74.1747 145.24 75.5907 145.24C78.1827 145.24 80.0547 147.52 80.0547 149.776V157H77.4147V150.352C77.4147 148.816 76.3347 147.712 74.7987 147.712C73.2627 147.712 72.1587 148.816 72.1587 150.352V157H69.5187ZM82.7374 157V139.72H85.3774V146.752C86.1934 145.816 87.4414 145.24 88.9054 145.24C92.0254 145.24 94.4494 147.88 94.4494 151.264C94.4494 154.624 92.0254 157.24 88.9054 157.24C87.4414 157.24 86.1934 156.688 85.3774 155.752V157H82.7374ZM88.4734 154.744C90.3934 154.744 91.7374 153.304 91.7374 151.24C91.7374 149.176 90.3934 147.736 88.4734 147.736C86.5294 147.736 85.2094 149.176 85.2094 151.24C85.2094 153.304 86.5294 154.744 88.4734 154.744ZM101.939 157.24C98.5793 157.24 95.9153 154.576 95.9153 151.216C95.9153 147.88 98.5553 145.24 101.939 145.24C105.323 145.24 107.987 147.856 107.987 151.216C107.987 154.6 105.347 157.24 101.939 157.24ZM101.939 154.696C103.907 154.696 105.275 153.256 105.275 151.216C105.275 149.2 103.883 147.784 101.939 147.784C99.9953 147.784 98.6273 149.224 98.6273 151.216C98.6273 153.256 99.9953 154.696 101.939 154.696ZM115.007 157.24C111.887 157.24 109.463 154.624 109.463 151.264C109.463 147.88 111.887 145.24 115.007 145.24C116.471 145.24 117.719 145.816 118.535 146.752V145.48H121.175V157H118.535V155.752C117.719 156.688 116.471 157.24 115.007 157.24ZM115.439 154.744C117.383 154.744 118.703 153.304 118.703 151.24C118.703 149.176 117.383 147.736 115.439 147.736C113.519 147.736 112.175 149.176 112.175 151.24C112.175 153.304 113.519 154.744 115.439 154.744ZM124.105 157V145.48H126.745V146.68C127.393 145.768 128.401 145.24 129.745 145.24C130.897 145.24 131.809 145.648 132.601 146.56L130.873 148.336C130.441 147.904 129.961 147.712 129.289 147.712C127.801 147.712 126.745 148.624 126.745 150.592V157H124.105ZM138.351 157.24C135.23 157.24 132.807 154.624 132.807 151.264C132.807 147.88 135.23 145.24 138.351 145.24C139.815 145.24 141.063 145.816 141.879 146.752V139.72H144.519V157H141.879V155.752C141.063 156.688 139.815 157.24 138.351 157.24ZM138.783 154.744C140.727 154.744 142.047 153.304 142.047 151.24C142.047 149.176 140.727 147.736 138.783 147.736C136.863 147.736 135.519 149.176 135.519 151.24C135.519 153.304 136.863 154.744 138.783 154.744ZM148.792 143.368C147.88 143.368 147.232 142.672 147.232 141.784C147.232 140.896 147.88 140.2 148.792 140.2C149.704 140.2 150.352 140.896 150.352 141.784C150.352 142.672 149.704 143.368 148.792 143.368ZM147.472 157V145.48H150.112V157H147.472ZM153.073 157V145.48H155.713V146.8C156.505 145.816 157.729 145.24 159.145 145.24C161.737 145.24 163.609 147.52 163.609 149.776V157H160.969V150.352C160.969 148.816 159.889 147.712 158.353 147.712C156.817 147.712 155.713 148.816 155.713 150.352V157H153.073ZM170.972 156.76C167.876 156.76 165.548 154.264 165.548 150.976C165.548 147.712 167.876 145.24 170.972 145.24C172.46 145.24 173.708 145.792 174.524 146.704V145.48H177.164V156.52C177.164 159.832 174.692 162.04 171.092 162.04C168.668 162.04 166.82 161.128 165.692 159.52L167.42 157.792C168.332 158.944 169.484 159.52 171.14 159.52C173.228 159.52 174.524 158.392 174.524 156.52V155.272C173.708 156.208 172.46 156.76 170.972 156.76ZM171.5 154.264C173.42 154.264 174.692 152.968 174.692 151C174.692 149.032 173.42 147.736 171.5 147.736C169.58 147.736 168.26 149.056 168.26 151C168.26 152.944 169.58 154.264 171.5 154.264ZM189.942 157.24C187.278 157.24 185.526 156.28 184.062 154.408L185.934 152.536C186.87 153.88 188.046 154.672 190.038 154.672C191.886 154.672 193.086 153.856 193.086 152.512C193.086 148.576 185.118 150.64 185.118 144.64C185.118 141.688 187.518 139.96 190.614 139.96C192.822 139.96 194.598 140.92 195.702 142.264L193.83 144.136C192.87 143.056 191.886 142.528 190.542 142.528C188.862 142.528 187.878 143.224 187.878 144.448C187.878 148 195.846 146.104 195.846 152.344C195.846 155.368 193.566 157.24 189.942 157.24ZM203.449 157.24C199.993 157.24 197.353 154.672 197.353 151.24C197.353 147.856 199.969 145.24 203.305 145.24C206.497 145.24 208.801 147.664 208.801 150.976C208.801 151.36 208.753 151.744 208.657 152.224H200.065C200.449 153.808 201.697 154.768 203.425 154.768C204.601 154.768 205.657 154.36 206.353 153.544L208.033 155.248C206.905 156.568 205.249 157.24 203.449 157.24ZM203.257 147.664C201.625 147.664 200.449 148.576 200.065 150.064H206.209C205.873 148.528 204.865 147.664 203.257 147.664ZM214.685 157.24C212.741 157.24 211.013 156.472 209.909 155.128L211.589 153.448C212.381 154.384 213.413 154.84 214.733 154.84C215.909 154.84 216.533 154.48 216.533 153.808C216.533 151.72 210.557 152.968 210.557 148.792C210.557 146.584 212.165 145.24 214.805 145.24C216.653 145.24 218.093 145.912 219.053 147.208L217.373 148.888C216.701 148.048 215.861 147.64 214.733 147.64C213.677 147.64 213.077 147.976 213.077 148.576C213.077 150.472 219.053 149.344 219.053 153.592C219.053 155.848 217.373 157.24 214.685 157.24ZM224.998 157.24C223.054 157.24 221.326 156.472 220.222 155.128L221.902 153.448C222.694 154.384 223.726 154.84 225.046 154.84C226.222 154.84 226.846 154.48 226.846 153.808C226.846 151.72 220.87 152.968 220.87 148.792C220.87 146.584 222.478 145.24 225.118 145.24C226.966 145.24 228.406 145.912 229.366 147.208L227.686 148.888C227.014 148.048 226.174 147.64 225.046 147.64C223.99 147.64 223.39 147.976 223.39 148.576C223.39 150.472 229.366 149.344 229.366 153.592C229.366 155.848 227.686 157.24 224.998 157.24ZM232.886 143.368C231.974 143.368 231.326 142.672 231.326 141.784C231.326 140.896 231.974 140.2 232.886 140.2C233.798 140.2 234.446 140.896 234.446 141.784C234.446 142.672 233.798 143.368 232.886 143.368ZM231.566 157V145.48H234.206V157H231.566ZM242.447 157.24C239.087 157.24 236.423 154.576 236.423 151.216C236.423 147.88 239.063 145.24 242.447 145.24C245.831 145.24 248.495 147.856 248.495 151.216C248.495 154.6 245.855 157.24 242.447 157.24ZM242.447 154.696C244.415 154.696 245.783 153.256 245.783 151.216C245.783 149.2 244.391 147.784 242.447 147.784C240.503 147.784 239.135 149.224 239.135 151.216C239.135 153.256 240.503 154.696 242.447 154.696ZM250.691 157V145.48H253.331V146.8C254.123 145.816 255.347 145.24 256.763 145.24C259.355 145.24 261.227 147.52 261.227 149.776V157H258.587V150.352C258.587 148.816 257.507 147.712 255.971 147.712C254.435 147.712 253.331 148.816 253.331 150.352V157H250.691ZM267.677 157.24C265.733 157.24 264.005 156.472 262.901 155.128L264.581 153.448C265.373 154.384 266.405 154.84 267.725 154.84C268.901 154.84 269.525 154.48 269.525 153.808C269.525 151.72 263.549 152.968 263.549 148.792C263.549 146.584 265.157 145.24 267.797 145.24C269.645 145.24 271.085 145.912 272.045 147.208L270.365 148.888C269.693 148.048 268.853 147.64 267.725 147.64C266.669 147.64 266.069 147.976 266.069 148.576C266.069 150.472 272.045 149.344 272.045 153.592C272.045 155.848 270.365 157.24 267.677 157.24Z" fill="#202438"/>
<mask id="mask0_1659_27802" style="mask-type:alpha" maskUnits="userSpaceOnUse" x="142" y="174" width="276" height="230">
<rect x="142.264" y="174" width="275.018" height="229.537" fill="#D9D9D9"/>
</mask>
<g mask="url(#mask0_1659_27802)">
<g filter="url(#filter1_bd_1659_27802)">
<rect x="184.191" y="193.187" width="255.576" height="153.961" rx="4.64538" fill="url(#paint0_linear_1659_27802)" shape-rendering="crispEdges"/>
</g>
<g filter="url(#filter2_d_1659_27802)">
<path d="M184.191 197.833C184.191 195.267 186.271 193.187 188.837 193.187H435.123C437.688 193.187 439.768 195.267 439.768 197.833V205.133H184.191V197.833Z" fill="white"/>
</g>
<g filter="url(#filter3_d_1659_27802)">
<rect x="193.922" y="212.432" width="236.116" height="120.116" rx="3.98176" fill="url(#paint1_linear_1659_27802)"/>
</g>
<g filter="url(#filter4_d_1659_27802)">
<rect x="249.706" y="241.632" width="65.5158" height="38.4903" rx="4.24927" fill="#7596FF"/>
</g>
<g filter="url(#filter5_d_1659_27802)">
<rect x="249.706" y="285.431" width="65.5158" height="38.4903" rx="4.24927" fill="#7596FF"/>
</g>
<g filter="url(#filter6_d_1659_27802)">
<rect x="321.06" y="285.431" width="65.5158" height="38.4903" rx="4.24927" fill="#7596FF"/>
</g>
<g filter="url(#filter7_d_1659_27802)">
<rect x="321.06" y="241.632" width="65.5158" height="38.4903" rx="4.24927" fill="#7596FF"/>
</g>
<g filter="url(#filter8_d_1659_27802)">
<rect x="392.414" y="240.968" width="65.5158" height="38.4903" rx="4.24927" fill="#7596FF"/>
</g>
<rect x="200.409" y="221.723" width="35.6769" height="7.96351" rx="3.98176" fill="#DFE1EE"/>
<rect x="217.922" y="238.977" width="17.8385" height="3.98176" rx="1.99088" fill="#7596FF"/>
<rect x="249.706" y="231.014" width="25.9468" height="3.98176" rx="1.99088" fill="#DFE1EE"/>
<rect x="249.706" y="223.714" width="41.515" height="3.98176" rx="1.99088" fill="#DFE1EE"/>
<rect x="217.922" y="246.277" width="17.8385" height="3.98176" rx="1.99088" fill="#7596FF"/>
<ellipse cx="191.001" cy="198.828" rx="2.91902" ry="2.98632" fill="#7596FF"/>
<ellipse cx="200.083" cy="198.828" rx="2.91902" ry="2.98632" fill="#7596FF"/>
<ellipse cx="209.165" cy="198.828" rx="2.91902" ry="2.98632" fill="#7596FF"/>
<path d="M241.924 221.723V334.871" stroke="#DFE1EE" stroke-width="0.663626"/>
<g filter="url(#filter9_d_1659_27802)">
<rect x="392.414" y="285.431" width="65.5158" height="38.4903" rx="4.24927" fill="#7596FF"/>
</g>
</g>
<g filter="url(#filter10_bd_1659_27802)">
<rect x="90" y="267" width="127.416" height="116.135" rx="5" fill="url(#paint2_linear_1659_27802)" shape-rendering="crispEdges"/>
</g>
<path d="M90 271.645C90 269.08 92.0798 267 94.6454 267H212.771C215.336 267 217.416 269.08 217.416 271.645V276.954H90V271.645Z" fill="#006DFF"/>
<g filter="url(#filter11_d_1659_27802)">
<rect x="97" y="292" width="114.807" height="72.3353" rx="3.98176" fill="white"/>
</g>
<g filter="url(#filter12_bd_1659_27802)">
<circle cx="105.595" cy="366.876" r="10.2862" fill="url(#paint3_linear_1659_27802)" shape-rendering="crispEdges"/>
</g>
<circle cx="151.054" cy="328.053" r="14.5998" fill="#DFE1EE"/>
<g filter="url(#filter13_d_1659_27802)">
<path d="M147.072 333.988V321.417C147.072 321.116 147.392 320.924 147.657 321.065L158.792 326.992C159.066 327.137 159.076 327.526 158.809 327.685L147.674 334.33C147.409 334.489 147.072 334.297 147.072 333.988Z" fill="#EDF0FF"/>
</g>
<circle cx="95.9728" cy="272.309" r="2.6545" fill="#EDF0FF"/>
<rect x="95.3089" y="282.927" width="45.1266" height="3.98176" rx="1.99088" fill="#D1D4E3"/>
</g>
<defs>
<filter id="filter0_d_1659_27802" x="0" y="0" width="436.282" height="436" filterUnits="userSpaceOnUse" color-interpolation-filters="sRGB">
<feFlood flood-opacity="0" result="BackgroundImageFix"/>
<feColorMatrix in="SourceAlpha" type="matrix" values="0 0 0 0 0 0 0 0 0 0 0 0 0 0 0 0 0 0 127 0" result="hardAlpha"/>
<feOffset dx="1" dy="1"/>
<feGaussianBlur stdDeviation="9"/>
<feComposite in2="hardAlpha" operator="out"/>
<feColorMatrix type="matrix" values="0 0 0 0 0 0 0 0 0 0 0 0 0 0 0 0 0 0 0.1 0"/>
<feBlend mode="normal" in2="BackgroundImageFix" result="effect1_dropShadow_1659_27802"/>
<feBlend mode="normal" in="SourceGraphic" in2="effect1_dropShadow_1659_27802" result="shape"/>
</filter>
<filter id="filter1_bd_1659_27802" x="176.892" y="185.887" width="270.176" height="171.216" filterUnits="userSpaceOnUse" color-interpolation-filters="sRGB">
<feFlood flood-opacity="0" result="BackgroundImageFix"/>
<feGaussianBlur in="BackgroundImageFix" stdDeviation="3.64994"/>
<feComposite in2="SourceAlpha" operator="in" result="effect1_backgroundBlur_1659_27802"/>
<feColorMatrix in="SourceAlpha" type="matrix" values="0 0 0 0 0 0 0 0 0 0 0 0 0 0 0 0 0 0 127 0" result="hardAlpha"/>
<feOffset dy="2.6545"/>
<feGaussianBlur stdDeviation="3.64994"/>
<feComposite in2="hardAlpha" operator="out"/>
<feColorMatrix type="matrix" values="0 0 0 0 0 0 0 0 0 0.0588235 0 0 0 0 0.192157 0 0 0 0.25 0"/>
<feBlend mode="normal" in2="effect1_backgroundBlur_1659_27802" result="effect2_dropShadow_1659_27802"/>
<feBlend mode="normal" in="SourceGraphic" in2="effect2_dropShadow_1659_27802" result="shape"/>
</filter>
<filter id="filter2_d_1659_27802" x="176.892" y="188.542" width="270.176" height="26.5451" filterUnits="userSpaceOnUse" color-interpolation-filters="sRGB">
<feFlood flood-opacity="0" result="BackgroundImageFix"/>
<feColorMatrix in="SourceAlpha" type="matrix" values="0 0 0 0 0 0 0 0 0 0 0 0 0 0 0 0 0 0 127 0" result="hardAlpha"/>
<feOffset dy="2.6545"/>
<feGaussianBlur stdDeviation="3.64994"/>
<feComposite in2="hardAlpha" operator="out"/>
<feColorMatrix type="matrix" values="0 0 0 0 0 0 0 0 0 0 0 0 0 0 0 0 0 0 0.25 0"/>
<feBlend mode="normal" in2="BackgroundImageFix" result="effect1_dropShadow_1659_27802"/>
<feBlend mode="normal" in="SourceGraphic" in2="effect1_dropShadow_1659_27802" result="shape"/>
</filter>
<filter id="filter3_d_1659_27802" x="186.622" y="207.787" width="250.716" height="134.716" filterUnits="userSpaceOnUse" color-interpolation-filters="sRGB">
<feFlood flood-opacity="0" result="BackgroundImageFix"/>
<feColorMatrix in="SourceAlpha" type="matrix" values="0 0 0 0 0 0 0 0 0 0 0 0 0 0 0 0 0 0 127 0" result="hardAlpha"/>
<feOffset dy="2.6545"/>
<feGaussianBlur stdDeviation="3.64994"/>
<feComposite in2="hardAlpha" operator="out"/>
<feColorMatrix type="matrix" values="0 0 0 0 0 0 0 0 0 0 0 0 0 0 0 0 0 0 0.25 0"/>
<feBlend mode="normal" in2="BackgroundImageFix" result="effect1_dropShadow_1659_27802"/>
<feBlend mode="normal" in="SourceGraphic" in2="effect1_dropShadow_1659_27802" result="shape"/>
</filter>
<filter id="filter4_d_1659_27802" x="243.029" y="236.169" width="78.8706" height="51.8451" filterUnits="userSpaceOnUse" color-interpolation-filters="sRGB">
<feFlood flood-opacity="0" result="BackgroundImageFix"/>
<feColorMatrix in="SourceAlpha" type="matrix" values="0 0 0 0 0 0 0 0 0 0 0 0 0 0 0 0 0 0 127 0" result="hardAlpha"/>
<feOffset dy="1.21408"/>
<feGaussianBlur stdDeviation="3.33871"/>
<feComposite in2="hardAlpha" operator="out"/>
<feColorMatrix type="matrix" values="0 0 0 0 0.458824 0 0 0 0 0.588235 0 0 0 0 1 0 0 0 0.25 0"/>
<feBlend mode="normal" in2="BackgroundImageFix" result="effect1_dropShadow_1659_27802"/>
<feBlend mode="normal" in="SourceGraphic" in2="effect1_dropShadow_1659_27802" result="shape"/>
</filter>
<filter id="filter5_d_1659_27802" x="243.029" y="279.968" width="78.8706" height="51.8451" filterUnits="userSpaceOnUse" color-interpolation-filters="sRGB">
<feFlood flood-opacity="0" result="BackgroundImageFix"/>
<feColorMatrix in="SourceAlpha" type="matrix" values="0 0 0 0 0 0 0 0 0 0 0 0 0 0 0 0 0 0 127 0" result="hardAlpha"/>
<feOffset dy="1.21408"/>
<feGaussianBlur stdDeviation="3.33871"/>
<feComposite in2="hardAlpha" operator="out"/>
<feColorMatrix type="matrix" values="0 0 0 0 0.458824 0 0 0 0 0.588235 0 0 0 0 1 0 0 0 0.25 0"/>
<feBlend mode="normal" in2="BackgroundImageFix" result="effect1_dropShadow_1659_27802"/>
<feBlend mode="normal" in="SourceGraphic" in2="effect1_dropShadow_1659_27802" result="shape"/>
</filter>
<filter id="filter6_d_1659_27802" x="314.382" y="279.968" width="78.8706" height="51.8451" filterUnits="userSpaceOnUse" color-interpolation-filters="sRGB">
<feFlood flood-opacity="0" result="BackgroundImageFix"/>
<feColorMatrix in="SourceAlpha" type="matrix" values="0 0 0 0 0 0 0 0 0 0 0 0 0 0 0 0 0 0 127 0" result="hardAlpha"/>
<feOffset dy="1.21408"/>
<feGaussianBlur stdDeviation="3.33871"/>
<feComposite in2="hardAlpha" operator="out"/>
<feColorMatrix type="matrix" values="0 0 0 0 0.458824 0 0 0 0 0.588235 0 0 0 0 1 0 0 0 0.25 0"/>
<feBlend mode="normal" in2="BackgroundImageFix" result="effect1_dropShadow_1659_27802"/>
<feBlend mode="normal" in="SourceGraphic" in2="effect1_dropShadow_1659_27802" result="shape"/>
</filter>
<filter id="filter7_d_1659_27802" x="314.382" y="236.169" width="78.8706" height="51.8451" filterUnits="userSpaceOnUse" color-interpolation-filters="sRGB">
<feFlood flood-opacity="0" result="BackgroundImageFix"/>
<feColorMatrix in="SourceAlpha" type="matrix" values="0 0 0 0 0 0 0 0 0 0 0 0 0 0 0 0 0 0 127 0" result="hardAlpha"/>
<feOffset dy="1.21408"/>
<feGaussianBlur stdDeviation="3.33871"/>
<feComposite in2="hardAlpha" operator="out"/>
<feColorMatrix type="matrix" values="0 0 0 0 0.458824 0 0 0 0 0.588235 0 0 0 0 1 0 0 0 0.25 0"/>
<feBlend mode="normal" in2="BackgroundImageFix" result="effect1_dropShadow_1659_27802"/>
<feBlend mode="normal" in="SourceGraphic" in2="effect1_dropShadow_1659_27802" result="shape"/>
</filter>
<filter id="filter8_d_1659_27802" x="385.736" y="235.505" width="78.8706" height="51.8451" filterUnits="userSpaceOnUse" color-interpolation-filters="sRGB">
<feFlood flood-opacity="0" result="BackgroundImageFix"/>
<feColorMatrix in="SourceAlpha" type="matrix" values="0 0 0 0 0 0 0 0 0 0 0 0 0 0 0 0 0 0 127 0" result="hardAlpha"/>
<feOffset dy="1.21408"/>
<feGaussianBlur stdDeviation="3.33871"/>
<feComposite in2="hardAlpha" operator="out"/>
<feColorMatrix type="matrix" values="0 0 0 0 0.458824 0 0 0 0 0.588235 0 0 0 0 1 0 0 0 0.25 0"/>
<feBlend mode="normal" in2="BackgroundImageFix" result="effect1_dropShadow_1659_27802"/>
<feBlend mode="normal" in="SourceGraphic" in2="effect1_dropShadow_1659_27802" result="shape"/>
</filter>
<filter id="filter9_d_1659_27802" x="385.736" y="279.968" width="78.8706" height="51.8451" filterUnits="userSpaceOnUse" color-interpolation-filters="sRGB">
<feFlood flood-opacity="0" result="BackgroundImageFix"/>
<feColorMatrix in="SourceAlpha" type="matrix" values="0 0 0 0 0 0 0 0 0 0 0 0 0 0 0 0 0 0 127 0" result="hardAlpha"/>
<feOffset dy="1.21408"/>
<feGaussianBlur stdDeviation="3.33871"/>
<feComposite in2="hardAlpha" operator="out"/>
<feColorMatrix type="matrix" values="0 0 0 0 0.458824 0 0 0 0 0.588235 0 0 0 0 1 0 0 0 0.25 0"/>
<feBlend mode="normal" in2="BackgroundImageFix" result="effect1_dropShadow_1659_27802"/>
<feBlend mode="normal" in="SourceGraphic" in2="effect1_dropShadow_1659_27802" result="shape"/>
</filter>
<filter id="filter10_bd_1659_27802" x="82.7001" y="259.7" width="142.016" height="133.389" filterUnits="userSpaceOnUse" color-interpolation-filters="sRGB">
<feFlood flood-opacity="0" result="BackgroundImageFix"/>
<feGaussianBlur in="BackgroundImageFix" stdDeviation="3.64994"/>
<feComposite in2="SourceAlpha" operator="in" result="effect1_backgroundBlur_1659_27802"/>
<feColorMatrix in="SourceAlpha" type="matrix" values="0 0 0 0 0 0 0 0 0 0 0 0 0 0 0 0 0 0 127 0" result="hardAlpha"/>
<feOffset dy="2.6545"/>
<feGaussianBlur stdDeviation="3.64994"/>
<feComposite in2="hardAlpha" operator="out"/>
<feColorMatrix type="matrix" values="0 0 0 0 0 0 0 0 0 0.0588235 0 0 0 0 0.192157 0 0 0 0.25 0"/>
<feBlend mode="normal" in2="effect1_backgroundBlur_1659_27802" result="effect2_dropShadow_1659_27802"/>
<feBlend mode="normal" in="SourceGraphic" in2="effect2_dropShadow_1659_27802" result="shape"/>
</filter>
<filter id="filter11_d_1659_27802" x="89.7001" y="286.027" width="129.407" height="86.935" filterUnits="userSpaceOnUse" color-interpolation-filters="sRGB">
<feFlood flood-opacity="0" result="BackgroundImageFix"/>
<feColorMatrix in="SourceAlpha" type="matrix" values="0 0 0 0 0 0 0 0 0 0 0 0 0 0 0 0 0 0 127 0" result="hardAlpha"/>
<feOffset dy="1.32725"/>
<feGaussianBlur stdDeviation="3.64994"/>
<feComposite in2="hardAlpha" operator="out"/>
<feColorMatrix type="matrix" values="0 0 0 0 0.321569 0 0 0 0 0.509804 0 0 0 0 1 0 0 0 0.2 0"/>
<feBlend mode="normal" in2="BackgroundImageFix" result="effect1_dropShadow_1659_27802"/>
<feBlend mode="normal" in="SourceGraphic" in2="effect1_dropShadow_1659_27802" result="shape"/>
</filter>
<filter id="filter12_bd_1659_27802" x="88.0091" y="351.944" width="35.1722" height="35.1722" filterUnits="userSpaceOnUse" color-interpolation-filters="sRGB">
<feFlood flood-opacity="0" result="BackgroundImageFix"/>
<feGaussianBlur in="BackgroundImageFix" stdDeviation="1.65907"/>
<feComposite in2="SourceAlpha" operator="in" result="effect1_backgroundBlur_1659_27802"/>
<feColorMatrix in="SourceAlpha" type="matrix" values="0 0 0 0 0 0 0 0 0 0 0 0 0 0 0 0 0 0 127 0" result="hardAlpha"/>
<feOffset dy="2.6545"/>
<feGaussianBlur stdDeviation="3.64994"/>
<feComposite in2="hardAlpha" operator="out"/>
<feColorMatrix type="matrix" values="0 0 0 0 0 0 0 0 0 0 0 0 0 0 0 0 0 0 0.25 0"/>
<feBlend mode="normal" in2="effect1_backgroundBlur_1659_27802" result="effect2_dropShadow_1659_27802"/>
<feBlend mode="normal" in="SourceGraphic" in2="effect2_dropShadow_1659_27802" result="shape"/>
</filter>
<filter id="filter13_d_1659_27802" x="142.692" y="317.434" width="20.6913" height="22.1292" filterUnits="userSpaceOnUse" color-interpolation-filters="sRGB">
<feFlood flood-opacity="0" result="BackgroundImageFix"/>
<feColorMatrix in="SourceAlpha" type="matrix" values="0 0 0 0 0 0 0 0 0 0 0 0 0 0 0 0 0 0 127 0" result="hardAlpha"/>
<feOffset dy="0.796351"/>
<feGaussianBlur stdDeviation="2.18997"/>
<feComposite in2="hardAlpha" operator="out"/>
<feColorMatrix type="matrix" values="0 0 0 0 0.458824 0 0 0 0 0.588235 0 0 0 0 1 0 0 0 0.2 0"/>
<feBlend mode="normal" in2="BackgroundImageFix" result="effect1_dropShadow_1659_27802"/>
<feBlend mode="normal" in="SourceGraphic" in2="effect1_dropShadow_1659_27802" result="shape"/>
</filter>
<linearGradient id="paint0_linear_1659_27802" x1="130.676" y1="13.3446" x2="371.331" y2="569.615" gradientUnits="userSpaceOnUse">
<stop stop-color="white"/>
<stop offset="1" stop-color="white" stop-opacity="0"/>
</linearGradient>
<linearGradient id="paint1_linear_1659_27802" x1="271.438" y1="193.187" x2="325.272" y2="409.63" gradientUnits="userSpaceOnUse">
<stop stop-color="#5282FF"/>
<stop offset="1" stop-color="#006DFF"/>
</linearGradient>
<linearGradient id="paint2_linear_1659_27802" x1="135.506" y1="285.889" x2="190.634" y2="443.417" gradientUnits="userSpaceOnUse">
<stop stop-color="white"/>
<stop offset="1" stop-color="white" stop-opacity="0"/>
</linearGradient>
<linearGradient id="paint3_linear_1659_27802" x1="92.6544" y1="355.926" x2="121.854" y2="397.402" gradientUnits="userSpaceOnUse">
<stop stop-color="#7596FF"/>
<stop offset="1" stop-color="#7596FF" stop-opacity="0"/>
</linearGradient>
</defs>
</svg>
