<svg width="436" height="436" viewBox="0 0 436 436" fill="none" xmlns="http://www.w3.org/2000/svg">
<g filter="url(#filter0_d_1659_27458)">
<mask id="mask0_1659_27458" style="mask-type:alpha" maskUnits="userSpaceOnUse" x="17" y="17" width="400" height="400">
<rect x="17" y="17" width="400" height="400" rx="24" fill="white"/>
</mask>
<g mask="url(#mask0_1659_27458)">
<g style="mix-blend-mode:multiply">
<rect x="17" y="17" width="400" height="400" rx="15.871" fill="#7596FF"/>
</g>
</g>
<path d="M53.438 62.126C53.0087 62.126 52.5887 62.0933 52.178 62.028C51.7673 61.9627 51.38 61.8647 51.016 61.734C50.652 61.594 50.3253 61.426 50.036 61.23C49.896 61.1273 49.798 61.0107 49.742 60.88C49.6953 60.7493 49.6813 60.6233 49.7 60.502C49.728 60.3713 49.784 60.2593 49.868 60.166C49.952 60.0727 50.0547 60.0167 50.176 59.998C50.2973 59.97 50.4327 60.0073 50.582 60.11C51.002 60.3807 51.4453 60.5813 51.912 60.712C52.3787 60.8333 52.8873 60.894 53.438 60.894C54.2313 60.894 54.8147 60.754 55.188 60.474C55.5707 60.1847 55.762 59.8113 55.762 59.354C55.762 58.9807 55.6267 58.6867 55.356 58.472C55.0853 58.248 54.6327 58.0707 53.998 57.94L52.5 57.632C51.6133 57.4453 50.9507 57.1373 50.512 56.708C50.0827 56.2787 49.868 55.7 49.868 54.972C49.868 54.5333 49.9567 54.132 50.134 53.768C50.3207 53.404 50.5773 53.0913 50.904 52.83C51.2307 52.5593 51.6227 52.354 52.08 52.214C52.5373 52.074 53.0367 52.004 53.578 52.004C54.1567 52.004 54.698 52.0787 55.202 52.228C55.7153 52.3773 56.1727 52.606 56.574 52.914C56.6953 52.998 56.7747 53.1053 56.812 53.236C56.8587 53.3573 56.868 53.4787 56.84 53.6C56.8213 53.7213 56.77 53.824 56.686 53.908C56.602 53.992 56.4947 54.0433 56.364 54.062C56.2333 54.0713 56.0887 54.0247 55.93 53.922C55.566 53.6793 55.1927 53.5067 54.81 53.404C54.4367 53.292 54.0213 53.236 53.564 53.236C53.1067 53.236 52.7053 53.306 52.36 53.446C52.024 53.586 51.7627 53.782 51.576 54.034C51.3987 54.286 51.31 54.5847 51.31 54.93C51.31 55.322 51.436 55.6347 51.688 55.868C51.94 56.1013 52.36 56.2787 52.948 56.4L54.432 56.708C55.3653 56.904 56.0607 57.2073 56.518 57.618C56.9753 58.0287 57.204 58.5747 57.204 59.256C57.204 59.6947 57.1153 60.0913 56.938 60.446C56.7607 60.7913 56.5087 61.09 56.182 61.342C55.8553 61.594 55.4587 61.79 54.992 61.93C54.5347 62.0607 54.0167 62.126 53.438 62.126ZM61.139 62.126C60.5883 62.126 60.1263 62.0233 59.753 61.818C59.389 61.6127 59.1137 61.3093 58.927 60.908C58.7497 60.4973 58.661 59.984 58.661 59.368V55.784C58.661 55.5413 58.7217 55.364 58.843 55.252C58.9643 55.1307 59.137 55.07 59.361 55.07C59.585 55.07 59.7577 55.1307 59.879 55.252C60.0097 55.364 60.075 55.5413 60.075 55.784V59.382C60.075 59.9327 60.187 60.3387 60.411 60.6C60.635 60.8613 60.9897 60.992 61.475 60.992C62.007 60.992 62.4363 60.8147 62.763 60.46C63.099 60.096 63.267 59.62 63.267 59.032V55.784C63.267 55.5413 63.3277 55.364 63.449 55.252C63.5703 55.1307 63.7477 55.07 63.981 55.07C64.205 55.07 64.3777 55.1307 64.499 55.252C64.6203 55.364 64.681 55.5413 64.681 55.784V61.384C64.681 61.86 64.4523 62.098 63.995 62.098C63.7803 62.098 63.6123 62.0373 63.491 61.916C63.3697 61.7853 63.309 61.608 63.309 61.384V60.194L63.491 60.502C63.3043 61.0247 63.0057 61.426 62.595 61.706C62.1843 61.986 61.699 62.126 61.139 62.126ZM67.3737 64.618C67.1497 64.618 66.977 64.5573 66.8557 64.436C66.7344 64.3147 66.6737 64.1373 66.6737 63.904V55.784C66.6737 55.5507 66.7344 55.3733 66.8557 55.252C66.977 55.1307 67.145 55.07 67.3597 55.07C67.5837 55.07 67.7564 55.1307 67.8777 55.252C67.999 55.3733 68.0597 55.5507 68.0597 55.784V57.002L67.9057 56.708C68.055 56.204 68.349 55.8027 68.7877 55.504C69.2264 55.196 69.7444 55.042 70.3417 55.042C70.9484 55.042 71.4757 55.1867 71.9237 55.476C72.381 55.7653 72.731 56.1713 72.9737 56.694C73.2257 57.2167 73.3517 57.8467 73.3517 58.584C73.3517 59.3027 73.2257 59.9327 72.9737 60.474C72.731 61.006 72.3857 61.4167 71.9377 61.706C71.4897 61.986 70.9577 62.126 70.3417 62.126C69.7537 62.126 69.2404 61.9767 68.8017 61.678C68.363 61.3793 68.069 60.9827 67.9197 60.488H68.0877V63.904C68.0877 64.1373 68.0224 64.3147 67.8917 64.436C67.7704 64.5573 67.5977 64.618 67.3737 64.618ZM69.9917 61.034C70.3837 61.034 70.7244 60.9407 71.0137 60.754C71.303 60.5673 71.527 60.292 71.6857 59.928C71.8444 59.564 71.9237 59.116 71.9237 58.584C71.9237 57.7813 71.7464 57.1747 71.3917 56.764C71.0464 56.3533 70.5797 56.148 69.9917 56.148C69.609 56.148 69.2684 56.2413 68.9697 56.428C68.6804 56.6053 68.4564 56.876 68.2977 57.24C68.139 57.604 68.0597 58.052 68.0597 58.584C68.0597 59.3773 68.237 59.984 68.5917 60.404C68.9464 60.824 69.413 61.034 69.9917 61.034ZM75.6452 64.618C75.4212 64.618 75.2485 64.5573 75.1272 64.436C75.0058 64.3147 74.9452 64.1373 74.9452 63.904V55.784C74.9452 55.5507 75.0058 55.3733 75.1272 55.252C75.2485 55.1307 75.4165 55.07 75.6312 55.07C75.8552 55.07 76.0278 55.1307 76.1492 55.252C76.2705 55.3733 76.3312 55.5507 76.3312 55.784V57.002L76.1772 56.708C76.3265 56.204 76.6205 55.8027 77.0592 55.504C77.4978 55.196 78.0158 55.042 78.6132 55.042C79.2198 55.042 79.7472 55.1867 80.1952 55.476C80.6525 55.7653 81.0025 56.1713 81.2452 56.694C81.4972 57.2167 81.6232 57.8467 81.6232 58.584C81.6232 59.3027 81.4972 59.9327 81.2452 60.474C81.0025 61.006 80.6572 61.4167 80.2092 61.706C79.7612 61.986 79.2292 62.126 78.6132 62.126C78.0252 62.126 77.5118 61.9767 77.0732 61.678C76.6345 61.3793 76.3405 60.9827 76.1912 60.488H76.3592V63.904C76.3592 64.1373 76.2938 64.3147 76.1632 64.436C76.0418 64.5573 75.8692 64.618 75.6452 64.618ZM78.2632 61.034C78.6552 61.034 78.9958 60.9407 79.2852 60.754C79.5745 60.5673 79.7985 60.292 79.9572 59.928C80.1158 59.564 80.1952 59.116 80.1952 58.584C80.1952 57.7813 80.0178 57.1747 79.6632 56.764C79.3178 56.3533 78.8512 56.148 78.2632 56.148C77.8805 56.148 77.5398 56.2413 77.2412 56.428C76.9518 56.6053 76.7278 56.876 76.5692 57.24C76.4105 57.604 76.3312 58.052 76.3312 58.584C76.3312 59.3773 76.5085 59.984 76.8632 60.404C77.2178 60.824 77.6845 61.034 78.2632 61.034ZM86.1847 62.126C85.494 62.126 84.8967 61.9813 84.3927 61.692C83.898 61.4027 83.5107 60.992 83.2307 60.46C82.9507 59.928 82.8107 59.3027 82.8107 58.584C82.8107 58.0333 82.89 57.5433 83.0487 57.114C83.2073 56.6847 83.4313 56.316 83.7207 56.008C84.0193 55.6907 84.374 55.4527 84.7847 55.294C85.2047 55.126 85.6713 55.042 86.1847 55.042C86.866 55.042 87.454 55.1867 87.9487 55.476C88.4527 55.7653 88.8447 56.176 89.1247 56.708C89.4047 57.2307 89.5447 57.856 89.5447 58.584C89.5447 59.1253 89.4653 59.6153 89.3067 60.054C89.148 60.4927 88.9193 60.866 88.6207 61.174C88.3313 61.482 87.9767 61.72 87.5567 61.888C87.146 62.0467 86.6887 62.126 86.1847 62.126ZM86.1847 61.034C86.5673 61.034 86.9033 60.9407 87.1927 60.754C87.482 60.5673 87.706 60.292 87.8647 59.928C88.0327 59.564 88.1167 59.116 88.1167 58.584C88.1167 57.7813 87.9393 57.1747 87.5847 56.764C87.23 56.3533 86.7633 56.148 86.1847 56.148C85.7927 56.148 85.452 56.2413 85.1627 56.428C84.8733 56.6053 84.6447 56.876 84.4767 57.24C84.318 57.604 84.2387 58.052 84.2387 58.584C84.2387 59.3773 84.416 59.984 84.7707 60.404C85.1253 60.824 85.5967 61.034 86.1847 61.034ZM91.8467 62.098C91.6133 62.098 91.436 62.0373 91.3147 61.916C91.1933 61.7853 91.1327 61.608 91.1327 61.384V55.784C91.1327 55.5507 91.1933 55.3733 91.3147 55.252C91.436 55.1307 91.604 55.07 91.8187 55.07C92.0427 55.07 92.2107 55.1307 92.3227 55.252C92.444 55.3733 92.5047 55.5507 92.5047 55.784V56.806H92.3647C92.514 56.246 92.7893 55.8213 93.1907 55.532C93.592 55.2427 94.1053 55.0747 94.7307 55.028C94.8987 55.0187 95.0293 55.0607 95.1227 55.154C95.2253 55.2473 95.2813 55.392 95.2907 55.588C95.3093 55.784 95.2673 55.9427 95.1647 56.064C95.062 56.176 94.9033 56.2413 94.6887 56.26L94.4227 56.288C93.816 56.344 93.354 56.5353 93.0367 56.862C92.7193 57.1887 92.5607 57.6367 92.5607 58.206V61.384C92.5607 61.608 92.5 61.7853 92.3787 61.916C92.2667 62.0373 92.0893 62.098 91.8467 62.098ZM99.6501 62.126C99.0901 62.126 98.6188 62.028 98.2361 61.832C97.8535 61.636 97.5688 61.3467 97.3821 60.964C97.1955 60.5813 97.1021 60.1147 97.1021 59.564V56.26H96.2621C96.0755 56.26 95.9308 56.2133 95.8281 56.12C95.7255 56.0173 95.6741 55.882 95.6741 55.714C95.6741 55.5367 95.7255 55.4013 95.8281 55.308C95.9308 55.2147 96.0755 55.168 96.2621 55.168H97.1021V53.726C97.1021 53.4927 97.1628 53.3153 97.2841 53.194C97.4148 53.0727 97.5921 53.012 97.8161 53.012C98.0401 53.012 98.2128 53.0727 98.3341 53.194C98.4555 53.3153 98.5161 53.4927 98.5161 53.726V55.168H100.154C100.341 55.168 100.485 55.2147 100.588 55.308C100.691 55.4013 100.742 55.5367 100.742 55.714C100.742 55.882 100.691 56.0173 100.588 56.12C100.485 56.2133 100.341 56.26 100.154 56.26H98.5161V59.452C98.5161 59.9467 98.6188 60.32 98.8241 60.572C99.0388 60.824 99.3841 60.95 99.8601 60.95C100.028 60.95 100.173 60.936 100.294 60.908C100.425 60.8707 100.532 60.8473 100.616 60.838C100.719 60.838 100.803 60.8753 100.868 60.95C100.933 61.0153 100.966 61.146 100.966 61.342C100.966 61.482 100.938 61.6127 100.882 61.734C100.835 61.8553 100.747 61.9347 100.616 61.972C100.504 62.0093 100.35 62.042 100.154 62.07C99.9675 62.1073 99.7995 62.126 99.6501 62.126Z" fill="white"/>
<path d="M50.824 107V90.2H53.584V97.04H61.504V90.2H64.264V107H61.504V99.56H53.584V107H50.824ZM72.3739 107.24C69.2539 107.24 66.8299 104.624 66.8299 101.264C66.8299 97.88 69.2539 95.24 72.3739 95.24C73.8379 95.24 75.0859 95.816 75.9019 96.752V95.48H78.5419V107H75.9019V105.752C75.0859 106.688 73.8379 107.24 72.3739 107.24ZM72.8059 104.744C74.7499 104.744 76.0699 103.304 76.0699 101.24C76.0699 99.176 74.7499 97.736 72.8059 97.736C70.8859 97.736 69.5419 99.176 69.5419 101.24C69.5419 103.304 70.8859 104.744 72.8059 104.744ZM85.3598 107L80.1038 95.48H83.0318L86.1758 102.848L89.3438 95.48H92.1518L86.8958 107H85.3598ZM98.6832 107.24C95.2272 107.24 92.5872 104.672 92.5872 101.24C92.5872 97.856 95.2032 95.24 98.5392 95.24C101.731 95.24 104.035 97.664 104.035 100.976C104.035 101.36 103.987 101.744 103.891 102.224H95.2992C95.6832 103.808 96.9312 104.768 98.6592 104.768C99.8352 104.768 100.891 104.36 101.587 103.544L103.267 105.248C102.139 106.568 100.483 107.24 98.6832 107.24ZM98.4912 97.664C96.8592 97.664 95.6832 98.576 95.2992 100.064H101.443C101.107 98.528 100.099 97.664 98.4912 97.664ZM110.956 107V95.48H113.596V96.656C114.388 95.744 115.564 95.24 116.908 95.24C118.492 95.24 119.86 95.936 120.604 97.16C121.468 95.96 122.836 95.24 124.444 95.24C126.916 95.24 128.908 96.896 128.908 99.56V107H126.268V100.136C126.268 98.6 125.188 97.712 123.772 97.712C122.356 97.712 121.252 98.6 121.252 100.136V107H118.612V100.136C118.612 98.6 117.532 97.712 116.116 97.712C114.7 97.712 113.596 98.6 113.596 100.136V107H110.956ZM136.908 107.24C133.548 107.24 130.884 104.576 130.884 101.216C130.884 97.88 133.524 95.24 136.908 95.24C140.292 95.24 142.956 97.856 142.956 101.216C142.956 104.6 140.316 107.24 136.908 107.24ZM136.908 104.696C138.876 104.696 140.244 103.256 140.244 101.216C140.244 99.2 138.852 97.784 136.908 97.784C134.964 97.784 133.596 99.224 133.596 101.216C133.596 103.256 134.964 104.696 136.908 104.696ZM145.152 107V95.48H147.792V96.68C148.44 95.768 149.448 95.24 150.792 95.24C151.944 95.24 152.856 95.648 153.648 96.56L151.92 98.336C151.488 97.904 151.008 97.712 150.336 97.712C148.848 97.712 147.792 98.624 147.792 100.592V107H145.152ZM159.925 107.24C156.469 107.24 153.829 104.672 153.829 101.24C153.829 97.856 156.445 95.24 159.781 95.24C162.973 95.24 165.277 97.664 165.277 100.976C165.277 101.36 165.229 101.744 165.133 102.224H156.541C156.925 103.808 158.173 104.768 159.901 104.768C161.077 104.768 162.133 104.36 162.829 103.544L164.509 105.248C163.381 106.568 161.725 107.24 159.925 107.24ZM159.733 97.664C158.101 97.664 156.925 98.576 156.541 100.064H162.685C162.349 98.528 161.341 97.664 159.733 97.664ZM177.022 107.24C173.902 107.24 171.478 104.624 171.478 101.264C171.478 97.88 173.902 95.24 177.022 95.24C178.486 95.24 179.734 95.816 180.55 96.752V95.48H183.19V111.8H180.55V105.752C179.734 106.688 178.486 107.24 177.022 107.24ZM177.454 104.744C179.398 104.744 180.718 103.304 180.718 101.24C180.718 99.176 179.398 97.736 177.454 97.736C175.534 97.736 174.19 99.176 174.19 101.24C174.19 103.304 175.534 104.744 177.454 104.744ZM190.848 107.24C187.896 107.24 185.832 105.152 185.832 102.176V95.48H188.472V102.056C188.472 103.736 189.336 104.696 190.848 104.696C192.384 104.696 193.224 103.76 193.224 102.056V95.48H195.864V102.176C195.864 105.2 193.824 107.24 190.848 107.24ZM203.871 107.24C200.415 107.24 197.775 104.672 197.775 101.24C197.775 97.856 200.391 95.24 203.727 95.24C206.919 95.24 209.223 97.664 209.223 100.976C209.223 101.36 209.175 101.744 209.079 102.224H200.487C200.871 103.808 202.119 104.768 203.847 104.768C205.023 104.768 206.079 104.36 206.775 103.544L208.455 105.248C207.327 106.568 205.671 107.24 203.871 107.24ZM203.679 97.664C202.047 97.664 200.871 98.576 200.487 100.064H206.631C206.295 98.528 205.287 97.664 203.679 97.664ZM215.107 107.24C213.163 107.24 211.435 106.472 210.331 105.128L212.011 103.448C212.803 104.384 213.835 104.84 215.155 104.84C216.331 104.84 216.955 104.48 216.955 103.808C216.955 101.72 210.979 102.968 210.979 98.792C210.979 96.584 212.587 95.24 215.227 95.24C217.075 95.24 218.515 95.912 219.475 97.208L217.795 98.888C217.123 98.048 216.283 97.64 215.155 97.64C214.099 97.64 213.499 97.976 213.499 98.576C213.499 100.472 219.475 99.344 219.475 103.592C219.475 105.848 217.795 107.24 215.107 107.24ZM223.404 107V97.88H220.644V95.48H223.404V90.68H226.044V95.48H228.804V97.88H226.044V107H223.404ZM232.066 93.368C231.154 93.368 230.506 92.672 230.506 91.784C230.506 90.896 231.154 90.2 232.066 90.2C232.978 90.2 233.626 90.896 233.626 91.784C233.626 92.672 232.978 93.368 232.066 93.368ZM230.746 107V95.48H233.386V107H230.746ZM241.627 107.24C238.267 107.24 235.603 104.576 235.603 101.216C235.603 97.88 238.243 95.24 241.627 95.24C245.011 95.24 247.675 97.856 247.675 101.216C247.675 104.6 245.035 107.24 241.627 107.24ZM241.627 104.696C243.595 104.696 244.963 103.256 244.963 101.216C244.963 99.2 243.571 97.784 241.627 97.784C239.683 97.784 238.315 99.224 238.315 101.216C238.315 103.256 239.683 104.696 241.627 104.696ZM249.87 107V95.48H252.51V96.8C253.302 95.816 254.526 95.24 255.942 95.24C258.534 95.24 260.406 97.52 260.406 99.776V107H257.766V100.352C257.766 98.816 256.686 97.712 255.15 97.712C253.614 97.712 252.51 98.816 252.51 100.352V107H249.87ZM266.857 107.24C264.913 107.24 263.185 106.472 262.081 105.128L263.761 103.448C264.553 104.384 265.585 104.84 266.905 104.84C268.081 104.84 268.705 104.48 268.705 103.808C268.705 101.72 262.729 102.968 262.729 98.792C262.729 96.584 264.337 95.24 266.977 95.24C268.825 95.24 270.265 95.912 271.225 97.208L269.545 98.888C268.873 98.048 268.033 97.64 266.905 97.64C265.849 97.64 265.249 97.976 265.249 98.576C265.249 100.472 271.225 99.344 271.225 103.592C271.225 105.848 269.545 107.24 266.857 107.24ZM277.074 101.432V96.8H277.722C279.282 96.8 280.338 95.84 280.338 94.4C280.338 92.984 279.33 92.048 277.77 92.048C276.378 92.048 275.298 92.816 274.65 94.28L272.729 92.696C273.69 90.632 275.562 89.48 277.914 89.48C280.938 89.48 283.05 91.424 283.05 94.208C283.05 96.44 281.706 98.096 279.522 98.84L279.354 101.432H277.074ZM278.202 107.24C277.17 107.24 276.45 106.472 276.45 105.464C276.45 104.456 277.17 103.688 278.202 103.688C279.234 103.688 279.954 104.456 279.954 105.464C279.954 106.472 279.234 107.24 278.202 107.24ZM58.552 143.24C53.776 143.24 49.96 139.376 49.96 134.576C49.96 129.776 53.728 125.96 58.504 125.96C63.28 125.96 67.072 129.776 67.072 134.6C67.072 139.4 63.304 143.24 58.552 143.24ZM58.504 140.6C61.888 140.6 64.24 138.128 64.24 134.576C64.24 131.072 61.864 128.6 58.504 128.6C55.144 128.6 52.792 131.048 52.792 134.576C52.792 138.128 55.144 140.6 58.504 140.6ZM74.2467 143.24C71.2947 143.24 69.2307 141.152 69.2307 138.176V131.48H71.8707V138.056C71.8707 139.736 72.7347 140.696 74.2467 140.696C75.7827 140.696 76.6227 139.76 76.6227 138.056V131.48H79.2627V138.176C79.2627 141.2 77.2227 143.24 74.2467 143.24ZM81.9171 143V131.48H84.5571V132.68C85.2051 131.768 86.2131 131.24 87.5571 131.24C88.7091 131.24 89.6211 131.648 90.4131 132.56L88.6851 134.336C88.2531 133.904 87.7731 133.712 87.1011 133.712C85.6131 133.712 84.5571 134.624 84.5571 136.592V143H81.9171ZM101.957 143.24C99.2931 143.24 97.5411 142.28 96.0771 140.408L97.9491 138.536C98.8851 139.88 100.061 140.672 102.053 140.672C103.901 140.672 105.101 139.856 105.101 138.512C105.101 134.576 97.1331 136.64 97.1331 130.64C97.1331 127.688 99.5331 125.96 102.629 125.96C104.837 125.96 106.613 126.92 107.717 128.264L105.845 130.136C104.885 129.056 103.901 128.528 102.557 128.528C100.877 128.528 99.8931 129.224 99.8931 130.448C99.8931 134 107.861 132.104 107.861 138.344C107.861 141.368 105.581 143.24 101.957 143.24ZM110.253 147.8V131.48H112.893V132.752C113.709 131.816 114.957 131.24 116.421 131.24C119.541 131.24 121.965 133.88 121.965 137.264C121.965 140.624 119.541 143.24 116.421 143.24C114.957 143.24 113.709 142.688 112.893 141.752V147.8H110.253ZM115.989 140.744C117.909 140.744 119.253 139.304 119.253 137.24C119.253 135.176 117.909 133.736 115.989 133.736C114.045 133.736 112.725 135.176 112.725 137.24C112.725 139.304 114.045 140.744 115.989 140.744ZM129.527 143.24C126.071 143.24 123.431 140.672 123.431 137.24C123.431 133.856 126.047 131.24 129.383 131.24C132.575 131.24 134.879 133.664 134.879 136.976C134.879 137.36 134.831 137.744 134.735 138.224H126.143C126.527 139.808 127.775 140.768 129.503 140.768C130.679 140.768 131.735 140.36 132.431 139.544L134.111 141.248C132.983 142.568 131.327 143.24 129.527 143.24ZM129.335 133.664C127.703 133.664 126.527 134.576 126.143 136.064H132.287C131.951 134.528 130.943 133.664 129.335 133.664ZM142.299 143.24C138.867 143.24 136.251 140.624 136.251 137.24C136.251 133.856 138.867 131.24 142.299 131.24C144.075 131.24 145.707 131.96 146.787 133.232L145.059 134.984C144.387 134.192 143.427 133.784 142.299 133.784C140.331 133.784 138.963 135.2 138.963 137.24C138.963 139.28 140.331 140.696 142.299 140.696C143.427 140.696 144.387 140.288 145.059 139.496L146.787 141.248C145.707 142.52 144.075 143.24 142.299 143.24ZM150.035 129.368C149.123 129.368 148.475 128.672 148.475 127.784C148.475 126.896 149.123 126.2 150.035 126.2C150.947 126.2 151.595 126.896 151.595 127.784C151.595 128.672 150.947 129.368 150.035 129.368ZM148.715 143V131.48H151.355V143H148.715ZM159.14 143.24C156.02 143.24 153.596 140.624 153.596 137.264C153.596 133.88 156.02 131.24 159.14 131.24C160.604 131.24 161.852 131.816 162.668 132.752V131.48H165.308V143H162.668V141.752C161.852 142.688 160.604 143.24 159.14 143.24ZM159.572 140.744C161.516 140.744 162.836 139.304 162.836 137.24C162.836 135.176 161.516 133.736 159.572 133.736C157.652 133.736 156.308 135.176 156.308 137.24C156.308 139.304 157.652 140.744 159.572 140.744ZM168.237 143V125.72H170.877V143H168.237ZM175.16 129.368C174.248 129.368 173.6 128.672 173.6 127.784C173.6 126.896 174.248 126.2 175.16 126.2C176.072 126.2 176.72 126.896 176.72 127.784C176.72 128.672 176.072 129.368 175.16 129.368ZM173.84 143V131.48H176.48V143H173.84ZM183.209 143.24C181.265 143.24 179.537 142.472 178.433 141.128L180.113 139.448C180.905 140.384 181.937 140.84 183.257 140.84C184.433 140.84 185.057 140.48 185.057 139.808C185.057 137.72 179.081 138.968 179.081 134.792C179.081 132.584 180.689 131.24 183.329 131.24C185.177 131.24 186.617 131.912 187.577 133.208L185.897 134.888C185.225 134.048 184.385 133.64 183.257 133.64C182.201 133.64 181.601 133.976 181.601 134.576C181.601 136.472 187.577 135.344 187.577 139.592C187.577 141.848 185.897 143.24 183.209 143.24ZM191.505 143V133.88H188.745V131.48H191.505V126.68H194.145V131.48H196.905V133.88H194.145V143H191.505ZM202.357 143.24C200.413 143.24 198.685 142.472 197.581 141.128L199.261 139.448C200.053 140.384 201.085 140.84 202.405 140.84C203.581 140.84 204.205 140.48 204.205 139.808C204.205 137.72 198.229 138.968 198.229 134.792C198.229 132.584 199.837 131.24 202.477 131.24C204.325 131.24 205.765 131.912 206.725 133.208L205.045 134.888C204.373 134.048 203.533 133.64 202.405 133.64C201.349 133.64 200.749 133.976 200.749 134.576C200.749 136.472 206.725 135.344 206.725 139.592C206.725 141.848 205.045 143.24 202.357 143.24ZM218.53 143.24C215.41 143.24 212.986 140.624 212.986 137.264C212.986 133.88 215.41 131.24 218.53 131.24C219.994 131.24 221.242 131.816 222.058 132.752V131.48H224.698V143H222.058V141.752C221.242 142.688 219.994 143.24 218.53 143.24ZM218.962 140.744C220.906 140.744 222.226 139.304 222.226 137.24C222.226 135.176 220.906 133.736 218.962 133.736C217.042 133.736 215.698 135.176 215.698 137.24C215.698 139.304 217.042 140.744 218.962 140.744ZM227.628 143V131.48H230.268V132.68C230.916 131.768 231.924 131.24 233.268 131.24C234.42 131.24 235.332 131.648 236.124 132.56L234.396 134.336C233.964 133.904 233.484 133.712 232.812 133.712C231.324 133.712 230.268 134.624 230.268 136.592V143H227.628ZM242.402 143.24C238.946 143.24 236.306 140.672 236.306 137.24C236.306 133.856 238.922 131.24 242.258 131.24C245.45 131.24 247.754 133.664 247.754 136.976C247.754 137.36 247.706 137.744 247.61 138.224H239.018C239.402 139.808 240.65 140.768 242.378 140.768C243.554 140.768 244.61 140.36 245.306 139.544L246.986 141.248C245.858 142.568 244.202 143.24 242.402 143.24ZM242.21 133.664C240.578 133.664 239.402 134.576 239.018 136.064H245.162C244.826 134.528 243.818 133.664 242.21 133.664ZM254.675 143V125.72H257.315V132.8C258.107 131.816 259.331 131.24 260.747 131.24C263.315 131.24 265.211 133.112 265.211 135.776V143H262.571V136.352C262.571 134.816 261.491 133.712 259.955 133.712C258.419 133.712 257.315 134.816 257.315 136.352V143H254.675ZM273.246 143.24C269.79 143.24 267.15 140.672 267.15 137.24C267.15 133.856 269.766 131.24 273.102 131.24C276.294 131.24 278.598 133.664 278.598 136.976C278.598 137.36 278.55 137.744 278.454 138.224H269.862C270.246 139.808 271.494 140.768 273.222 140.768C274.398 140.768 275.454 140.36 276.15 139.544L277.83 141.248C276.702 142.568 275.046 143.24 273.246 143.24ZM273.054 133.664C271.422 133.664 270.246 134.576 269.862 136.064H276.006C275.67 134.528 274.662 133.664 273.054 133.664ZM280.714 143V131.48H283.354V132.68C284.002 131.768 285.01 131.24 286.354 131.24C287.506 131.24 288.418 131.648 289.21 132.56L287.482 134.336C287.05 133.904 286.57 133.712 285.898 133.712C284.41 133.712 283.354 134.624 283.354 136.592V143H280.714ZM295.488 143.24C292.032 143.24 289.392 140.672 289.392 137.24C289.392 133.856 292.008 131.24 295.344 131.24C298.536 131.24 300.84 133.664 300.84 136.976C300.84 137.36 300.792 137.744 300.696 138.224H292.104C292.488 139.808 293.736 140.768 295.464 140.768C296.64 140.768 297.696 140.36 298.392 139.544L300.072 141.248C298.944 142.568 297.288 143.24 295.488 143.24ZM295.296 133.664C293.664 133.664 292.488 134.576 292.104 136.064H298.248C297.912 134.528 296.904 133.664 295.296 133.664ZM309.513 143V133.88H306.753V131.48H309.513V126.68H312.153V131.48H314.913V133.88H312.153V143H309.513ZM321.783 143.24C318.423 143.24 315.759 140.576 315.759 137.216C315.759 133.88 318.399 131.24 321.783 131.24C325.167 131.24 327.831 133.856 327.831 137.216C327.831 140.6 325.191 143.24 321.783 143.24ZM321.783 140.696C323.751 140.696 325.119 139.256 325.119 137.216C325.119 135.2 323.727 133.784 321.783 133.784C319.839 133.784 318.471 135.224 318.471 137.216C318.471 139.256 319.839 140.696 321.783 140.696ZM334.831 143V125.72H337.471V132.8C338.263 131.816 339.487 131.24 340.903 131.24C343.471 131.24 345.367 133.112 345.367 135.776V143H342.727V136.352C342.727 134.816 341.647 133.712 340.111 133.712C338.575 133.712 337.471 134.816 337.471 136.352V143H334.831ZM353.402 143.24C349.946 143.24 347.306 140.672 347.306 137.24C347.306 133.856 349.922 131.24 353.258 131.24C356.45 131.24 358.754 133.664 358.754 136.976C358.754 137.36 358.706 137.744 358.61 138.224H350.018C350.402 139.808 351.65 140.768 353.378 140.768C354.554 140.768 355.61 140.36 356.306 139.544L357.986 141.248C356.858 142.568 355.202 143.24 353.402 143.24ZM353.21 133.664C351.578 133.664 350.402 134.576 350.018 136.064H356.162C355.826 134.528 354.818 133.664 353.21 133.664ZM360.87 143V125.72H363.51V143H360.87ZM366.448 147.8V131.48H369.088V132.752C369.904 131.816 371.152 131.24 372.616 131.24C375.736 131.24 378.16 133.88 378.16 137.264C378.16 140.624 375.736 143.24 372.616 143.24C371.152 143.24 369.904 142.688 369.088 141.752V147.8H366.448ZM372.184 140.744C374.104 140.744 375.448 139.304 375.448 137.24C375.448 135.176 374.104 133.736 372.184 133.736C370.24 133.736 368.92 135.176 368.92 137.24C368.92 139.304 370.24 140.744 372.184 140.744ZM382.011 143.24C380.979 143.24 380.259 142.472 380.259 141.464C380.259 140.456 380.979 139.688 382.011 139.688C383.043 139.688 383.763 140.456 383.763 141.464C383.763 142.472 383.043 143.24 382.011 143.24Z" fill="white"/>
<path d="M255.35 312.442L159.509 255.745C153.319 252.121 143.426 252.147 137.379 255.871L77.9776 292.459C71.9301 296.183 72.0314 302.162 78.2044 305.814L87.4283 311.251L73.7277 319.686C71.0486 321.334 72.5117 324.133 76.2767 324.552L117.297 329.168C117.458 329.176 117.619 329.175 117.78 329.164L174.019 362.511C180.209 366.135 190.093 366.11 196.14 362.386L255.541 325.798C261.624 322.073 261.523 316.094 255.35 312.442Z" fill="url(#paint0_linear_1659_27458)"/>
<g filter="url(#filter1_b_1659_27458)">
<path d="M255.237 301.338L159.39 244.65C153.199 241.026 143.306 241.053 137.259 244.778L77.8625 281.371C71.8155 285.096 71.9175 291.075 78.0909 294.726L87.3154 300.162L73.6158 308.598C70.9369 310.246 72.4003 313.045 76.1654 313.464L117.186 318.077C117.347 318.085 117.508 318.083 117.669 318.073L173.912 351.415C180.102 355.038 189.986 355.012 196.033 351.287L255.43 314.694C261.512 310.969 261.41 304.989 255.237 301.338Z" fill="url(#paint1_linear_1659_27458)"/>
<path d="M78.0682 281.704L78.0682 281.704C75.1199 283.52 73.7467 285.835 73.7849 288.071C73.8231 290.308 75.2766 292.608 78.2886 294.39L78.0682 281.704ZM78.0682 281.704L137.465 245.111C140.414 243.295 144.324 242.368 148.274 242.349C152.223 242.33 156.171 243.218 159.192 244.986C159.192 244.987 159.193 244.987 159.193 244.987L255.039 301.674C258.051 303.456 259.504 305.756 259.539 307.993C259.573 310.229 258.192 312.544 255.225 314.36L255.224 314.361L195.828 350.954C192.879 352.77 188.971 353.697 185.023 353.716C181.076 353.735 177.131 352.846 174.109 351.078C174.109 351.078 174.109 351.078 174.108 351.078L117.868 317.737C117.8 317.697 117.722 317.678 117.643 317.683C117.501 317.692 117.358 317.693 117.215 317.687L76.2079 313.076L76.2075 313.076C74.3952 312.874 73.2381 312.11 72.8203 311.312C72.6163 310.922 72.5816 310.518 72.7223 310.129C72.8653 309.732 73.2048 309.311 73.8213 308.931L73.8214 308.931L87.5211 300.495C87.6376 300.423 87.7079 300.296 87.7063 300.159C87.7046 300.022 87.6314 299.895 87.5131 299.826L78.2892 294.39L78.0682 281.704Z" stroke="url(#paint2_linear_1659_27458)" stroke-width="0.781791" stroke-linejoin="round"/>
</g>
<g filter="url(#filter2_b_1659_27458)">
<path d="M291.496 229.631L371.364 276.879C376.511 279.923 376.592 284.902 371.557 288.011L322.06 318.491C317.016 321.601 308.758 321.65 303.611 318.642L295.926 314.111L284.519 321.057C282.285 322.435 278.377 321.75 277.75 319.863L270.687 299.306C270.663 299.228 270.648 299.149 270.641 299.067L223.769 271.33C218.622 268.285 218.541 263.307 223.576 260.197L273.082 229.717C278.1 226.635 286.358 226.587 291.496 229.631Z" fill="url(#paint3_linear_1659_27458)"/>
</g>
<g style="mix-blend-mode:multiply" filter="url(#filter3_f_1659_27458)">
<path d="M291.449 271.612L371.317 318.86C376.464 321.905 376.545 326.883 371.51 329.992L322.013 360.472C316.969 363.582 308.711 363.631 303.564 360.623L295.879 356.092L284.473 363.038C282.239 364.416 278.33 363.731 277.703 361.844L270.64 341.287C270.617 341.21 270.601 341.13 270.594 341.049L223.722 313.311C218.575 310.266 218.494 305.288 223.529 302.178L273.035 271.698C278.053 268.617 286.311 268.568 291.449 271.612Z" fill="url(#paint4_linear_1659_27458)"/>
</g>
<g filter="url(#filter4_b_1659_27458)">
<path d="M291.364 217.69L371.232 264.937C376.379 267.982 376.46 272.96 371.425 276.07L321.927 306.55C316.884 309.659 308.625 309.708 303.479 306.7L295.794 302.17L284.387 309.116C282.153 310.493 278.245 309.809 277.618 307.921L270.555 287.365C270.531 287.287 270.515 287.207 270.508 287.126L223.637 259.388C218.49 256.344 218.408 251.365 223.443 248.256L272.95 217.776C277.967 214.694 286.226 214.645 291.364 217.69Z" fill="url(#paint5_linear_1659_27458)"/>
<path d="M291.166 218.026L291.165 218.026C288.671 216.548 285.396 215.81 282.115 215.826C278.834 215.843 275.589 216.614 273.155 218.109L291.166 218.026ZM291.166 218.026L371.033 265.274C373.533 266.752 374.724 268.651 374.756 270.485C374.787 272.318 373.661 274.229 371.219 275.737L321.722 306.217L321.722 306.217M291.166 218.026L321.722 306.217M321.722 306.217C319.274 307.726 316.023 308.504 312.738 308.528M321.722 306.217L312.738 308.528M312.738 308.528C309.453 308.553 306.175 307.824 303.676 306.364L312.738 308.528ZM223.65 248.589L273.155 218.109L303.675 306.363L295.991 301.833L295.789 301.714L295.59 301.836L284.183 308.782L284.181 308.783C283.166 309.409 281.733 309.581 280.466 309.358C279.837 309.247 279.271 309.043 278.833 308.767C278.395 308.491 278.108 308.16 277.988 307.799L277.987 307.795L270.927 287.245C270.912 287.196 270.902 287.145 270.898 287.094L270.881 286.893L270.707 286.79L223.835 259.052L223.835 259.052C221.336 257.574 220.144 255.675 220.113 253.841C220.081 252.008 221.207 250.097 223.65 248.589Z" stroke="url(#paint6_linear_1659_27458)" stroke-width="0.781791"/>
</g>
<path d="M185.814 249.016L167.756 238.331C163.546 235.839 160.081 229.087 160.017 223.254L159.814 204.718C159.75 198.885 163.111 196.175 167.321 198.667L185.379 209.353C189.588 211.845 193.054 218.597 193.118 224.429L193.321 242.957C193.385 248.799 190.023 251.509 185.814 249.016Z" fill="url(#paint7_linear_1659_27458)"/>
<path d="M147.683 276.485C147.666 273.223 143.275 270.585 137.875 270.594C132.475 270.602 128.11 273.254 128.127 276.516C128.143 279.778 132.534 282.415 137.934 282.407C143.335 282.398 147.699 279.747 147.683 276.485Z" fill="#EDF0FF"/>
<path d="M176.118 293.31C176.101 290.048 171.71 287.41 166.31 287.419C160.91 287.427 156.545 290.078 156.562 293.34C156.578 296.602 160.969 299.24 166.369 299.231C171.77 299.223 176.134 296.572 176.118 293.31Z" fill="#EDF0FF"/>
<path d="M204.559 310.125C204.543 306.863 200.152 304.225 194.751 304.234C189.351 304.242 184.987 306.894 185.003 310.156C185.019 313.418 189.411 316.055 194.811 316.047C200.211 316.038 204.576 313.387 204.559 310.125Z" fill="#EDF0FF"/>
<g filter="url(#filter5_d_1659_27458)">
<path d="M311.881 262.641C312.074 262.556 312.236 262.409 312.344 262.222C312.452 262.035 312.502 261.817 312.485 261.598C312.232 260.213 311.72 256.828 312.485 255.306C313.574 253.128 314.954 251.125 316.584 249.356C317.672 248.428 323.056 246.722 318.488 243.544C313.919 240.366 303.096 245.204 300.478 249.993C299.873 250.117 290.157 243.895 287.424 242.273C284.691 240.651 279.896 240.819 277.016 242.588C274.136 244.357 275.883 246.575 275.883 246.575C274.523 246.886 273.214 247.405 271.999 248.113C270.254 249.211 271.456 251.379 271.456 251.379C270.343 251.737 269.275 252.229 268.274 252.847C266.59 253.89 267.931 255.992 267.931 255.992C266.723 256.343 265.551 256.817 264.432 257.408C263.237 258.143 263.275 260.072 266.406 261.93L281.282 270.728C282.078 271.199 288.131 273.529 290.716 274.518C291.059 274.642 291.423 274.693 291.785 274.666C292.147 274.64 292.5 274.536 292.823 274.363L311.881 262.641Z" fill="#EDF0FF"/>
<path d="M314.483 264.579L294.185 277.082C292.894 277.882 292.917 279.159 294.217 279.939L299.85 283.273C300.588 283.652 301.399 283.846 302.22 283.839C303.041 283.832 303.848 283.625 304.577 283.235L324.875 270.732C326.166 269.931 326.143 268.655 324.843 267.875L319.21 264.54C318.472 264.162 317.661 263.968 316.84 263.975C316.02 263.981 315.213 264.188 314.483 264.579ZM298.106 277.307C298.511 277.082 298.962 276.963 299.42 276.959C299.879 276.956 300.332 277.068 300.742 277.286C300.901 277.339 301.04 277.443 301.139 277.583C301.238 277.723 301.292 277.892 301.294 278.067C301.296 278.241 301.246 278.411 301.149 278.553C301.053 278.694 300.917 278.801 300.759 278.856C300.355 279.081 299.904 279.2 299.445 279.204C298.986 279.208 298.533 279.096 298.124 278.878C297.965 278.825 297.826 278.721 297.727 278.58C297.628 278.44 297.573 278.271 297.571 278.097C297.569 277.923 297.62 277.753 297.716 277.611C297.812 277.469 297.949 277.363 298.106 277.307Z" fill="#EDF0FF"/>
</g>
<g filter="url(#filter6_d_1659_27458)">
<path d="M173.941 225.794C173.463 224.952 173.453 224.031 173.918 223.76C174.384 223.489 175.149 223.929 175.619 224.771C176.547 226.401 178.076 226.929 178.68 226.561L182.617 224.172C182.991 223.945 183.136 223.53 183.059 222.907C182.919 222.097 182.631 221.322 182.211 220.625C181.539 219.447 180.25 217.864 179.442 218.358L177.42 219.583C176.955 219.867 176.19 219.414 175.72 218.572C175.25 217.73 175.232 216.809 175.698 216.538L177.719 215.313C179.527 214.216 182.255 216.703 183.904 219.602C184.743 221.079 185.293 222.619 185.452 223.91C185.648 225.496 185.258 226.67 184.354 227.22L180.417 229.608C179.698 230.046 178.577 229.951 177.424 229.355C176.084 228.661 174.863 227.397 173.941 225.794Z" fill="#EDF0FF"/>
<path d="M168.254 228.947C167.472 227.63 166.946 226.166 166.704 224.639C166.508 223.056 166.898 221.879 167.804 221.329L171.738 218.939C172.457 218.502 173.578 218.596 174.731 219.192C176.067 219.883 177.305 221.147 178.216 222.752C178.693 223.591 178.704 224.515 178.238 224.786C177.773 225.057 177.008 224.614 176.538 223.775C175.609 222.143 174.08 221.618 173.476 221.984L169.542 224.373C169.166 224.601 169.021 225.016 169.098 225.639C169.239 226.448 169.527 227.221 169.946 227.918C170.619 229.099 171.908 230.678 172.719 230.187L174.737 228.959C175.202 228.677 175.968 229.13 176.438 229.969C176.908 230.808 176.926 231.732 176.461 232.003L174.442 233.231C172.632 234.334 169.904 231.845 168.254 228.947Z" fill="#EDF0FF"/>
</g>
</g>
<defs>
<filter id="filter0_d_1659_27458" x="0" y="0" width="436" height="436" filterUnits="userSpaceOnUse" color-interpolation-filters="sRGB">
<feFlood flood-opacity="0" result="BackgroundImageFix"/>
<feColorMatrix in="SourceAlpha" type="matrix" values="0 0 0 0 0 0 0 0 0 0 0 0 0 0 0 0 0 0 127 0" result="hardAlpha"/>
<feOffset dx="1" dy="1"/>
<feGaussianBlur stdDeviation="9"/>
<feComposite in2="hardAlpha" operator="out"/>
<feColorMatrix type="matrix" values="0 0 0 0 0 0 0 0 0 0 0 0 0 0 0 0 0 0 0.1 0"/>
<feBlend mode="normal" in2="BackgroundImageFix" result="effect1_dropShadow_1659_27458"/>
<feBlend mode="normal" in="SourceGraphic" in2="effect1_dropShadow_1659_27458" result="shape"/>
</filter>
<filter id="filter1_b_1659_27458" x="61.8224" y="231.534" width="208.531" height="132.997" filterUnits="userSpaceOnUse" color-interpolation-filters="sRGB">
<feFlood flood-opacity="0" result="BackgroundImageFix"/>
<feGaussianBlur in="BackgroundImageFix" stdDeviation="5.21194"/>
<feComposite in2="SourceAlpha" operator="in" result="effect1_backgroundBlur_1659_27458"/>
<feBlend mode="normal" in="SourceGraphic" in2="effect1_backgroundBlur_1659_27458" result="shape"/>
</filter>
<filter id="filter2_b_1659_27458" x="213.499" y="221.022" width="168.136" height="107.116" filterUnits="userSpaceOnUse" color-interpolation-filters="sRGB">
<feFlood flood-opacity="0" result="BackgroundImageFix"/>
<feGaussianBlur in="BackgroundImageFix" stdDeviation="3.17742"/>
<feComposite in2="SourceAlpha" operator="in" result="effect1_backgroundBlur_1659_27458"/>
<feBlend mode="normal" in="SourceGraphic" in2="effect1_backgroundBlur_1659_27458" result="shape"/>
</filter>
<filter id="filter3_f_1659_27458" x="204.171" y="253.722" width="186.698" height="125.678" filterUnits="userSpaceOnUse" color-interpolation-filters="sRGB">
<feFlood flood-opacity="0" result="BackgroundImageFix"/>
<feBlend mode="normal" in="SourceGraphic" in2="BackgroundImageFix" result="shape"/>
<feGaussianBlur stdDeviation="7.81791" result="effect1_foregroundBlur_1659_27458"/>
</filter>
<filter id="filter4_b_1659_27458" x="209.297" y="205.011" width="176.274" height="115.255" filterUnits="userSpaceOnUse" color-interpolation-filters="sRGB">
<feFlood flood-opacity="0" result="BackgroundImageFix"/>
<feGaussianBlur in="BackgroundImageFix" stdDeviation="5.21194"/>
<feComposite in2="SourceAlpha" operator="in" result="effect1_backgroundBlur_1659_27458"/>
<feBlend mode="normal" in="SourceGraphic" in2="effect1_backgroundBlur_1659_27458" result="shape"/>
</filter>
<filter id="filter5_d_1659_27458" x="253.282" y="236.983" width="82.973" height="63.5345" filterUnits="userSpaceOnUse" color-interpolation-filters="sRGB">
<feFlood flood-opacity="0" result="BackgroundImageFix"/>
<feColorMatrix in="SourceAlpha" type="matrix" values="0 0 0 0 0 0 0 0 0 0 0 0 0 0 0 0 0 0 127 0" result="hardAlpha"/>
<feOffset dy="6.25433"/>
<feGaussianBlur stdDeviation="5.21194"/>
<feComposite in2="hardAlpha" operator="out"/>
<feColorMatrix type="matrix" values="0 0 0 0 0.525 0 0 0 0 0.656538 0 0 0 0 1 0 0 0 1 0"/>
<feBlend mode="normal" in2="BackgroundImageFix" result="effect1_dropShadow_1659_27458"/>
<feBlend mode="normal" in="SourceGraphic" in2="effect1_dropShadow_1659_27458" result="shape"/>
</filter>
<filter id="filter6_d_1659_27458" x="151.019" y="202.54" width="50.1186" height="49.7212" filterUnits="userSpaceOnUse" color-interpolation-filters="sRGB">
<feFlood flood-opacity="0" result="BackgroundImageFix"/>
<feColorMatrix in="SourceAlpha" type="matrix" values="0 0 0 0 0 0 0 0 0 0 0 0 0 0 0 0 0 0 127 0" result="hardAlpha"/>
<feOffset dy="3.12716"/>
<feGaussianBlur stdDeviation="7.81791"/>
<feComposite in2="hardAlpha" operator="out"/>
<feColorMatrix type="matrix" values="0 0 0 0 0 0 0 0 0 0.360784 0 0 0 0 0.85098 0 0 0 0.8 0"/>
<feBlend mode="normal" in2="BackgroundImageFix" result="effect1_dropShadow_1659_27458"/>
<feBlend mode="normal" in="SourceGraphic" in2="effect1_dropShadow_1659_27458" result="shape"/>
</filter>
<linearGradient id="paint0_linear_1659_27458" x1="66.981" y1="423.58" x2="152.861" y2="256.134" gradientUnits="userSpaceOnUse">
<stop stop-color="#000F31"/>
<stop offset="1" stop-color="#004AB1"/>
</linearGradient>
<linearGradient id="paint1_linear_1659_27458" x1="147.395" y1="234.616" x2="182.925" y2="366.435" gradientUnits="userSpaceOnUse">
<stop stop-color="white"/>
<stop offset="1" stop-color="white" stop-opacity="0"/>
</linearGradient>
<linearGradient id="paint2_linear_1659_27458" x1="214.423" y1="414.577" x2="111.786" y2="183.362" gradientUnits="userSpaceOnUse">
<stop stop-color="white" stop-opacity="0.22"/>
<stop offset="1" stop-color="white" stop-opacity="0"/>
</linearGradient>
<linearGradient id="paint3_linear_1659_27458" x1="239.498" y1="254.83" x2="402.164" y2="294.067" gradientUnits="userSpaceOnUse">
<stop offset="0.00520833" stop-color="#006DFF" stop-opacity="0.67"/>
<stop offset="1" stop-color="#86A7FF"/>
</linearGradient>
<linearGradient id="paint4_linear_1659_27458" x1="272.861" y1="258.869" x2="307.024" y2="397.675" gradientUnits="userSpaceOnUse">
<stop stop-color="#094EFF"/>
<stop offset="1" stop-color="white" stop-opacity="0.03"/>
</linearGradient>
<linearGradient id="paint5_linear_1659_27458" x1="272.776" y1="204.947" x2="306.939" y2="343.753" gradientUnits="userSpaceOnUse">
<stop stop-color="white"/>
<stop offset="1" stop-color="white" stop-opacity="0.03"/>
</linearGradient>
<linearGradient id="paint6_linear_1659_27458" x1="257.265" y1="182.406" x2="318.743" y2="345.576" gradientUnits="userSpaceOnUse">
<stop stop-color="white" stop-opacity="0.62"/>
<stop offset="1" stop-color="white" stop-opacity="0"/>
</linearGradient>
<linearGradient id="paint7_linear_1659_27458" x1="160.811" y1="189.812" x2="232.94" y2="232.815" gradientUnits="userSpaceOnUse">
<stop stop-color="#005CD9"/>
<stop offset="1" stop-color="#004AB1"/>
</linearGradient>
</defs>
</svg>
