<svg width="141" height="45" viewBox="0 0 141 45" fill="none" xmlns="http://www.w3.org/2000/svg">
<g clip-path="url(#clip0_1659_27971)">
<path d="M20.6857 17.0196L20.0565 21.4971L30.9666 21.3067C30.3288 23.7887 29.1921 25.7092 27.6663 26.9713C25.9073 28.5225 23.156 30.2811 18.8113 30.3569C12.1494 30.4732 7.68548 25.2293 8.60931 18.6559C9.53314 12.0825 15.4 6.65824 22.1585 6.54027C25.7309 6.47792 28.2334 7.85973 29.91 9.63609L33.538 6.43668C31.1961 3.91167 27.8084 1.97511 22.7878 2.06274C13.6156 2.22284 4.86067 9.6932 3.58873 18.7435C2.31679 27.7939 9.00982 34.9946 18.182 34.8345C23.1061 34.7485 27.0991 33.0633 30.4106 30.0594C33.8187 27.0539 35.3733 22.8453 35.8419 19.511C35.9892 18.4631 36.0266 17.5121 36.0371 16.7516L20.6857 17.0196Z" fill="#4285F4"/>
<path d="M50.269 12.7966C44.3795 12.8994 38.8262 17.4629 37.9693 23.56C37.1124 29.657 41.3106 34.0503 47.2967 33.9458C53.2827 33.8413 58.7261 29.3748 59.583 23.2777C60.4533 17.0854 56.2551 12.6921 50.269 12.7966ZM47.8724 29.8493C44.5897 29.9066 42.1647 27.288 42.6868 23.5726C43.2224 19.762 46.3838 17.1409 49.6665 17.0836C52.9492 17.0263 55.3876 19.5496 54.8521 23.3603C54.3299 27.0757 51.1551 29.792 47.8724 29.8493Z" fill="#EA4335"/>
<path d="M102.747 14.2567L102.554 14.26C101.666 13.0401 99.7994 11.9323 97.1926 11.9778C91.7858 12.0722 86.5088 16.7259 85.6653 22.7277C84.8352 28.6342 88.8135 33.2214 94.2203 33.127C96.8271 33.0815 99.0153 31.9029 100.251 30.6459L100.445 30.6425L100.23 32.1668C99.668 36.168 97.1394 38.3979 93.6636 38.4586C90.7671 38.5091 89.3104 36.5389 88.7924 34.7423L84.4963 36.5279C85.2666 39.2704 87.9574 42.7396 93.171 42.6486C98.6744 42.5526 103.861 39.2309 104.958 31.419L107.636 12.3657L103.195 12.4432L102.941 14.2533L102.747 14.2567ZM95.2788 29.0221C91.9961 29.0794 89.9706 26.3588 90.4794 22.7387C91.0016 19.0233 93.8867 16.312 97.0729 16.2564C100.259 16.2008 102.381 18.9197 101.859 22.6351C101.447 26.2535 98.5614 28.9648 95.2788 29.0221Z" fill="#4285F4"/>
<path d="M74.31 12.3772C68.4205 12.48 62.8672 17.0435 62.0103 23.1405C61.1534 29.2376 65.3516 33.6309 71.3377 33.5264C77.3238 33.4219 82.7671 28.9553 83.624 22.8583C84.4943 16.6659 80.2961 12.2727 74.31 12.3772ZM71.9134 29.4299C68.6307 29.4872 66.2057 26.8686 66.7279 23.1532C67.2634 19.3425 70.4249 16.7215 73.7075 16.6642C76.9902 16.6069 79.4287 19.1302 78.8931 22.9409C78.3709 26.6563 75.1961 29.3726 71.9134 29.4299Z" fill="#FBBC05"/>
<path d="M112.801 0.966797L117.436 0.885904L112.937 32.8955L108.303 32.9764L112.801 0.966797Z" fill="#34A853"/>
<path d="M127.815 28.454C125.402 28.4962 123.908 27.4769 123.057 25.306L138.26 19.2436L137.951 18.0135C137.417 15.647 135.233 11.3137 129.729 11.4097C124.226 11.5058 118.989 15.8737 118.105 22.1613C117.275 28.0678 121.157 32.6567 127.24 32.5505C132.164 32.4645 135.379 29.4624 136.875 27.7257L133.541 25.4081C132.031 27.24 130.229 28.4119 127.815 28.454ZM129.36 15.4075C131.291 15.3738 132.799 16.2979 133.094 17.6232L122.877 21.7929C123.396 17.4123 126.946 15.4497 129.36 15.4075Z" fill="#EA4335"/>
</g>
<defs>
<clipPath id="clip0_1659_27971">
<rect width="135.093" height="42.3293" fill="white" transform="matrix(0.999848 -0.0174524 -0.139173 0.990268 5.89111 2.35767)"/>
</clipPath>
</defs>
</svg>
