<svg width="38" height="24" viewBox="0 0 38 24" fill="none" xmlns="http://www.w3.org/2000/svg">
<path d="M17 21V19C17 17.9391 16.5786 16.9217 15.8284 16.1716C15.0783 15.4214 14.0609 15 13 15H5C3.93913 15 2.92172 15.4214 2.17157 16.1716C1.42143 16.9217 1 17.9391 1 19V21" stroke="white" stroke-width="2" stroke-linecap="round" stroke-linejoin="round"/>
<path d="M9 11C11.2091 11 13 9.20914 13 7C13 4.79086 11.2091 3 9 3C6.79086 3 5 4.79086 5 7C5 9.20914 6.79086 11 9 11Z" stroke="white" stroke-width="2" stroke-linecap="round" stroke-linejoin="round"/>
<path d="M23 20.9999V18.9999C22.9993 18.1136 22.7044 17.2527 22.1614 16.5522C21.6184 15.8517 20.8581 15.3515 20 15.1299" stroke="white" stroke-width="2" stroke-linecap="round" stroke-linejoin="round"/>
<path d="M16 3.12988C16.8604 3.35018 17.623 3.85058 18.1676 4.55219C18.7122 5.2538 19.0078 6.11671 19.0078 7.00488C19.0078 7.89305 18.7122 8.75596 18.1676 9.45757C17.623 10.1592 16.8604 10.6596 16 10.8799" stroke="white" stroke-width="2" stroke-linecap="round" stroke-linejoin="round"/>
<path d="M31.1998 17.2082C30.8958 17.2082 30.6638 17.1282 30.5038 16.9682C30.3598 16.7922 30.2878 16.5602 30.2878 16.2722V12.0002H26.0878C25.7998 12.0002 25.5758 11.9282 25.4158 11.7842C25.2558 11.6242 25.1758 11.4002 25.1758 11.1122C25.1758 10.8242 25.2558 10.6082 25.4158 10.4642C25.5758 10.3042 25.7998 10.2242 26.0878 10.2242H30.2878V6.07216C30.2878 5.78416 30.3598 5.56016 30.5038 5.40016C30.6638 5.24016 30.9038 5.16016 31.2238 5.16016C31.5118 5.16016 31.7278 5.24016 31.8718 5.40016C32.0318 5.56016 32.1118 5.78416 32.1118 6.07216V10.2242H36.3118C36.6158 10.2242 36.8398 10.3042 36.9838 10.4642C37.1438 10.6082 37.2238 10.8242 37.2238 11.1122C37.2238 11.4002 37.1438 11.6242 36.9838 11.7842C36.8398 11.9282 36.6158 12.0002 36.3118 12.0002H32.1118V16.2722C32.1118 16.5602 32.0318 16.7922 31.8718 16.9682C31.7278 17.1282 31.5038 17.2082 31.1998 17.2082Z" fill="white"/>
</svg>
