<svg width="52" height="52" viewBox="0 0 52 52" fill="none" xmlns="http://www.w3.org/2000/svg">
<path fill-rule="evenodd" clip-rule="evenodd" d="M26 4.875C26.8975 4.875 27.625 5.60254 27.625 6.5V8.66669H32.5C36.0899 8.66669 39 11.5768 39 15.1667V30.3334C39 32.2747 38.1489 34.0173 36.7994 35.2084H41.1672C42.0647 35.2084 42.7922 35.9359 42.7922 36.8334C42.7922 37.7308 42.0647 38.4584 41.1672 38.4584H36.7485L38.4103 45.1058C38.628 45.9765 38.0986 46.8588 37.228 47.0764C36.3573 47.2941 35.475 46.7647 35.2574 45.8941L33.3985 38.4584H18.6015L16.7426 45.8941C16.525 46.7647 15.6427 47.2941 14.772 47.0764C13.9014 46.8588 13.372 45.9765 13.5897 45.1058L15.2515 38.4584H10.8339C9.9364 38.4584 9.20886 37.7308 9.20886 36.8334C9.20886 35.9359 9.9364 35.2084 10.8339 35.2084H15.2006C13.8511 34.0173 13 32.2747 13 30.3334V15.1667C13 11.5768 15.9101 8.66669 19.5 8.66669H24.375V6.5C24.375 5.60254 25.1025 4.875 26 4.875Z" fill="url(#paint0_linear_1659_27311)"/>
<path d="M32.5003 24.9167C28.3775 22.1775 21.667 24.9167 22.7503 28.1667C24.2824 32.7629 31.7385 26.9175 29.2503 22.7501C26.7622 18.5826 20.7455 22.748 20.5837 20.5834C20.4542 18.8517 26.3557 17.256 28.167 16.25" stroke="white" stroke-width="3.25" stroke-linecap="round"/>
<defs>
<linearGradient id="paint0_linear_1659_27311" x1="37" y1="-7" x2="26.0005" y2="47.1253" gradientUnits="userSpaceOnUse">
<stop stop-color="#9600ED"/>
<stop offset="1" stop-color="#006BFF"/>
</linearGradient>
</defs>
</svg>
