<svg width="52" height="52" viewBox="0 0 52 52" fill="none" xmlns="http://www.w3.org/2000/svg">
<path fill-rule="evenodd" clip-rule="evenodd" d="M15.1309 22.6892C15.7815 20.9556 17.7226 19.9322 19.8425 20.6388C20.4101 20.828 20.7169 21.4415 20.5277 22.0091C20.3385 22.5767 19.725 22.8835 19.1574 22.6943C18.0776 22.3344 17.3519 22.8697 17.1423 23.4987C16.953 24.0667 17.0724 25.1999 18.9011 26.1142C20.868 27.0977 23.2515 26.1032 24.2791 24.1631C24.7719 23.2326 24.9228 22.1152 24.52 20.945C24.114 19.7657 23.1074 18.4279 21.0925 17.1686C19.5571 16.209 18.3553 15.5287 17.2559 14.9064L17.2559 14.9064C14.927 13.5882 13.0582 12.5304 9.45405 9.6296C9.20296 9.4275 8.9076 9.33565 8.67933 9.34104C8.47645 9.34584 8.36618 9.41751 8.29253 9.53386C7.49317 10.7966 7.61261 12.4474 8.64546 13.9821C9.67458 15.5112 11.562 16.811 14.0098 17.1631C14.602 17.2482 15.013 17.7974 14.9279 18.3896C14.8427 18.9818 14.2936 19.3928 13.7013 19.3077C11.4507 18.984 9.52679 18.0053 8.11881 16.6812C7.62496 18.1379 7.74035 19.3398 8.16331 20.2704C8.6935 21.4368 9.78136 22.3406 11.1759 22.8055C12.1322 23.1243 13.0461 23.1274 13.7324 23.0449C14.0733 23.0039 14.35 22.9427 14.5362 22.8935C14.6291 22.869 14.6986 22.8477 14.7413 22.8339C14.7627 22.827 14.7773 22.8219 14.7848 22.8193L14.7894 22.8177L15.1309 22.6892ZM8.31149 24.4025L7.15955 26.9943C5.39761 30.9587 7.04501 35.6419 10.9129 37.6158C18.4628 41.4688 27.5505 45.7145 38.3375 46.5797C41.6802 46.8478 44.2252 45.5189 45.6707 43.3451C47.0891 41.212 47.3675 38.3904 46.4935 35.7684C46.2357 34.9952 45.6997 34.3129 45.0929 33.7294C44.4759 33.1361 43.7165 32.5795 42.9097 32.0692C42.0368 31.5172 41.077 31 40.1249 30.5334L37.1434 35.5026C36.6816 36.2721 35.6835 36.5217 34.9139 36.06C34.1443 35.5982 33.8948 34.6 34.3565 33.8305L37.158 29.1613C36.6321 28.8666 36.1581 28.501 35.7516 28.0797L31.3484 31.6022C30.6476 32.1629 29.625 32.0492 29.0644 31.3484C28.5037 30.6476 28.6173 29.625 29.3181 29.0644L34.2588 25.1119L34.2529 25.0721C33.8137 21.9972 31.4927 19.5282 28.4508 18.8999L26.3075 18.4572C26.6351 18.9797 26.8925 19.5164 27.0809 20.0635C27.7435 21.9885 27.4926 23.8823 26.6724 25.4308C25.0948 28.4092 21.2222 30.3028 17.6899 28.5367C16.2322 27.8078 15.22 26.7741 14.7194 25.6288C14.5218 25.6678 14.2994 25.7046 14.0558 25.7338C13.0951 25.8494 11.7575 25.8542 10.3194 25.3748C9.61233 25.1391 8.93318 24.8139 8.31149 24.4025Z" fill="#006DFF"/>
</svg>
