<svg width="52" height="52" viewBox="0 0 52 52" fill="none" xmlns="http://www.w3.org/2000/svg">
<path fill-rule="evenodd" clip-rule="evenodd" d="M13.3737 18.2189C13.3737 13.5931 17.1237 9.84314 21.7495 9.84314H29.6325C34.2583 9.84314 38.0082 13.5931 38.0082 18.2189V24.1554C35.518 24.4021 33.5729 26.5029 33.5729 29.0581V34.9704C33.5729 37.4802 35.4496 39.5517 37.8762 39.8582C37.4649 41.3028 36.1354 42.3607 34.5589 42.3607H28.9653C28.6179 42.0541 28.1616 41.868 27.6617 41.868H25.691C24.6026 41.868 23.7202 42.7504 23.7202 43.8388C23.7202 44.9272 24.6026 45.8096 25.691 45.8096H27.6617C28.1616 45.8096 28.6179 45.6235 28.9653 45.3169H34.5589C37.9853 45.3169 40.7833 42.6263 40.9554 39.2427C42.4324 38.3919 43.4267 36.7972 43.4267 34.9704V29.0581C43.4267 27.2349 42.4364 25.643 40.9644 24.7909V18.2189C40.9644 11.9605 35.8909 6.887 29.6325 6.887H21.7495C15.491 6.887 10.4176 11.9605 10.4176 18.2189V24.79C8.94461 25.6418 7.95357 27.2342 7.95357 29.0581V34.9704C7.95357 37.6914 10.1594 39.8973 12.8805 39.8973C15.6015 39.8973 17.8074 37.6914 17.8074 34.9704V29.0581C17.8074 26.5035 15.8632 24.403 13.3737 24.1555V18.2189Z" fill="#006DFF"/>
</svg>
