<svg width="74" height="26" viewBox="0 0 74 26" fill="none" xmlns="http://www.w3.org/2000/svg">
<path d="M5.21624 25.473C4.69461 25.2973 4.17299 24.946 3.82524 24.2432C3.47749 23.8919 3.12974 23.3649 2.60812 22.6622C1.91262 21.6081 1.21712 20.2027 0.695498 18.7973C0.173875 17.2162 0 15.6351 0 14.0541C0 12.2973 0.347749 10.8919 1.04325 9.66216C1.56487 8.60811 2.43424 7.90541 3.30362 7.2027C4.17299 6.67568 5.21624 6.32433 6.25948 6.32433C6.60723 6.32433 6.95498 6.32433 7.47661 6.5C7.82435 6.5 8.1721 6.67568 8.69373 6.85135C9.21535 7.02703 9.5631 7.2027 9.73697 7.2027C10.0847 7.37838 10.4325 7.37838 10.6063 7.37838C10.7802 7.37838 10.9541 7.37838 11.3018 7.2027C11.4757 7.2027 11.8235 7.02703 12.1712 6.85135C12.519 6.67568 12.8667 6.5 13.2145 6.5C13.5622 6.5 13.91 6.32433 14.2577 6.32433C14.6055 6.32433 15.1271 6.14865 15.4748 6.32433C16.1703 6.32433 16.8658 6.5 17.5613 6.85135C18.6046 7.2027 19.4739 8.08108 20.1694 8.95946C19.9956 8.95946 19.6478 9.13514 19.4739 9.48649C18.9523 10.0135 18.4307 10.5405 18.083 11.0676C17.7352 11.9459 17.3875 12.8243 17.3875 13.8784C17.3875 15.1081 17.7352 16.1622 18.2568 17.0405C18.6046 17.7432 19.3001 18.2703 19.8217 18.6216C20.3433 18.7973 20.6911 18.973 20.8649 19.1487C20.8649 19.5 20.6911 20.027 20.5172 20.2027C20.1694 21.2568 19.6478 21.9595 19.1262 22.8378C18.6046 23.5405 18.2568 24.0676 18.083 24.2432C17.5613 24.7703 17.2136 25.2973 16.692 25.473C16.3442 25.8243 15.8226 26 15.1271 26C14.7793 26 14.4316 26 14.0838 25.8243C13.91 25.8243 13.5622 25.6487 13.2145 25.473C12.6928 25.2973 12.519 25.1216 12.1712 25.1216C11.8235 24.946 11.3018 24.946 10.9541 24.946C10.6063 24.946 10.0847 24.946 9.73697 25.1216C9.38923 25.1216 9.04148 25.2973 8.69373 25.473C8.1721 25.6487 7.99823 25.8243 7.82435 25.8243C7.4766 26 7.12886 26 6.78111 26C6.25948 26 5.73786 25.8243 5.21624 25.473ZM12.519 5.44595C11.8235 5.7973 11.128 5.97297 10.4325 5.97297C10.2586 5.27027 10.4325 4.56757 10.7802 3.68919C11.128 2.98649 11.3018 2.45946 11.8235 1.93243C12.3451 1.40541 12.8667 0.878379 13.5622 0.527027C14.2577 0.175676 14.9532 0 15.6487 0C15.6487 0.702703 15.4748 1.40541 15.301 2.28378C15.1271 2.98649 14.6055 3.51351 14.2577 4.04054C13.7361 4.74324 13.2145 5.0946 12.519 5.44595Z" fill="#006DFF"/>
<path d="M63.5622 17.7633C63.2607 17.7634 62.9659 17.673 62.7152 17.5035C62.4644 17.334 62.269 17.093 62.1535 16.8111C62.0381 16.5292 62.0078 16.219 62.0666 15.9197C62.1254 15.6204 62.2705 15.3454 62.4837 15.1296C62.6969 14.9138 62.9685 14.7668 63.2642 14.7072C63.5599 14.6476 63.8664 14.6781 64.145 14.7948C64.4236 14.9115 64.6618 15.1092 64.8293 15.363C64.9969 15.6167 65.0864 15.9149 65.0864 16.2201C65.086 16.6292 64.9252 17.0213 64.6395 17.3106C64.3538 17.5999 63.9663 17.7627 63.5622 17.7633ZM46.7129 17.7633C46.4114 17.7634 46.1166 17.673 45.8659 17.5035C45.6152 17.334 45.4197 17.093 45.3043 16.8111C45.1888 16.5292 45.1586 16.219 45.2174 15.9197C45.2761 15.6204 45.4213 15.3454 45.6344 15.1296C45.8476 14.9138 46.1192 14.7668 46.4149 14.7072C46.7107 14.6476 47.0172 14.6781 47.2958 14.7948C47.5744 14.9115 47.8125 15.1092 47.9801 15.363C48.1476 15.6167 48.2371 15.9149 48.2372 16.2201C48.2368 16.6292 48.0761 17.0214 47.7903 17.3107C47.5046 17.6 47.1171 17.7628 46.7129 17.7633ZM64.1088 8.46994L67.1553 3.12968C67.197 3.05674 67.224 2.97621 67.2349 2.89268C67.2458 2.80915 67.2404 2.72426 67.2189 2.64287C67.1974 2.56147 67.1603 2.48516 67.1096 2.41828C67.059 2.35141 66.9958 2.29528 66.9238 2.25311C66.8517 2.21094 66.7721 2.18355 66.6896 2.17251C66.607 2.16146 66.5232 2.16698 66.4428 2.18874C66.3623 2.2105 66.2869 2.24807 66.2208 2.29933C66.1548 2.35058 66.0993 2.4145 66.0577 2.48745L62.9727 7.89515C60.6137 6.80547 57.9642 6.1987 55.1373 6.1987C52.3103 6.1987 49.6611 6.80634 47.3021 7.89515L44.2175 2.48745C44.1759 2.41448 44.1205 2.35053 44.0544 2.29924C43.9884 2.24795 43.913 2.21032 43.8326 2.18851C43.7522 2.16669 43.6684 2.16112 43.5858 2.1721C43.5033 2.18309 43.4237 2.21042 43.3516 2.25253C43.2796 2.29464 43.2164 2.35072 43.1657 2.41754C43.115 2.48437 43.0778 2.56065 43.0563 2.64202C43.0347 2.72339 43.0292 2.80826 43.0401 2.89178C43.0509 2.97531 43.0779 3.05585 43.1195 3.12881L46.1663 8.46994C40.9349 11.3497 37.3567 16.7097 36.8333 23.0425H73.4418C72.9178 16.7097 69.3399 11.3497 64.1088 8.46994Z" fill="#006DFF"/>
</svg>
