<svg width="263" height="179" viewBox="0 0 263 179" fill="none" xmlns="http://www.w3.org/2000/svg">
<g filter="url(#filter0_ddddd_1659_24160)">
<rect x="34" y="7" width="195" height="55" rx="8" fill="white"/>
<path d="M70.4534 40.128C70.1974 40.128 69.9894 40.0693 69.8294 39.952C69.68 39.8347 69.5894 39.68 69.5574 39.488C69.5254 39.2853 69.5627 39.0613 69.6694 38.816L73.8934 29.456C74.032 29.1467 74.1974 28.928 74.3894 28.8C74.592 28.6613 74.8214 28.592 75.0774 28.592C75.3227 28.592 75.5414 28.6613 75.7334 28.8C75.936 28.928 76.1067 29.1467 76.2454 29.456L80.4854 38.816C80.6027 39.0613 80.6454 39.2853 80.6134 39.488C80.5814 39.6907 80.4907 39.8507 80.3414 39.968C80.192 40.0747 79.9947 40.128 79.7494 40.128C79.4507 40.128 79.216 40.0587 79.0454 39.92C78.8854 39.7707 78.7414 39.5467 78.6134 39.248L77.5734 36.832L78.4374 37.392H71.6854L72.5494 36.832L71.5254 39.248C71.3867 39.5573 71.2427 39.7813 71.0934 39.92C70.944 40.0587 70.7307 40.128 70.4534 40.128ZM75.0454 30.944L72.8054 36.272L72.3894 35.76H77.7334L77.3334 36.272L75.0774 30.944H75.0454ZM84.9855 40.16C84.3028 40.16 83.7002 39.9947 83.1775 39.664C82.6655 39.3333 82.2655 38.864 81.9775 38.256C81.6895 37.6373 81.5455 36.912 81.5455 36.08C81.5455 35.2373 81.6895 34.5173 81.9775 33.92C82.2655 33.312 82.6655 32.8427 83.1775 32.512C83.7002 32.1813 84.3028 32.016 84.9855 32.016C85.6362 32.016 86.2015 32.176 86.6815 32.496C87.1722 32.816 87.5028 33.2373 87.6735 33.76H87.4975V29.6C87.4975 29.2693 87.5828 29.0187 87.7535 28.848C87.9242 28.6773 88.1695 28.592 88.4895 28.592C88.8095 28.592 89.0548 28.6773 89.2255 28.848C89.4068 29.0187 89.4975 29.2693 89.4975 29.6V39.104C89.4975 39.4347 89.4122 39.6907 89.2415 39.872C89.0708 40.0427 88.8255 40.128 88.5055 40.128C88.1855 40.128 87.9402 40.0427 87.7695 39.872C87.5988 39.6907 87.5135 39.4347 87.5135 39.104V37.856L87.6895 38.336C87.5295 38.8907 87.2042 39.3333 86.7135 39.664C86.2228 39.9947 85.6468 40.16 84.9855 40.16ZM85.5455 38.64C85.9402 38.64 86.2868 38.544 86.5855 38.352C86.8842 38.16 87.1135 37.8773 87.2735 37.504C87.4442 37.12 87.5295 36.6453 87.5295 36.08C87.5295 35.2267 87.3482 34.592 86.9855 34.176C86.6228 33.7493 86.1428 33.536 85.5455 33.536C85.1508 33.536 84.8042 33.632 84.5055 33.824C84.2068 34.0053 83.9722 34.288 83.8015 34.672C83.6415 35.0453 83.5615 35.5147 83.5615 36.08C83.5615 36.9227 83.7428 37.5627 84.1055 38C84.4682 38.4267 84.9482 38.64 85.5455 38.64ZM94.5793 40.16C93.8966 40.16 93.2939 39.9947 92.7713 39.664C92.2593 39.3333 91.8593 38.864 91.5713 38.256C91.2833 37.6373 91.1393 36.912 91.1393 36.08C91.1393 35.2373 91.2833 34.5173 91.5713 33.92C91.8593 33.312 92.2593 32.8427 92.7713 32.512C93.2939 32.1813 93.8966 32.016 94.5793 32.016C95.2299 32.016 95.7953 32.176 96.2753 32.496C96.7659 32.816 97.0966 33.2373 97.2673 33.76H97.0913V29.6C97.0913 29.2693 97.1766 29.0187 97.3473 28.848C97.5179 28.6773 97.7633 28.592 98.0833 28.592C98.4033 28.592 98.6486 28.6773 98.8193 28.848C99.0006 29.0187 99.0913 29.2693 99.0913 29.6V39.104C99.0913 39.4347 99.0059 39.6907 98.8353 39.872C98.6646 40.0427 98.4193 40.128 98.0993 40.128C97.7793 40.128 97.5339 40.0427 97.3633 39.872C97.1926 39.6907 97.1073 39.4347 97.1073 39.104V37.856L97.2833 38.336C97.1233 38.8907 96.7979 39.3333 96.3073 39.664C95.8166 39.9947 95.2406 40.16 94.5793 40.16ZM95.1393 38.64C95.5339 38.64 95.8806 38.544 96.1793 38.352C96.4779 38.16 96.7073 37.8773 96.8673 37.504C97.0379 37.12 97.1233 36.6453 97.1233 36.08C97.1233 35.2267 96.9419 34.592 96.5793 34.176C96.2166 33.7493 95.7366 33.536 95.1393 33.536C94.7446 33.536 94.3979 33.632 94.0993 33.824C93.8006 34.0053 93.5659 34.288 93.3953 34.672C93.2353 35.0453 93.1553 35.5147 93.1553 36.08C93.1553 36.9227 93.3366 37.5627 93.6993 38C94.0619 38.4267 94.5419 38.64 95.1393 38.64ZM109.413 40.128C109.082 40.128 108.826 40.0373 108.645 39.856C108.474 39.664 108.389 39.3973 108.389 39.056V34.192L108.821 35.424L104.965 30C104.826 29.808 104.762 29.6053 104.773 29.392C104.794 29.168 104.885 28.9813 105.045 28.832C105.205 28.672 105.429 28.592 105.717 28.592C105.93 28.592 106.122 28.6453 106.293 28.752C106.474 28.8587 106.645 29.024 106.805 29.248L109.669 33.312H109.221L112.101 29.248C112.271 29.0133 112.437 28.848 112.597 28.752C112.757 28.6453 112.954 28.592 113.189 28.592C113.466 28.592 113.679 28.6667 113.829 28.816C113.989 28.9547 114.069 29.1307 114.069 29.344C114.079 29.5573 114.005 29.7813 113.845 30.016L110.021 35.424L110.437 34.192V39.056C110.437 39.7707 110.095 40.128 109.413 40.128ZM117.639 40.16C116.829 40.16 116.125 39.9947 115.527 39.664C114.93 39.3333 114.466 38.864 114.135 38.256C113.805 37.6373 113.639 36.912 113.639 36.08C113.639 35.4507 113.73 34.8907 113.911 34.4C114.103 33.8987 114.375 33.472 114.727 33.12C115.079 32.7573 115.501 32.4853 115.991 32.304C116.482 32.112 117.031 32.016 117.639 32.016C118.45 32.016 119.154 32.1813 119.751 32.512C120.349 32.8427 120.813 33.312 121.143 33.92C121.474 34.528 121.639 35.248 121.639 36.08C121.639 36.7093 121.543 37.2747 121.351 37.776C121.17 38.2773 120.903 38.7093 120.551 39.072C120.199 39.424 119.778 39.696 119.287 39.888C118.797 40.0693 118.247 40.16 117.639 40.16ZM117.639 38.64C118.034 38.64 118.381 38.544 118.679 38.352C118.978 38.16 119.207 37.8773 119.367 37.504C119.538 37.12 119.623 36.6453 119.623 36.08C119.623 35.2267 119.442 34.592 119.079 34.176C118.717 33.7493 118.237 33.536 117.639 33.536C117.245 33.536 116.898 33.632 116.599 33.824C116.301 34.0053 116.066 34.288 115.895 34.672C115.735 35.0453 115.655 35.5147 115.655 36.08C115.655 36.9227 115.837 37.5627 116.199 38C116.562 38.4267 117.042 38.64 117.639 38.64ZM126.122 40.16C125.471 40.16 124.933 40.0427 124.506 39.808C124.079 39.5627 123.759 39.2 123.546 38.72C123.343 38.24 123.242 37.6427 123.242 36.928V33.056C123.242 32.7147 123.327 32.464 123.498 32.304C123.669 32.1333 123.914 32.048 124.234 32.048C124.554 32.048 124.799 32.1333 124.97 32.304C125.151 32.464 125.242 32.7147 125.242 33.056V36.96C125.242 37.5147 125.354 37.9253 125.578 38.192C125.802 38.4587 126.159 38.592 126.65 38.592C127.183 38.592 127.621 38.4107 127.962 38.048C128.303 37.6747 128.474 37.184 128.474 36.576V33.056C128.474 32.7147 128.559 32.464 128.73 32.304C128.901 32.1333 129.146 32.048 129.466 32.048C129.786 32.048 130.031 32.1333 130.202 32.304C130.383 32.464 130.474 32.7147 130.474 33.056V39.104C130.474 39.7867 130.149 40.128 129.498 40.128C129.189 40.128 128.949 40.0427 128.778 39.872C128.607 39.6907 128.522 39.4347 128.522 39.104V37.888L128.746 38.368C128.522 38.944 128.181 39.3867 127.722 39.696C127.274 40.0053 126.741 40.16 126.122 40.16ZM133.58 40.128C133.249 40.128 132.993 40.0427 132.812 39.872C132.641 39.6907 132.556 39.4347 132.556 39.104V33.056C132.556 32.7253 132.641 32.4747 132.812 32.304C132.982 32.1333 133.222 32.048 133.532 32.048C133.841 32.048 134.081 32.1333 134.252 32.304C134.422 32.4747 134.508 32.7253 134.508 33.056V34.064H134.348C134.497 33.424 134.79 32.9387 135.228 32.608C135.665 32.2773 136.246 32.08 136.972 32.016C137.196 31.9947 137.372 32.0533 137.5 32.192C137.638 32.32 137.718 32.5227 137.74 32.8C137.761 33.0667 137.697 33.2853 137.548 33.456C137.409 33.616 137.196 33.712 136.908 33.744L136.556 33.776C135.905 33.84 135.414 34.0427 135.084 34.384C134.753 34.7147 134.588 35.184 134.588 35.792V39.104C134.588 39.4347 134.502 39.6907 134.332 39.872C134.161 40.0427 133.91 40.128 133.58 40.128ZM144.445 40C144.093 40 143.821 39.9093 143.629 39.728C143.448 39.536 143.357 39.264 143.357 38.912V29.808C143.357 29.456 143.448 29.1893 143.629 29.008C143.821 28.816 144.093 28.72 144.445 28.72H147.549C149.437 28.72 150.893 29.2053 151.917 30.176C152.952 31.1467 153.469 32.5387 153.469 34.352C153.469 35.2587 153.336 36.064 153.069 36.768C152.813 37.4613 152.429 38.048 151.917 38.528C151.416 39.008 150.797 39.376 150.061 39.632C149.336 39.8773 148.498 40 147.549 40H144.445ZM145.405 38.304H147.421C148.082 38.304 148.653 38.224 149.133 38.064C149.624 37.8933 150.029 37.648 150.349 37.328C150.68 36.9973 150.925 36.5867 151.085 36.096C151.245 35.5947 151.325 35.0133 151.325 34.352C151.325 33.0293 151 32.0427 150.349 31.392C149.698 30.7413 148.722 30.416 147.421 30.416H145.405V38.304ZM159.209 40.16C158.323 40.16 157.561 39.9947 156.921 39.664C156.281 39.3333 155.785 38.864 155.433 38.256C155.091 37.648 154.921 36.928 154.921 36.096C154.921 35.2853 155.086 34.576 155.417 33.968C155.758 33.36 156.222 32.8853 156.809 32.544C157.406 32.192 158.083 32.016 158.841 32.016C159.395 32.016 159.891 32.1067 160.329 32.288C160.777 32.4693 161.155 32.7307 161.465 33.072C161.785 33.4133 162.025 33.8293 162.185 34.32C162.355 34.8 162.441 35.344 162.441 35.952C162.441 36.144 162.371 36.2933 162.233 36.4C162.105 36.496 161.918 36.544 161.673 36.544H156.537V35.392H161.033L160.777 35.632C160.777 35.1413 160.702 34.7307 160.553 34.4C160.414 34.0693 160.206 33.8187 159.929 33.648C159.662 33.4667 159.326 33.376 158.921 33.376C158.473 33.376 158.089 33.4827 157.769 33.696C157.459 33.8987 157.219 34.192 157.049 34.576C156.889 34.9493 156.809 35.3973 156.809 35.92V36.032C156.809 36.9067 157.011 37.5627 157.417 38C157.833 38.4267 158.441 38.64 159.241 38.64C159.518 38.64 159.827 38.608 160.169 38.544C160.521 38.4693 160.851 38.3467 161.161 38.176C161.385 38.048 161.582 37.9947 161.753 38.016C161.923 38.0267 162.057 38.0853 162.153 38.192C162.259 38.2987 162.323 38.432 162.345 38.592C162.366 38.7413 162.334 38.896 162.249 39.056C162.174 39.216 162.041 39.3547 161.849 39.472C161.475 39.7067 161.043 39.8827 160.553 40C160.073 40.1067 159.625 40.16 159.209 40.16ZM166.888 40.16C166.43 40.16 165.944 40.112 165.432 40.016C164.92 39.92 164.462 39.7547 164.056 39.52C163.886 39.4133 163.763 39.2907 163.688 39.152C163.624 39.0027 163.598 38.8587 163.608 38.72C163.63 38.5707 163.683 38.4427 163.768 38.336C163.864 38.2293 163.982 38.16 164.12 38.128C164.27 38.096 164.43 38.1227 164.6 38.208C165.027 38.4107 165.427 38.5547 165.8 38.64C166.174 38.7147 166.542 38.752 166.904 38.752C167.416 38.752 167.795 38.6667 168.04 38.496C168.296 38.3147 168.424 38.08 168.424 37.792C168.424 37.5467 168.339 37.36 168.168 37.232C168.008 37.0933 167.763 36.992 167.432 36.928L165.832 36.624C165.171 36.496 164.664 36.256 164.312 35.904C163.971 35.5413 163.8 35.0773 163.8 34.512C163.8 34 163.939 33.5573 164.216 33.184C164.504 32.8107 164.899 32.5227 165.4 32.32C165.902 32.1173 166.478 32.016 167.128 32.016C167.598 32.016 168.035 32.0693 168.44 32.176C168.856 32.272 169.256 32.4267 169.64 32.64C169.8 32.7253 169.907 32.8373 169.96 32.976C170.024 33.1147 170.04 33.2587 170.008 33.408C169.976 33.5467 169.912 33.6747 169.816 33.792C169.72 33.8987 169.598 33.968 169.448 34C169.31 34.0213 169.15 33.9893 168.968 33.904C168.638 33.7333 168.318 33.6107 168.008 33.536C167.71 33.4613 167.422 33.424 167.144 33.424C166.622 33.424 166.232 33.5147 165.976 33.696C165.731 33.8773 165.608 34.1173 165.608 34.416C165.608 34.64 165.683 34.8267 165.832 34.976C165.982 35.1253 166.211 35.2267 166.52 35.28L168.12 35.584C168.814 35.712 169.336 35.9467 169.688 36.288C170.051 36.6293 170.232 37.088 170.232 37.664C170.232 38.4427 169.928 39.056 169.32 39.504C168.712 39.9413 167.902 40.16 166.888 40.16ZM172.829 40.112C172.509 40.112 172.264 40.016 172.093 39.824C171.922 39.632 171.837 39.3653 171.837 39.024V33.152C171.837 32.8 171.922 32.5333 172.093 32.352C172.264 32.16 172.509 32.064 172.829 32.064C173.149 32.064 173.394 32.16 173.565 32.352C173.746 32.5333 173.837 32.8 173.837 33.152V39.024C173.837 39.3653 173.752 39.632 173.581 39.824C173.41 40.016 173.16 40.112 172.829 40.112ZM172.829 30.576C172.456 30.576 172.162 30.4853 171.949 30.304C171.746 30.112 171.645 29.8507 171.645 29.52C171.645 29.1787 171.746 28.9173 171.949 28.736C172.162 28.5547 172.456 28.464 172.829 28.464C173.213 28.464 173.506 28.5547 173.709 28.736C173.912 28.9173 174.013 29.1787 174.013 29.52C174.013 29.8507 173.912 30.112 173.709 30.304C173.506 30.4853 173.213 30.576 172.829 30.576ZM179.563 43.04C178.987 43.04 178.427 42.9867 177.883 42.88C177.35 42.7733 176.864 42.608 176.427 42.384C176.224 42.2773 176.086 42.1493 176.011 42C175.947 41.8507 175.926 41.696 175.947 41.536C175.979 41.3867 176.043 41.2533 176.139 41.136C176.246 41.0187 176.374 40.9387 176.523 40.896C176.672 40.8533 176.827 40.8747 176.987 40.96C177.456 41.1947 177.899 41.344 178.315 41.408C178.742 41.4827 179.104 41.52 179.403 41.52C180.118 41.52 180.651 41.344 181.003 40.992C181.366 40.6507 181.547 40.1387 181.547 39.456V38.016H181.691C181.531 38.56 181.195 38.9973 180.683 39.328C180.182 39.648 179.611 39.808 178.971 39.808C178.267 39.808 177.654 39.648 177.131 39.328C176.608 38.9973 176.203 38.5387 175.915 37.952C175.627 37.3653 175.483 36.6827 175.483 35.904C175.483 35.3173 175.563 34.7893 175.723 34.32C175.894 33.84 176.128 33.4293 176.427 33.088C176.736 32.7467 177.104 32.4853 177.531 32.304C177.968 32.112 178.448 32.016 178.971 32.016C179.632 32.016 180.208 32.1813 180.699 32.512C181.2 32.832 181.526 33.2587 181.675 33.792L181.515 34.192V33.056C181.515 32.7253 181.6 32.4747 181.771 32.304C181.952 32.1333 182.198 32.048 182.507 32.048C182.827 32.048 183.072 32.1333 183.243 32.304C183.414 32.4747 183.499 32.7253 183.499 33.056V39.216C183.499 40.4853 183.163 41.44 182.491 42.08C181.819 42.72 180.843 43.04 179.563 43.04ZM179.515 38.288C179.931 38.288 180.288 38.192 180.587 38C180.886 37.808 181.115 37.536 181.275 37.184C181.446 36.8213 181.531 36.3947 181.531 35.904C181.531 35.168 181.35 34.592 180.987 34.176C180.624 33.7493 180.134 33.536 179.515 33.536C179.099 33.536 178.742 33.632 178.443 33.824C178.144 34.016 177.91 34.288 177.739 34.64C177.579 34.992 177.499 35.4133 177.499 35.904C177.499 36.64 177.68 37.2213 178.043 37.648C178.406 38.0747 178.896 38.288 179.515 38.288ZM186.563 40.128C186.243 40.128 185.998 40.0427 185.827 39.872C185.657 39.6907 185.571 39.4347 185.571 39.104V33.056C185.571 32.7253 185.657 32.4747 185.827 32.304C185.998 32.1333 186.238 32.048 186.547 32.048C186.857 32.048 187.097 32.1333 187.267 32.304C187.438 32.4747 187.523 32.7253 187.523 33.056V34.144L187.347 33.744C187.582 33.1787 187.945 32.752 188.435 32.464C188.937 32.1653 189.502 32.016 190.131 32.016C190.761 32.016 191.278 32.1333 191.683 32.368C192.089 32.6027 192.393 32.96 192.595 33.44C192.798 33.9093 192.899 34.5067 192.899 35.232V39.104C192.899 39.4347 192.814 39.6907 192.643 39.872C192.473 40.0427 192.227 40.128 191.907 40.128C191.587 40.128 191.337 40.0427 191.155 39.872C190.985 39.6907 190.899 39.4347 190.899 39.104V35.328C190.899 34.72 190.782 34.2773 190.547 34C190.323 33.7227 189.971 33.584 189.491 33.584C188.905 33.584 188.435 33.7707 188.083 34.144C187.742 34.5067 187.571 34.992 187.571 35.6V39.104C187.571 39.7867 187.235 40.128 186.563 40.128Z" fill="#006DFF"/>
<rect x="34" y="7" width="195" height="55" rx="8" stroke="url(#paint0_linear_1659_24160)" stroke-width="2" stroke-linecap="round" stroke-linejoin="round"/>
</g>
<defs>
<filter id="filter0_ddddd_1659_24160" x="0" y="0" width="263" height="179" filterUnits="userSpaceOnUse" color-interpolation-filters="sRGB">
<feFlood flood-opacity="0" result="BackgroundImageFix"/>
<feColorMatrix in="SourceAlpha" type="matrix" values="0 0 0 0 0 0 0 0 0 0 0 0 0 0 0 0 0 0 127 0" result="hardAlpha"/>
<feOffset/>
<feColorMatrix type="matrix" values="0 0 0 0 0 0 0 0 0 0 0 0 0 0 0 0 0 0 0.1 0"/>
<feBlend mode="normal" in2="BackgroundImageFix" result="effect1_dropShadow_1659_24160"/>
<feColorMatrix in="SourceAlpha" type="matrix" values="0 0 0 0 0 0 0 0 0 0 0 0 0 0 0 0 0 0 127 0" result="hardAlpha"/>
<feOffset dy="5"/>
<feGaussianBlur stdDeviation="5.5"/>
<feColorMatrix type="matrix" values="0 0 0 0 0 0 0 0 0 0 0 0 0 0 0 0 0 0 0.1 0"/>
<feBlend mode="normal" in2="effect1_dropShadow_1659_24160" result="effect2_dropShadow_1659_24160"/>
<feColorMatrix in="SourceAlpha" type="matrix" values="0 0 0 0 0 0 0 0 0 0 0 0 0 0 0 0 0 0 127 0" result="hardAlpha"/>
<feOffset dy="21"/>
<feGaussianBlur stdDeviation="10.5"/>
<feColorMatrix type="matrix" values="0 0 0 0 0 0 0 0 0 0 0 0 0 0 0 0 0 0 0.09 0"/>
<feBlend mode="normal" in2="effect2_dropShadow_1659_24160" result="effect3_dropShadow_1659_24160"/>
<feColorMatrix in="SourceAlpha" type="matrix" values="0 0 0 0 0 0 0 0 0 0 0 0 0 0 0 0 0 0 127 0" result="hardAlpha"/>
<feOffset dy="47"/>
<feGaussianBlur stdDeviation="14"/>
<feColorMatrix type="matrix" values="0 0 0 0 0 0 0 0 0 0 0 0 0 0 0 0 0 0 0.05 0"/>
<feBlend mode="normal" in2="effect3_dropShadow_1659_24160" result="effect4_dropShadow_1659_24160"/>
<feColorMatrix in="SourceAlpha" type="matrix" values="0 0 0 0 0 0 0 0 0 0 0 0 0 0 0 0 0 0 127 0" result="hardAlpha"/>
<feOffset dy="83"/>
<feGaussianBlur stdDeviation="16.5"/>
<feColorMatrix type="matrix" values="0 0 0 0 0 0 0 0 0 0 0 0 0 0 0 0 0 0 0.01 0"/>
<feBlend mode="normal" in2="effect4_dropShadow_1659_24160" result="effect5_dropShadow_1659_24160"/>
<feBlend mode="normal" in="SourceGraphic" in2="effect5_dropShadow_1659_24160" result="shape"/>
</filter>
<linearGradient id="paint0_linear_1659_24160" x1="21" y1="3.94443" x2="213.663" y2="125.654" gradientUnits="userSpaceOnUse">
<stop stop-color="#88FF78"/>
<stop offset="0.46875" stop-color="#5282FF"/>
<stop offset="1" stop-color="#FF16AF"/>
</linearGradient>
</defs>
</svg>
