<svg width="24" height="24" viewBox="0 0 24 24" fill="none" xmlns="http://www.w3.org/2000/svg">
<path fill-rule="evenodd" clip-rule="evenodd" d="M5.20408 2C3.9868 2 3 2.9868 3 4.20408V15.7959C3 17.0132 3.9868 18 5.20408 18H6V20.7639C6 21.8192 7.42252 22.155 7.89443 21.2111L9.5 18H18.7959C20.0132 18 21 17.0132 21 15.7959V4.20408C21 2.9868 20.0132 2 18.7959 2H5.20408Z" fill="#7596FF"/>
<path d="M11.7578 11.9027C11.6429 11.9027 11.5515 11.8661 11.4836 11.793C11.4209 11.7146 11.3895 11.6101 11.3895 11.4795C11.3895 11.328 11.4078 11.1869 11.4444 11.0563C11.4809 10.9205 11.5384 10.7847 11.6168 10.6488C11.7004 10.513 11.8101 10.3745 11.9459 10.2335C12.04 10.1238 12.1157 10.0297 12.1732 9.95135C12.2359 9.86776 12.2777 9.78939 12.2986 9.71624C12.3247 9.63788 12.3378 9.55951 12.3378 9.48114C12.3378 9.33486 12.2829 9.21992 12.1732 9.13633C12.0687 9.05273 11.9172 9.01094 11.7187 9.01094C11.5306 9.01094 11.3556 9.03445 11.1936 9.08147C11.0369 9.12849 10.8827 9.19641 10.7312 9.28522C10.5954 9.35837 10.4726 9.3871 10.3629 9.37143C10.2584 9.35053 10.1748 9.30351 10.1121 9.23037C10.0494 9.152 10.0129 9.06057 10.0024 8.95608C9.99196 8.85159 10.0155 8.74971 10.0729 8.65045C10.1304 8.54596 10.2271 8.45453 10.3629 8.37616C10.5771 8.25078 10.8148 8.15673 11.076 8.09404C11.3373 8.03135 11.5802 8 11.8049 8C12.1497 8 12.4527 8.05747 12.7139 8.17241C12.9751 8.28735 13.1763 8.44408 13.3174 8.64261C13.4636 8.84114 13.5368 9.07363 13.5368 9.34008C13.5368 9.50204 13.5133 9.65355 13.4662 9.79461C13.4192 9.93567 13.3435 10.0767 13.239 10.2178C13.1345 10.3536 12.9908 10.4973 12.808 10.6488C12.646 10.7847 12.518 10.9074 12.424 11.0171C12.3299 11.1216 12.262 11.2235 12.2202 11.3228C12.1784 11.4168 12.1497 11.5187 12.134 11.6284C12.1183 11.7068 12.0791 11.7721 12.0165 11.8243C11.959 11.8766 11.8728 11.9027 11.7578 11.9027ZM11.7422 13.6503C11.5332 13.6503 11.366 13.5876 11.2406 13.4622C11.1205 13.3368 11.0604 13.1749 11.0604 12.9763C11.0604 12.783 11.1205 12.6263 11.2406 12.5061C11.366 12.3807 11.5332 12.318 11.7422 12.318C11.9511 12.318 12.1131 12.3807 12.228 12.5061C12.3482 12.6263 12.4083 12.783 12.4083 12.9763C12.4083 13.1749 12.3482 13.3368 12.228 13.4622C12.1131 13.5876 11.9511 13.6503 11.7422 13.6503Z" fill="white"/>
</svg>
