<svg width="24" height="24" viewBox="0 0 24 24" fill="none" xmlns="http://www.w3.org/2000/svg">
<path fill-rule="evenodd" clip-rule="evenodd" d="M5.75 7.75C5.75 5.40279 7.65279 3.5 10 3.5H14C16.3472 3.5 18.25 5.40279 18.25 7.75V10.7623C16.9867 10.8878 16 11.9537 16 13.25V16.25C16 17.5234 16.9521 18.5745 18.1833 18.7301C17.9746 19.4632 17.3 20 16.5 20H13.6615C13.4852 19.8444 13.2536 19.75 13 19.75H12C11.4477 19.75 11 20.1977 11 20.75C11 21.3023 11.4477 21.75 12 21.75H13C13.2536 21.75 13.4852 21.6556 13.6615 21.5H16.5C18.2386 21.5 19.6583 20.1349 19.7457 18.418C20.4953 17.9864 21 17.1771 21 16.25V13.25C21 12.3246 20.4973 11.5167 19.75 11.0845V7.75C19.75 4.57436 17.1756 2 14 2H10C6.82436 2 4.25 4.57436 4.25 7.75V11.0845C3.50275 11.5167 3 12.3246 3 13.25V16.25C3 17.6307 4.11929 18.75 5.5 18.75C6.88071 18.75 8 17.6307 8 16.25V13.25C8 11.9537 7.01333 10.8878 5.75 10.7623V7.75Z" fill="#7596FF"/>
</svg>
